G04 #@! TF.FileFunction,Paste,Top*
%FSLAX46Y46*%
G04 Gerber Fmt 4.6, Leading zero omitted, Abs format (unit mm)*
G04 Created by KiCad (PCBNEW 4.0.7) date 12/03/17 22:14:14*
%MOMM*%
%LPD*%
G01*
G04 APERTURE LIST*
%ADD10C,0.100000*%
%ADD11R,2.900000X1.100000*%
%ADD12R,0.900000X1.400000*%
%ADD13R,1.900000X1.200000*%
%ADD14R,1.200000X1.900000*%
%ADD15R,2.600000X2.100000*%
%ADD16R,0.900000X0.800000*%
%ADD17R,0.800000X0.900000*%
%ADD18R,1.100000X0.800000*%
G04 APERTURE END LIST*
D10*
D11*
X112600000Y-87100000D03*
X112600000Y-90100000D03*
D12*
X152550000Y-108800000D03*
X150650000Y-108800000D03*
X160950000Y-108800000D03*
X159050000Y-108800000D03*
D13*
X178200000Y-103000000D03*
X178200000Y-106000000D03*
D14*
X176300000Y-108800000D03*
X173300000Y-108800000D03*
D15*
X132600000Y-78000000D03*
X127500000Y-78000000D03*
X144600000Y-78000000D03*
X139500000Y-78000000D03*
X156550000Y-78000000D03*
X151450000Y-78000000D03*
X168600000Y-78000000D03*
X163500000Y-78000000D03*
D11*
X155800000Y-108900000D03*
X155800000Y-111900000D03*
D15*
X180550000Y-78000000D03*
X175450000Y-78000000D03*
D16*
X125600000Y-105350000D03*
X125600000Y-107050000D03*
X125600000Y-112250000D03*
X125600000Y-110550000D03*
D17*
X132950000Y-108800000D03*
X134650000Y-108800000D03*
D16*
X142200000Y-112250000D03*
X142200000Y-110550000D03*
D17*
X129150000Y-72000000D03*
X130850000Y-72000000D03*
D16*
X142200000Y-105350000D03*
X142200000Y-107050000D03*
D17*
X144350000Y-108800000D03*
X146050000Y-108800000D03*
X141100000Y-72000000D03*
X142800000Y-72000000D03*
D16*
X148200000Y-112250000D03*
X148200000Y-110550000D03*
X148200000Y-105350000D03*
X148200000Y-107050000D03*
D17*
X153100000Y-72000000D03*
X154800000Y-72000000D03*
X165100000Y-72000000D03*
X166800000Y-72000000D03*
X177150000Y-72000000D03*
X178850000Y-72000000D03*
D16*
X163400000Y-112250000D03*
X163400000Y-110550000D03*
X163400000Y-105350000D03*
X163400000Y-107050000D03*
D17*
X165750000Y-108800000D03*
X167450000Y-108800000D03*
D16*
X170000000Y-112250000D03*
X170000000Y-110550000D03*
X170000000Y-105350000D03*
X170000000Y-107050000D03*
D18*
X130200000Y-113700000D03*
X130200000Y-110400000D03*
X130200000Y-107250000D03*
X130200000Y-103950000D03*
X137000000Y-113700000D03*
X137000000Y-110400000D03*
X137000000Y-107250000D03*
X137000000Y-103950000D03*
D14*
X183100000Y-108800000D03*
X180100000Y-108800000D03*
M02*
