M48
;DRILL file {KiCad 4.0.7} date 12/03/17 22:14:18
;FORMAT={-:-/ absolute / metric / decimal}
FMAT,2
METRIC,TZ
T1C0.300
T2C0.500
T3C0.800
T4C1.000
T5C1.500
T6C1.700
T7C2.350
T8C3.500
T9C5.300
%
G90
G05
M71
T1
X101.4Y-66.9
X101.4Y-69.6
X101.4Y-72.4
X101.4Y-75.3
X101.4Y-77.7
X101.4Y-80.8
X101.4Y-83.5
X101.4Y-86.2
X101.4Y-88.9
X101.5Y-92.2
X101.5Y-94.8
X101.5Y-97.1
X101.5Y-100.
X101.5Y-102.6
X101.5Y-105.5
X101.5Y-108.2
X101.5Y-110.6
X101.5Y-120.5
X101.5Y-123.2
X101.5Y-125.7
X103.9Y-92.2
X104.7Y-110.6
X104.7Y-120.5
X104.8Y-106.3
X105.1Y-125.7
X106.8Y-92.2
X108.1Y-120.5
X108.2Y-110.6
X108.5Y-125.7
X109.6Y-112.
X109.7Y-90.8
X109.8Y-119.3
X110.8Y-113.4
X111.Y-117.4
X111.7Y-125.7
X111.8Y-122.6
X111.9Y-106.6
X112.Y-92.1
X112.6Y-112.1
X113.7Y-116.8
X114.6Y-110.1
X115.Y-125.7
X115.5Y-90.1
X116.2Y-114.5
X116.5Y-71.3
X116.7Y-103.2
X116.8Y-107.9
X117.7Y-89.3
X118.Y-125.7
X118.6Y-112.1
X118.8Y-71.8
X119.Y-107.2
X121.Y-106.5
X121.1Y-125.7
X121.3Y-111.1
X121.6Y-115.1
X121.8Y-71.8
X122.2Y-96.4
X122.3Y-101.4
X123.1Y-107.1
X124.Y-112.2
X124.1Y-105.4
X124.5Y-87.9
X124.7Y-125.7
X124.8Y-71.8
X124.8Y-122.
X124.9Y-92.4
X125.6Y-103.9
X125.6Y-113.7
X125.9Y-98.7
X126.3Y-86.1
X126.6Y-117.9
X127.1Y-105.4
X127.2Y-112.2
X127.4Y-72.6
X127.7Y-67.
X128.1Y-70.4
X128.1Y-84.3
X128.2Y-113.7
X128.3Y-104.
X128.3Y-125.7
X129.Y-89.6
X129.Y-95.9
X129.6Y-121.5
X130.Y-82.4
X130.1Y-100.3
X130.2Y-102.6
X130.2Y-115.
X131.6Y-67.
X131.8Y-125.7
X132.1Y-70.4
X132.1Y-104.
X132.2Y-113.7
X132.5Y-73.4
X133.2Y-82.4
X133.6Y-101.
X133.6Y-118.6
X133.7Y-111.3
X133.8Y-105.6
X134.3Y-123.8
X134.3Y-125.7
X134.7Y-96.9
X135.Y-67.
X135.1Y-104.
X135.1Y-113.7
X135.7Y-122.4
X135.9Y-73.4
X136.Y-82.4
X137.Y-102.6
X137.Y-115.
X137.9Y-122.4
X138.4Y-67.
X138.9Y-82.4
X138.9Y-104.
X138.9Y-117.3
X139.Y-70.5
X139.Y-73.4
X139.Y-113.7
X139.9Y-110.7
X140.Y-101.2
X140.5Y-119.7
X140.5Y-122.4
X140.6Y-112.2
X140.7Y-93.4
X140.7Y-105.4
X142.Y-67.
X142.Y-118.2
X142.1Y-82.4
X142.1Y-88.
X142.2Y-103.9
X142.2Y-113.7
X143.8Y-105.4
X143.9Y-112.2
X144.5Y-70.5
X144.5Y-73.5
X144.7Y-118.2
X145.1Y-115.4
X145.2Y-101.4
X145.2Y-110.7
X145.3Y-82.4
X145.9Y-67.
X146.5Y-112.2
X146.6Y-105.4
X147.9Y-73.5
X148.Y-82.4
X148.2Y-96.7
X148.2Y-103.9
X148.2Y-113.7
X148.6Y-118.2
X149.3Y-67.
X149.7Y-86.
X149.8Y-93.3
X149.8Y-105.4
X149.8Y-112.2
X150.8Y-82.4
X151.1Y-70.5
X151.1Y-73.5
X151.6Y-110.7
X151.7Y-115.2
X152.5Y-118.2
X152.8Y-101.5
X152.9Y-105.3
X153.3Y-67.
X153.3Y-111.9
X154.1Y-82.4
X155.8Y-105.3
X155.8Y-113.7
X156.2Y-118.2
X156.4Y-70.5
X156.4Y-73.4
X156.4Y-96.7
X157.Y-67.
X157.2Y-82.4
X157.3Y-101.5
X157.7Y-88.1
X157.8Y-119.7
X157.8Y-122.4
X158.3Y-111.9
X158.9Y-105.3
X159.3Y-115.5
X159.8Y-73.4
X159.9Y-94.6
X160.Y-110.7
X160.1Y-82.4
X160.7Y-122.4
X161.1Y-67.
X161.8Y-105.3
X161.8Y-112.2
X162.9Y-82.4
X162.9Y-100.4
X163.1Y-70.5
X163.1Y-73.4
X163.3Y-122.4
X163.3Y-125.8
X163.4Y-103.9
X163.4Y-113.7
X163.4Y-118.5
X164.9Y-105.3
X165.Y-112.2
X165.6Y-67.
X165.9Y-96.3
X166.1Y-82.4
X166.6Y-110.7
X166.7Y-115.5
X167.6Y-125.8
X168.1Y-119.7
X168.3Y-70.5
X168.3Y-73.6
X168.4Y-105.4
X168.4Y-112.2
X168.8Y-100.
X168.9Y-67.
X169.2Y-82.4
X169.4Y-85.9
X169.4Y-94.1
X170.Y-103.9
X170.Y-113.7
X171.1Y-125.8
X171.6Y-105.4
X171.6Y-112.2
X171.7Y-90.9
X171.8Y-73.6
X172.1Y-97.2
X172.2Y-82.4
X172.8Y-102.
X172.9Y-110.9
X173.3Y-106.6
X173.9Y-67.
X173.9Y-69.3
X173.9Y-86.1
X174.6Y-125.8
X174.8Y-110.9
X175.2Y-82.4
X175.2Y-114.8
X175.2Y-120.5
X175.3Y-71.3
X175.3Y-73.6
X175.7Y-89.5
X175.7Y-92.5
X175.7Y-95.7
X175.7Y-98.3
X175.8Y-100.5
X175.8Y-102.7
X175.8Y-105.2
X176.7Y-110.9
X177.8Y-87.3
X178.Y-82.4
X178.1Y-125.8
X178.8Y-110.9
X180.3Y-83.2
X180.3Y-105.5
X180.4Y-95.6
X180.4Y-98.1
X180.4Y-100.5
X180.4Y-102.8
X180.5Y-113.7
X180.6Y-85.9
X180.6Y-89.6
X180.6Y-92.5
X181.2Y-110.9
X181.3Y-125.8
X183.Y-83.2
X183.2Y-89.6
X183.3Y-111.
X183.4Y-85.9
X183.5Y-106.5
X184.4Y-84.4
X184.8Y-103.1
X184.8Y-125.8
X185.2Y-88.8
X185.2Y-110.5
X185.3Y-107.2
X185.6Y-115.4
X185.9Y-83.2
X186.8Y-87.2
X187.7Y-107.2
X187.7Y-110.5
X187.9Y-125.8
X188.1Y-122.1
X188.2Y-113.6
X188.3Y-117.8
X188.5Y-85.5
X190.5Y-107.2
X190.5Y-110.5
X191.4Y-125.8
X191.5Y-90.9
X191.8Y-123.
X193.4Y-107.8
X194.4Y-125.8
X195.3Y-109.7
X197.2Y-125.8
X198.2Y-123.2
X198.6Y-67.
X198.6Y-70.
X198.6Y-73.
X198.6Y-76.
X198.6Y-79.
X198.6Y-82.1
X198.6Y-85.
X198.6Y-88.
X198.6Y-90.9
X198.6Y-93.9
X198.6Y-97.
X198.6Y-99.9
X198.6Y-103.
X198.6Y-106.
X198.6Y-109.
T2
X115.375Y-120.
X116.144Y-118.144
X116.144Y-121.856
X118.Y-117.375
X118.Y-122.625
X119.856Y-118.144
X119.856Y-121.856
X120.625Y-120.
X133.375Y-90.
X134.144Y-88.144
X134.144Y-91.856
X136.Y-87.375
X136.Y-92.625
X137.856Y-88.144
X137.856Y-91.856
X138.625Y-90.
X161.375Y-90.
X162.144Y-88.144
X162.144Y-91.856
X164.Y-87.375
X164.Y-92.625
X165.856Y-88.144
X165.856Y-91.856
X166.625Y-90.
X179.375Y-120.
X180.144Y-118.144
X180.144Y-121.856
X182.Y-117.375
X182.Y-122.625
X183.856Y-118.144
X183.856Y-121.856
X184.625Y-120.
T3
X120.8Y-85.2
X120.8Y-88.7
T4
X106.Y-68.
X108.5Y-68.
X111.Y-68.
X113.5Y-68.
X116.Y-68.
X118.5Y-68.
X121.Y-68.
X123.5Y-68.
X177.2Y-68.
X179.7Y-68.
X182.2Y-68.
X184.7Y-68.
X187.2Y-68.
X189.7Y-68.
X192.2Y-68.
X194.7Y-68.
T5
X104.8Y-115.6
X195.2Y-115.6
T6
X102.26Y-113.06
X102.26Y-118.14
X107.34Y-113.06
X107.34Y-118.14
X192.66Y-113.06
X192.66Y-118.14
X197.74Y-113.06
X197.74Y-118.14
T7
X106.Y-88.4
X115.4Y-94.
X186.9Y-91.6
X194.1Y-87.6
T8
X118.Y-120.
X136.Y-90.
X164.Y-90.
X182.Y-120.
T9
X108.Y-79.4
X108.Y-98.4
X192.Y-79.4
X192.Y-98.4
T0
M30
