G04 #@! TF.FileFunction,Legend,Top*
%FSLAX46Y46*%
G04 Gerber Fmt 4.6, Leading zero omitted, Abs format (unit mm)*
G04 Created by KiCad (PCBNEW 4.0.7) date 12/03/17 22:14:14*
%MOMM*%
%LPD*%
G01*
G04 APERTURE LIST*
%ADD10C,0.100000*%
%ADD11C,0.250000*%
%ADD12C,0.200000*%
%ADD13C,0.120000*%
%ADD14C,0.010000*%
%ADD15C,0.150000*%
G04 APERTURE END LIST*
D10*
D11*
X114171429Y-77604762D02*
X114838096Y-79604762D01*
X115504763Y-77604762D01*
X116171429Y-79604762D02*
X116171429Y-77604762D01*
X117123810Y-79604762D02*
X117123810Y-77604762D01*
X118266668Y-79604762D01*
X118266668Y-77604762D01*
X119219048Y-78842857D02*
X120742858Y-78842857D01*
X119980953Y-79604762D02*
X119980953Y-78080952D01*
X137228570Y-97542857D02*
X138752380Y-97542857D01*
X140752380Y-98304762D02*
X139609522Y-98304762D01*
X140180951Y-98304762D02*
X140180951Y-96304762D01*
X139990475Y-96590476D01*
X139799999Y-96780952D01*
X139609522Y-96876190D01*
X141990475Y-96304762D02*
X142180951Y-96304762D01*
X142371427Y-96400000D01*
X142466665Y-96495238D01*
X142561903Y-96685714D01*
X142657142Y-97066667D01*
X142657142Y-97542857D01*
X142561903Y-97923810D01*
X142466665Y-98114286D01*
X142371427Y-98209524D01*
X142180951Y-98304762D01*
X141990475Y-98304762D01*
X141799999Y-98209524D01*
X141704761Y-98114286D01*
X141609522Y-97923810D01*
X141514284Y-97542857D01*
X141514284Y-97066667D01*
X141609522Y-96685714D01*
X141704761Y-96495238D01*
X141799999Y-96400000D01*
X141990475Y-96304762D01*
X144371427Y-98304762D02*
X144371427Y-96304762D01*
X144371427Y-98209524D02*
X144180951Y-98304762D01*
X143799999Y-98304762D01*
X143609523Y-98209524D01*
X143514284Y-98114286D01*
X143419046Y-97923810D01*
X143419046Y-97352381D01*
X143514284Y-97161905D01*
X143609523Y-97066667D01*
X143799999Y-96971429D01*
X144180951Y-96971429D01*
X144371427Y-97066667D01*
X145990475Y-97257143D02*
X146276189Y-97352381D01*
X146371428Y-97447619D01*
X146466666Y-97638095D01*
X146466666Y-97923810D01*
X146371428Y-98114286D01*
X146276189Y-98209524D01*
X146085713Y-98304762D01*
X145323808Y-98304762D01*
X145323808Y-96304762D01*
X145990475Y-96304762D01*
X146180951Y-96400000D01*
X146276189Y-96495238D01*
X146371428Y-96685714D01*
X146371428Y-96876190D01*
X146276189Y-97066667D01*
X146180951Y-97161905D01*
X145990475Y-97257143D01*
X145323808Y-97257143D01*
X147419047Y-98209524D02*
X147419047Y-98304762D01*
X147323808Y-98495238D01*
X147228570Y-98590476D01*
X150847619Y-98304762D02*
X149704761Y-98304762D01*
X150276190Y-98304762D02*
X150276190Y-96304762D01*
X150085714Y-96590476D01*
X149895238Y-96780952D01*
X149704761Y-96876190D01*
X152085714Y-96304762D02*
X152276190Y-96304762D01*
X152466666Y-96400000D01*
X152561904Y-96495238D01*
X152657142Y-96685714D01*
X152752381Y-97066667D01*
X152752381Y-97542857D01*
X152657142Y-97923810D01*
X152561904Y-98114286D01*
X152466666Y-98209524D01*
X152276190Y-98304762D01*
X152085714Y-98304762D01*
X151895238Y-98209524D01*
X151800000Y-98114286D01*
X151704761Y-97923810D01*
X151609523Y-97542857D01*
X151609523Y-97066667D01*
X151704761Y-96685714D01*
X151800000Y-96495238D01*
X151895238Y-96400000D01*
X152085714Y-96304762D01*
X153514285Y-97733333D02*
X154466666Y-97733333D01*
X153323809Y-98304762D02*
X153990476Y-96304762D01*
X154657143Y-98304762D01*
X155419048Y-98209524D02*
X155419048Y-98304762D01*
X155323809Y-98495238D01*
X155228571Y-98590476D01*
X158657143Y-96304762D02*
X158276191Y-96304762D01*
X158085715Y-96400000D01*
X157990477Y-96495238D01*
X157800000Y-96780952D01*
X157704762Y-97161905D01*
X157704762Y-97923810D01*
X157800000Y-98114286D01*
X157895239Y-98209524D01*
X158085715Y-98304762D01*
X158466667Y-98304762D01*
X158657143Y-98209524D01*
X158752381Y-98114286D01*
X158847620Y-97923810D01*
X158847620Y-97447619D01*
X158752381Y-97257143D01*
X158657143Y-97161905D01*
X158466667Y-97066667D01*
X158085715Y-97066667D01*
X157895239Y-97161905D01*
X157800000Y-97257143D01*
X157704762Y-97447619D01*
X160085715Y-96304762D02*
X160276191Y-96304762D01*
X160466667Y-96400000D01*
X160561905Y-96495238D01*
X160657143Y-96685714D01*
X160752382Y-97066667D01*
X160752382Y-97542857D01*
X160657143Y-97923810D01*
X160561905Y-98114286D01*
X160466667Y-98209524D01*
X160276191Y-98304762D01*
X160085715Y-98304762D01*
X159895239Y-98209524D01*
X159800001Y-98114286D01*
X159704762Y-97923810D01*
X159609524Y-97542857D01*
X159609524Y-97066667D01*
X159704762Y-96685714D01*
X159800001Y-96495238D01*
X159895239Y-96400000D01*
X160085715Y-96304762D01*
X161323810Y-96304762D02*
X161990477Y-98304762D01*
X162657144Y-96304762D01*
X144333333Y-92104762D02*
X143380952Y-92104762D01*
X143285714Y-93057143D01*
X143380952Y-92961905D01*
X143571429Y-92866667D01*
X144047619Y-92866667D01*
X144238095Y-92961905D01*
X144333333Y-93057143D01*
X144428572Y-93247619D01*
X144428572Y-93723810D01*
X144333333Y-93914286D01*
X144238095Y-94009524D01*
X144047619Y-94104762D01*
X143571429Y-94104762D01*
X143380952Y-94009524D01*
X143285714Y-93914286D01*
X145285714Y-92771429D02*
X145285714Y-94771429D01*
X146238095Y-93819048D02*
X146333334Y-94009524D01*
X146523810Y-94104762D01*
X145285714Y-93819048D02*
X145380953Y-94009524D01*
X145571429Y-94104762D01*
X145952381Y-94104762D01*
X146142857Y-94009524D01*
X146238095Y-93819048D01*
X146238095Y-92771429D01*
X147380952Y-94104762D02*
X147380952Y-92104762D01*
X147380952Y-93057143D02*
X148523810Y-93057143D01*
X148523810Y-94104762D02*
X148523810Y-92104762D01*
X151952381Y-94104762D02*
X151000000Y-94104762D01*
X151000000Y-92104762D01*
X152619048Y-94104762D02*
X152619048Y-92104762D01*
X153476191Y-94009524D02*
X153761906Y-94104762D01*
X154238096Y-94104762D01*
X154428572Y-94009524D01*
X154523810Y-93914286D01*
X154619049Y-93723810D01*
X154619049Y-93533333D01*
X154523810Y-93342857D01*
X154428572Y-93247619D01*
X154238096Y-93152381D01*
X153857144Y-93057143D01*
X153666668Y-92961905D01*
X153571429Y-92866667D01*
X153476191Y-92676190D01*
X153476191Y-92485714D01*
X153571429Y-92295238D01*
X153666668Y-92200000D01*
X153857144Y-92104762D01*
X154333334Y-92104762D01*
X154619049Y-92200000D01*
X155476191Y-94104762D02*
X155476191Y-92104762D01*
X156619049Y-94104762D01*
X156619049Y-92104762D01*
X189428571Y-106404762D02*
X189428571Y-104404762D01*
X189904762Y-104404762D01*
X190190476Y-104500000D01*
X190380952Y-104690476D01*
X190476191Y-104880952D01*
X190571429Y-105261905D01*
X190571429Y-105547619D01*
X190476191Y-105928571D01*
X190380952Y-106119048D01*
X190190476Y-106309524D01*
X189904762Y-106404762D01*
X189428571Y-106404762D01*
X191428571Y-104404762D02*
X191428571Y-106023810D01*
X191523810Y-106214286D01*
X191619048Y-106309524D01*
X191809524Y-106404762D01*
X192190476Y-106404762D01*
X192380952Y-106309524D01*
X192476191Y-106214286D01*
X192571429Y-106023810D01*
X192571429Y-104404762D01*
X193238095Y-104404762D02*
X194380952Y-104404762D01*
X193809524Y-106404762D02*
X193809524Y-104404762D01*
X195047619Y-105642857D02*
X196571429Y-105642857D01*
X189028571Y-73104762D02*
X189028571Y-71104762D01*
X189504762Y-71104762D01*
X189790476Y-71200000D01*
X189980952Y-71390476D01*
X190076191Y-71580952D01*
X190171429Y-71961905D01*
X190171429Y-72247619D01*
X190076191Y-72628571D01*
X189980952Y-72819048D01*
X189790476Y-73009524D01*
X189504762Y-73104762D01*
X189028571Y-73104762D01*
X191028571Y-71104762D02*
X191028571Y-72723810D01*
X191123810Y-72914286D01*
X191219048Y-73009524D01*
X191409524Y-73104762D01*
X191790476Y-73104762D01*
X191980952Y-73009524D01*
X192076191Y-72914286D01*
X192171429Y-72723810D01*
X192171429Y-71104762D01*
X192838095Y-71104762D02*
X193980952Y-71104762D01*
X193409524Y-73104762D02*
X193409524Y-71104762D01*
X194647619Y-72342857D02*
X196171429Y-72342857D01*
X195409524Y-73104762D02*
X195409524Y-71580952D01*
X114171429Y-97704762D02*
X114838096Y-99704762D01*
X115504763Y-97704762D01*
X116171429Y-99704762D02*
X116171429Y-97704762D01*
X117123810Y-99704762D02*
X117123810Y-97704762D01*
X118266668Y-99704762D01*
X118266668Y-97704762D01*
X119219048Y-98942857D02*
X120742858Y-98942857D01*
X114171429Y-77604762D02*
X114838096Y-79604762D01*
X115504763Y-77604762D01*
X116171429Y-79604762D02*
X116171429Y-77604762D01*
X117123810Y-79604762D02*
X117123810Y-77604762D01*
X118266668Y-79604762D01*
X118266668Y-77604762D01*
X119219048Y-78842857D02*
X120742858Y-78842857D01*
X119980953Y-79604762D02*
X119980953Y-78080952D01*
D12*
X111300000Y-89300000D02*
X111300000Y-87900000D01*
X113900000Y-87900000D02*
X113900000Y-89300000D01*
X124890000Y-86950000D02*
G75*
G03X124890000Y-86950000I-4090000J0D01*
G01*
D13*
X124850000Y-86950000D02*
X116750000Y-86950000D01*
X124850000Y-86990000D02*
X116750000Y-86990000D01*
X124850000Y-87030000D02*
X116750000Y-87030000D01*
X124849000Y-87070000D02*
X116751000Y-87070000D01*
X124847000Y-87110000D02*
X116753000Y-87110000D01*
X124846000Y-87150000D02*
X116754000Y-87150000D01*
X124843000Y-87190000D02*
X116757000Y-87190000D01*
X124841000Y-87230000D02*
X116759000Y-87230000D01*
X124838000Y-87270000D02*
X116762000Y-87270000D01*
X124835000Y-87310000D02*
X116765000Y-87310000D01*
X124831000Y-87350000D02*
X116769000Y-87350000D01*
X124827000Y-87390000D02*
X116773000Y-87390000D01*
X124822000Y-87430000D02*
X116778000Y-87430000D01*
X124817000Y-87470000D02*
X116783000Y-87470000D01*
X124812000Y-87510000D02*
X116788000Y-87510000D01*
X124806000Y-87550000D02*
X116794000Y-87550000D01*
X124800000Y-87590000D02*
X116800000Y-87590000D01*
X124794000Y-87630000D02*
X116806000Y-87630000D01*
X124787000Y-87671000D02*
X116813000Y-87671000D01*
X124779000Y-87711000D02*
X116821000Y-87711000D01*
X124771000Y-87751000D02*
X121780000Y-87751000D01*
X119820000Y-87751000D02*
X116829000Y-87751000D01*
X124763000Y-87791000D02*
X121780000Y-87791000D01*
X119820000Y-87791000D02*
X116837000Y-87791000D01*
X124755000Y-87831000D02*
X121780000Y-87831000D01*
X119820000Y-87831000D02*
X116845000Y-87831000D01*
X124746000Y-87871000D02*
X121780000Y-87871000D01*
X119820000Y-87871000D02*
X116854000Y-87871000D01*
X124736000Y-87911000D02*
X121780000Y-87911000D01*
X119820000Y-87911000D02*
X116864000Y-87911000D01*
X124726000Y-87951000D02*
X121780000Y-87951000D01*
X119820000Y-87951000D02*
X116874000Y-87951000D01*
X124716000Y-87991000D02*
X121780000Y-87991000D01*
X119820000Y-87991000D02*
X116884000Y-87991000D01*
X124705000Y-88031000D02*
X121780000Y-88031000D01*
X119820000Y-88031000D02*
X116895000Y-88031000D01*
X124694000Y-88071000D02*
X121780000Y-88071000D01*
X119820000Y-88071000D02*
X116906000Y-88071000D01*
X124683000Y-88111000D02*
X121780000Y-88111000D01*
X119820000Y-88111000D02*
X116917000Y-88111000D01*
X124670000Y-88151000D02*
X121780000Y-88151000D01*
X119820000Y-88151000D02*
X116930000Y-88151000D01*
X124658000Y-88191000D02*
X121780000Y-88191000D01*
X119820000Y-88191000D02*
X116942000Y-88191000D01*
X124645000Y-88231000D02*
X121780000Y-88231000D01*
X119820000Y-88231000D02*
X116955000Y-88231000D01*
X124632000Y-88271000D02*
X121780000Y-88271000D01*
X119820000Y-88271000D02*
X116968000Y-88271000D01*
X124618000Y-88311000D02*
X121780000Y-88311000D01*
X119820000Y-88311000D02*
X116982000Y-88311000D01*
X124603000Y-88351000D02*
X121780000Y-88351000D01*
X119820000Y-88351000D02*
X116997000Y-88351000D01*
X124589000Y-88391000D02*
X121780000Y-88391000D01*
X119820000Y-88391000D02*
X117011000Y-88391000D01*
X124573000Y-88431000D02*
X121780000Y-88431000D01*
X119820000Y-88431000D02*
X117027000Y-88431000D01*
X124558000Y-88471000D02*
X121780000Y-88471000D01*
X119820000Y-88471000D02*
X117042000Y-88471000D01*
X124541000Y-88511000D02*
X121780000Y-88511000D01*
X119820000Y-88511000D02*
X117059000Y-88511000D01*
X124525000Y-88551000D02*
X121780000Y-88551000D01*
X119820000Y-88551000D02*
X117075000Y-88551000D01*
X124507000Y-88591000D02*
X121780000Y-88591000D01*
X119820000Y-88591000D02*
X117093000Y-88591000D01*
X124490000Y-88631000D02*
X121780000Y-88631000D01*
X119820000Y-88631000D02*
X117110000Y-88631000D01*
X124471000Y-88671000D02*
X121780000Y-88671000D01*
X119820000Y-88671000D02*
X117129000Y-88671000D01*
X124452000Y-88711000D02*
X121780000Y-88711000D01*
X119820000Y-88711000D02*
X117148000Y-88711000D01*
X124433000Y-88751000D02*
X121780000Y-88751000D01*
X119820000Y-88751000D02*
X117167000Y-88751000D01*
X124413000Y-88791000D02*
X121780000Y-88791000D01*
X119820000Y-88791000D02*
X117187000Y-88791000D01*
X124393000Y-88831000D02*
X121780000Y-88831000D01*
X119820000Y-88831000D02*
X117207000Y-88831000D01*
X124372000Y-88871000D02*
X121780000Y-88871000D01*
X119820000Y-88871000D02*
X117228000Y-88871000D01*
X124350000Y-88911000D02*
X121780000Y-88911000D01*
X119820000Y-88911000D02*
X117250000Y-88911000D01*
X124328000Y-88951000D02*
X121780000Y-88951000D01*
X119820000Y-88951000D02*
X117272000Y-88951000D01*
X124305000Y-88991000D02*
X121780000Y-88991000D01*
X119820000Y-88991000D02*
X117295000Y-88991000D01*
X124282000Y-89031000D02*
X121780000Y-89031000D01*
X119820000Y-89031000D02*
X117318000Y-89031000D01*
X124258000Y-89071000D02*
X121780000Y-89071000D01*
X119820000Y-89071000D02*
X117342000Y-89071000D01*
X124234000Y-89111000D02*
X121780000Y-89111000D01*
X119820000Y-89111000D02*
X117366000Y-89111000D01*
X124208000Y-89151000D02*
X121780000Y-89151000D01*
X119820000Y-89151000D02*
X117392000Y-89151000D01*
X124183000Y-89191000D02*
X121780000Y-89191000D01*
X119820000Y-89191000D02*
X117417000Y-89191000D01*
X124156000Y-89231000D02*
X121780000Y-89231000D01*
X119820000Y-89231000D02*
X117444000Y-89231000D01*
X124129000Y-89271000D02*
X121780000Y-89271000D01*
X119820000Y-89271000D02*
X117471000Y-89271000D01*
X124101000Y-89311000D02*
X121780000Y-89311000D01*
X119820000Y-89311000D02*
X117499000Y-89311000D01*
X124072000Y-89351000D02*
X121780000Y-89351000D01*
X119820000Y-89351000D02*
X117528000Y-89351000D01*
X124043000Y-89391000D02*
X121780000Y-89391000D01*
X119820000Y-89391000D02*
X117557000Y-89391000D01*
X124013000Y-89431000D02*
X121780000Y-89431000D01*
X119820000Y-89431000D02*
X117587000Y-89431000D01*
X123982000Y-89471000D02*
X121780000Y-89471000D01*
X119820000Y-89471000D02*
X117618000Y-89471000D01*
X123950000Y-89511000D02*
X121780000Y-89511000D01*
X119820000Y-89511000D02*
X117650000Y-89511000D01*
X123918000Y-89551000D02*
X121780000Y-89551000D01*
X119820000Y-89551000D02*
X117682000Y-89551000D01*
X123884000Y-89591000D02*
X121780000Y-89591000D01*
X119820000Y-89591000D02*
X117716000Y-89591000D01*
X123850000Y-89631000D02*
X121780000Y-89631000D01*
X119820000Y-89631000D02*
X117750000Y-89631000D01*
X123815000Y-89671000D02*
X121780000Y-89671000D01*
X119820000Y-89671000D02*
X117785000Y-89671000D01*
X123779000Y-89711000D02*
X117821000Y-89711000D01*
X123742000Y-89751000D02*
X117858000Y-89751000D01*
X123704000Y-89791000D02*
X117896000Y-89791000D01*
X123665000Y-89831000D02*
X117935000Y-89831000D01*
X123624000Y-89871000D02*
X117976000Y-89871000D01*
X123583000Y-89911000D02*
X118017000Y-89911000D01*
X123540000Y-89951000D02*
X118060000Y-89951000D01*
X123497000Y-89991000D02*
X118103000Y-89991000D01*
X123452000Y-90031000D02*
X118148000Y-90031000D01*
X123405000Y-90071000D02*
X118195000Y-90071000D01*
X123357000Y-90111000D02*
X118243000Y-90111000D01*
X123308000Y-90151000D02*
X118292000Y-90151000D01*
X123257000Y-90191000D02*
X118343000Y-90191000D01*
X123204000Y-90231000D02*
X118396000Y-90231000D01*
X123149000Y-90271000D02*
X118451000Y-90271000D01*
X123093000Y-90311000D02*
X118507000Y-90311000D01*
X123034000Y-90351000D02*
X118566000Y-90351000D01*
X122973000Y-90391000D02*
X118627000Y-90391000D01*
X122909000Y-90431000D02*
X118691000Y-90431000D01*
X122843000Y-90471000D02*
X118757000Y-90471000D01*
X122774000Y-90511000D02*
X118826000Y-90511000D01*
X122702000Y-90551000D02*
X118898000Y-90551000D01*
X122626000Y-90591000D02*
X118974000Y-90591000D01*
X122545000Y-90631000D02*
X119055000Y-90631000D01*
X122460000Y-90671000D02*
X119140000Y-90671000D01*
X122370000Y-90711000D02*
X119230000Y-90711000D01*
X122273000Y-90751000D02*
X119327000Y-90751000D01*
X122169000Y-90791000D02*
X119431000Y-90791000D01*
X122054000Y-90831000D02*
X119546000Y-90831000D01*
X121927000Y-90871000D02*
X119673000Y-90871000D01*
X121783000Y-90911000D02*
X119817000Y-90911000D01*
X121614000Y-90951000D02*
X119986000Y-90951000D01*
X121398000Y-90991000D02*
X120202000Y-90991000D01*
X121046000Y-91031000D02*
X120554000Y-91031000D01*
D12*
X120800000Y-83200000D02*
X120800000Y-84000000D01*
X121200000Y-83600000D02*
X120400000Y-83600000D01*
X151800000Y-108200000D02*
X151400000Y-108200000D01*
X151800000Y-109400000D02*
X151400000Y-109400000D01*
X160200000Y-108200000D02*
X159800000Y-108200000D01*
X160200000Y-109400000D02*
X159800000Y-109400000D01*
X177400000Y-104000000D02*
X177400000Y-105000000D01*
X179000000Y-104000000D02*
X179000000Y-105000000D01*
X175300000Y-108000000D02*
X174300000Y-108000000D01*
X175300000Y-109600000D02*
X174300000Y-109600000D01*
X126550000Y-81500000D02*
X126550000Y-79500000D01*
X126550000Y-74500000D02*
X126550000Y-76500000D01*
X133550000Y-74500000D02*
X133550000Y-76500000D01*
X133550000Y-81500000D02*
X133550000Y-79500000D01*
X133550000Y-74500000D02*
X126550000Y-74500000D01*
X133550000Y-81500000D02*
X126550000Y-81500000D01*
X138550000Y-81500000D02*
X138550000Y-79500000D01*
X138550000Y-74500000D02*
X138550000Y-76500000D01*
X145550000Y-74500000D02*
X145550000Y-76500000D01*
X145550000Y-81500000D02*
X145550000Y-79500000D01*
X145550000Y-74500000D02*
X138550000Y-74500000D01*
X145550000Y-81500000D02*
X138550000Y-81500000D01*
X150500000Y-81500000D02*
X150500000Y-79500000D01*
X150500000Y-74500000D02*
X150500000Y-76500000D01*
X157500000Y-74500000D02*
X157500000Y-76500000D01*
X157500000Y-81500000D02*
X157500000Y-79500000D01*
X157500000Y-74500000D02*
X150500000Y-74500000D01*
X157500000Y-81500000D02*
X150500000Y-81500000D01*
X162550000Y-81500000D02*
X162550000Y-79500000D01*
X162550000Y-74500000D02*
X162550000Y-76500000D01*
X169550000Y-74500000D02*
X169550000Y-76500000D01*
X169550000Y-81500000D02*
X169550000Y-79500000D01*
X169550000Y-74500000D02*
X162550000Y-74500000D01*
X169550000Y-81500000D02*
X162550000Y-81500000D01*
X154500000Y-111100000D02*
X154500000Y-109700000D01*
X157100000Y-109700000D02*
X157100000Y-111100000D01*
X174500000Y-81500000D02*
X174500000Y-79500000D01*
X174500000Y-74500000D02*
X174500000Y-76500000D01*
X181500000Y-74500000D02*
X181500000Y-76500000D01*
X181500000Y-81500000D02*
X181500000Y-79500000D01*
X181500000Y-74500000D02*
X174500000Y-74500000D01*
X181500000Y-81500000D02*
X174500000Y-81500000D01*
X125100000Y-106200000D02*
X126100000Y-106200000D01*
X126100000Y-111400000D02*
X125100000Y-111400000D01*
X133800000Y-109300000D02*
X133800000Y-108300000D01*
X142700000Y-111400000D02*
X141700000Y-111400000D01*
X130000000Y-72500000D02*
X130000000Y-71500000D01*
X141700000Y-106200000D02*
X142700000Y-106200000D01*
X145200000Y-109300000D02*
X145200000Y-108300000D01*
X141950000Y-72500000D02*
X141950000Y-71500000D01*
X148700000Y-111400000D02*
X147700000Y-111400000D01*
X147700000Y-106200000D02*
X148700000Y-106200000D01*
X153950000Y-72500000D02*
X153950000Y-71500000D01*
X165950000Y-72500000D02*
X165950000Y-71500000D01*
X178000000Y-72500000D02*
X178000000Y-71500000D01*
X163900000Y-111400000D02*
X162900000Y-111400000D01*
X162900000Y-106200000D02*
X163900000Y-106200000D01*
X166600000Y-109300000D02*
X166600000Y-108300000D01*
X170500000Y-111400000D02*
X169500000Y-111400000D01*
X169500000Y-106200000D02*
X170500000Y-106200000D01*
X129300000Y-112950000D02*
X131100000Y-112950000D01*
X131100000Y-113450000D02*
X131100000Y-110650000D01*
X129300000Y-110650000D02*
X129300000Y-113450000D01*
X129600000Y-111750000D02*
X130800000Y-111750000D01*
X130200000Y-112450000D02*
X129600000Y-111750000D01*
X130200000Y-112450000D02*
X130800000Y-111750000D01*
X129600000Y-112450000D02*
X130800000Y-112450000D01*
X129300000Y-106500000D02*
X131100000Y-106500000D01*
X131100000Y-107000000D02*
X131100000Y-104200000D01*
X129300000Y-104200000D02*
X129300000Y-107000000D01*
X129600000Y-105300000D02*
X130800000Y-105300000D01*
X130200000Y-106000000D02*
X129600000Y-105300000D01*
X130200000Y-106000000D02*
X130800000Y-105300000D01*
X129600000Y-106000000D02*
X130800000Y-106000000D01*
X136100000Y-112950000D02*
X137900000Y-112950000D01*
X137900000Y-113450000D02*
X137900000Y-110650000D01*
X136100000Y-110650000D02*
X136100000Y-113450000D01*
X136400000Y-111750000D02*
X137600000Y-111750000D01*
X137000000Y-112450000D02*
X136400000Y-111750000D01*
X137000000Y-112450000D02*
X137600000Y-111750000D01*
X136400000Y-112450000D02*
X137600000Y-112450000D01*
X136100000Y-106500000D02*
X137900000Y-106500000D01*
X137900000Y-107000000D02*
X137900000Y-104200000D01*
X136100000Y-104200000D02*
X136100000Y-107000000D01*
X136400000Y-105300000D02*
X137600000Y-105300000D01*
X137000000Y-106000000D02*
X136400000Y-105300000D01*
X137000000Y-106000000D02*
X137600000Y-105300000D01*
X136400000Y-106000000D02*
X137600000Y-106000000D01*
X103800000Y-112300000D02*
X105800000Y-112300000D01*
X103800000Y-118900000D02*
X105800000Y-118900000D01*
X108100000Y-114600000D02*
X108100000Y-116600000D01*
X101500000Y-114600000D02*
X101500000Y-116600000D01*
D13*
X126150000Y-69750000D02*
X126150000Y-65650000D01*
X126150000Y-65650000D02*
X103350000Y-65650000D01*
X103350000Y-65650000D02*
X103350000Y-69750000D01*
X103350000Y-69750000D02*
X126150000Y-69750000D01*
X126150000Y-68000000D02*
X125650000Y-68000000D01*
X125650000Y-68000000D02*
X125650000Y-69250000D01*
X125650000Y-69250000D02*
X103850000Y-69250000D01*
X103850000Y-69250000D02*
X103850000Y-68000000D01*
X103850000Y-68000000D02*
X103350000Y-68000000D01*
X126150000Y-67150000D02*
X125150000Y-67150000D01*
X125150000Y-67150000D02*
X125150000Y-65650000D01*
X103350000Y-67150000D02*
X104350000Y-67150000D01*
X104350000Y-67150000D02*
X104350000Y-65650000D01*
X126450000Y-67850000D02*
X126450000Y-65350000D01*
X126450000Y-65350000D02*
X123950000Y-65350000D01*
X197350000Y-69750000D02*
X197350000Y-65650000D01*
X197350000Y-65650000D02*
X174550000Y-65650000D01*
X174550000Y-65650000D02*
X174550000Y-69750000D01*
X174550000Y-69750000D02*
X197350000Y-69750000D01*
X197350000Y-68000000D02*
X196850000Y-68000000D01*
X196850000Y-68000000D02*
X196850000Y-69250000D01*
X196850000Y-69250000D02*
X175050000Y-69250000D01*
X175050000Y-69250000D02*
X175050000Y-68000000D01*
X175050000Y-68000000D02*
X174550000Y-68000000D01*
X197350000Y-67150000D02*
X196350000Y-67150000D01*
X196350000Y-67150000D02*
X196350000Y-65650000D01*
X174550000Y-67150000D02*
X175550000Y-67150000D01*
X175550000Y-67150000D02*
X175550000Y-65650000D01*
X197650000Y-67850000D02*
X197650000Y-65350000D01*
X197650000Y-65350000D02*
X195150000Y-65350000D01*
D12*
X113500000Y-79400000D02*
G75*
G03X113500000Y-79400000I-5500000J0D01*
G01*
X113500000Y-98400000D02*
G75*
G03X113500000Y-98400000I-5500000J0D01*
G01*
X197500000Y-79400000D02*
G75*
G03X197500000Y-79400000I-5500000J0D01*
G01*
X197500000Y-98400000D02*
G75*
G03X197500000Y-98400000I-5500000J0D01*
G01*
X108418677Y-88400000D02*
G75*
G03X108418677Y-88400000I-2418677J0D01*
G01*
X117818677Y-94000000D02*
G75*
G03X117818677Y-94000000I-2418677J0D01*
G01*
X196518677Y-87600000D02*
G75*
G03X196518677Y-87600000I-2418677J0D01*
G01*
X189318677Y-91600000D02*
G75*
G03X189318677Y-91600000I-2418677J0D01*
G01*
D14*
G36*
X147163360Y-88952468D02*
X147198592Y-88969874D01*
X147242040Y-89000206D01*
X147273706Y-89033283D01*
X147295394Y-89074817D01*
X147308903Y-89130522D01*
X147316038Y-89206111D01*
X147318600Y-89307296D01*
X147318750Y-89350797D01*
X147318312Y-89446135D01*
X147316496Y-89514271D01*
X147312545Y-89561418D01*
X147305702Y-89593790D01*
X147295211Y-89617600D01*
X147284296Y-89633843D01*
X147214619Y-89702952D01*
X147132566Y-89744521D01*
X147044050Y-89757023D01*
X146954981Y-89738934D01*
X146926763Y-89726142D01*
X146859210Y-89690931D01*
X146859210Y-90242700D01*
X146908512Y-90217205D01*
X146973473Y-90197480D01*
X147053320Y-90192427D01*
X147133052Y-90201756D01*
X147193265Y-90222714D01*
X147243208Y-90262627D01*
X147285881Y-90319741D01*
X147289090Y-90325605D01*
X147302622Y-90353227D01*
X147312505Y-90381068D01*
X147319309Y-90414794D01*
X147323601Y-90460071D01*
X147325951Y-90522562D01*
X147326928Y-90607935D01*
X147327105Y-90704010D01*
X147327105Y-91010526D01*
X147143289Y-91010526D01*
X147143289Y-90445339D01*
X147091875Y-90402077D01*
X147038466Y-90367472D01*
X146987888Y-90361180D01*
X146937030Y-90377372D01*
X146909925Y-90393227D01*
X146889751Y-90415810D01*
X146875403Y-90449940D01*
X146865776Y-90500434D01*
X146859763Y-90572111D01*
X146856260Y-90669788D01*
X146855026Y-90734802D01*
X146850855Y-91002171D01*
X146763125Y-91007222D01*
X146675394Y-91012273D01*
X146675394Y-89353101D01*
X146859210Y-89353101D01*
X146863896Y-89445600D01*
X146879688Y-89509809D01*
X146909183Y-89549759D01*
X146954980Y-89569480D01*
X147001250Y-89573421D01*
X147053628Y-89568892D01*
X147088390Y-89551069D01*
X147110128Y-89527519D01*
X147127240Y-89502189D01*
X147137427Y-89473969D01*
X147141960Y-89434431D01*
X147142109Y-89375142D01*
X147140584Y-89325498D01*
X147137081Y-89250710D01*
X147131867Y-89201611D01*
X147123087Y-89170467D01*
X147108886Y-89149545D01*
X147095484Y-89137452D01*
X147039487Y-89111081D01*
X146973211Y-89106822D01*
X146935156Y-89115906D01*
X146897477Y-89148196D01*
X146872519Y-89211006D01*
X146860422Y-89303894D01*
X146859210Y-89353101D01*
X146675394Y-89353101D01*
X146675394Y-88938421D01*
X146767302Y-88938421D01*
X146822483Y-88940603D01*
X146850952Y-88948351D01*
X146859206Y-88963468D01*
X146859210Y-88963916D01*
X146863040Y-88978720D01*
X146879933Y-88977039D01*
X146913519Y-88960772D01*
X146991778Y-88935887D01*
X147079827Y-88933271D01*
X147163360Y-88952468D01*
X147163360Y-88952468D01*
G37*
X147163360Y-88952468D02*
X147198592Y-88969874D01*
X147242040Y-89000206D01*
X147273706Y-89033283D01*
X147295394Y-89074817D01*
X147308903Y-89130522D01*
X147316038Y-89206111D01*
X147318600Y-89307296D01*
X147318750Y-89350797D01*
X147318312Y-89446135D01*
X147316496Y-89514271D01*
X147312545Y-89561418D01*
X147305702Y-89593790D01*
X147295211Y-89617600D01*
X147284296Y-89633843D01*
X147214619Y-89702952D01*
X147132566Y-89744521D01*
X147044050Y-89757023D01*
X146954981Y-89738934D01*
X146926763Y-89726142D01*
X146859210Y-89690931D01*
X146859210Y-90242700D01*
X146908512Y-90217205D01*
X146973473Y-90197480D01*
X147053320Y-90192427D01*
X147133052Y-90201756D01*
X147193265Y-90222714D01*
X147243208Y-90262627D01*
X147285881Y-90319741D01*
X147289090Y-90325605D01*
X147302622Y-90353227D01*
X147312505Y-90381068D01*
X147319309Y-90414794D01*
X147323601Y-90460071D01*
X147325951Y-90522562D01*
X147326928Y-90607935D01*
X147327105Y-90704010D01*
X147327105Y-91010526D01*
X147143289Y-91010526D01*
X147143289Y-90445339D01*
X147091875Y-90402077D01*
X147038466Y-90367472D01*
X146987888Y-90361180D01*
X146937030Y-90377372D01*
X146909925Y-90393227D01*
X146889751Y-90415810D01*
X146875403Y-90449940D01*
X146865776Y-90500434D01*
X146859763Y-90572111D01*
X146856260Y-90669788D01*
X146855026Y-90734802D01*
X146850855Y-91002171D01*
X146763125Y-91007222D01*
X146675394Y-91012273D01*
X146675394Y-89353101D01*
X146859210Y-89353101D01*
X146863896Y-89445600D01*
X146879688Y-89509809D01*
X146909183Y-89549759D01*
X146954980Y-89569480D01*
X147001250Y-89573421D01*
X147053628Y-89568892D01*
X147088390Y-89551069D01*
X147110128Y-89527519D01*
X147127240Y-89502189D01*
X147137427Y-89473969D01*
X147141960Y-89434431D01*
X147142109Y-89375142D01*
X147140584Y-89325498D01*
X147137081Y-89250710D01*
X147131867Y-89201611D01*
X147123087Y-89170467D01*
X147108886Y-89149545D01*
X147095484Y-89137452D01*
X147039487Y-89111081D01*
X146973211Y-89106822D01*
X146935156Y-89115906D01*
X146897477Y-89148196D01*
X146872519Y-89211006D01*
X146860422Y-89303894D01*
X146859210Y-89353101D01*
X146675394Y-89353101D01*
X146675394Y-88938421D01*
X146767302Y-88938421D01*
X146822483Y-88940603D01*
X146850952Y-88948351D01*
X146859206Y-88963468D01*
X146859210Y-88963916D01*
X146863040Y-88978720D01*
X146879933Y-88977039D01*
X146913519Y-88960772D01*
X146991778Y-88935887D01*
X147079827Y-88933271D01*
X147163360Y-88952468D01*
G36*
X147860457Y-90198184D02*
X147939070Y-90219160D01*
X147998916Y-90257180D01*
X148041147Y-90306978D01*
X148054275Y-90328230D01*
X148063968Y-90350492D01*
X148070744Y-90378970D01*
X148075123Y-90418871D01*
X148077624Y-90475401D01*
X148078768Y-90553767D01*
X148079072Y-90659176D01*
X148079078Y-90687142D01*
X148079078Y-91010526D01*
X147998868Y-91010526D01*
X147947706Y-91006943D01*
X147909877Y-90997866D01*
X147900399Y-90992268D01*
X147874488Y-90982606D01*
X147848024Y-90992268D01*
X147804452Y-91004330D01*
X147741160Y-91009185D01*
X147671010Y-91007078D01*
X147606860Y-90998256D01*
X147569407Y-90986937D01*
X147496933Y-90940412D01*
X147451640Y-90875846D01*
X147431278Y-90790000D01*
X147431088Y-90787796D01*
X147432875Y-90749713D01*
X147594473Y-90749713D01*
X147608601Y-90793030D01*
X147631612Y-90817408D01*
X147677804Y-90835845D01*
X147738775Y-90843205D01*
X147800949Y-90839583D01*
X147850751Y-90825074D01*
X147864703Y-90815765D01*
X147889085Y-90772753D01*
X147895263Y-90723857D01*
X147895263Y-90659605D01*
X147802818Y-90659605D01*
X147714995Y-90666366D01*
X147648418Y-90685520D01*
X147607002Y-90715376D01*
X147594473Y-90749713D01*
X147432875Y-90749713D01*
X147435490Y-90694004D01*
X147466424Y-90619847D01*
X147524581Y-90563767D01*
X147532620Y-90558665D01*
X147567163Y-90542055D01*
X147609918Y-90531996D01*
X147669686Y-90527107D01*
X147740690Y-90525983D01*
X147895263Y-90525921D01*
X147895263Y-90461125D01*
X147888706Y-90410850D01*
X147871975Y-90377169D01*
X147870016Y-90375376D01*
X147832783Y-90360642D01*
X147776580Y-90354931D01*
X147714467Y-90357737D01*
X147659510Y-90368556D01*
X147626899Y-90384782D01*
X147609228Y-90397780D01*
X147590569Y-90400262D01*
X147564819Y-90389613D01*
X147525873Y-90363218D01*
X147467630Y-90318465D01*
X147462284Y-90314273D01*
X147465023Y-90298760D01*
X147487876Y-90272960D01*
X147522609Y-90244289D01*
X147560990Y-90220166D01*
X147573048Y-90214470D01*
X147617034Y-90203103D01*
X147681487Y-90194995D01*
X147753497Y-90191743D01*
X147756864Y-90191736D01*
X147860457Y-90198184D01*
X147860457Y-90198184D01*
G37*
X147860457Y-90198184D02*
X147939070Y-90219160D01*
X147998916Y-90257180D01*
X148041147Y-90306978D01*
X148054275Y-90328230D01*
X148063968Y-90350492D01*
X148070744Y-90378970D01*
X148075123Y-90418871D01*
X148077624Y-90475401D01*
X148078768Y-90553767D01*
X148079072Y-90659176D01*
X148079078Y-90687142D01*
X148079078Y-91010526D01*
X147998868Y-91010526D01*
X147947706Y-91006943D01*
X147909877Y-90997866D01*
X147900399Y-90992268D01*
X147874488Y-90982606D01*
X147848024Y-90992268D01*
X147804452Y-91004330D01*
X147741160Y-91009185D01*
X147671010Y-91007078D01*
X147606860Y-90998256D01*
X147569407Y-90986937D01*
X147496933Y-90940412D01*
X147451640Y-90875846D01*
X147431278Y-90790000D01*
X147431088Y-90787796D01*
X147432875Y-90749713D01*
X147594473Y-90749713D01*
X147608601Y-90793030D01*
X147631612Y-90817408D01*
X147677804Y-90835845D01*
X147738775Y-90843205D01*
X147800949Y-90839583D01*
X147850751Y-90825074D01*
X147864703Y-90815765D01*
X147889085Y-90772753D01*
X147895263Y-90723857D01*
X147895263Y-90659605D01*
X147802818Y-90659605D01*
X147714995Y-90666366D01*
X147648418Y-90685520D01*
X147607002Y-90715376D01*
X147594473Y-90749713D01*
X147432875Y-90749713D01*
X147435490Y-90694004D01*
X147466424Y-90619847D01*
X147524581Y-90563767D01*
X147532620Y-90558665D01*
X147567163Y-90542055D01*
X147609918Y-90531996D01*
X147669686Y-90527107D01*
X147740690Y-90525983D01*
X147895263Y-90525921D01*
X147895263Y-90461125D01*
X147888706Y-90410850D01*
X147871975Y-90377169D01*
X147870016Y-90375376D01*
X147832783Y-90360642D01*
X147776580Y-90354931D01*
X147714467Y-90357737D01*
X147659510Y-90368556D01*
X147626899Y-90384782D01*
X147609228Y-90397780D01*
X147590569Y-90400262D01*
X147564819Y-90389613D01*
X147525873Y-90363218D01*
X147467630Y-90318465D01*
X147462284Y-90314273D01*
X147465023Y-90298760D01*
X147487876Y-90272960D01*
X147522609Y-90244289D01*
X147560990Y-90220166D01*
X147573048Y-90214470D01*
X147617034Y-90203103D01*
X147681487Y-90194995D01*
X147753497Y-90191743D01*
X147756864Y-90191736D01*
X147860457Y-90198184D01*
G36*
X148379881Y-90193486D02*
X148404888Y-90200982D01*
X148412950Y-90217451D01*
X148413289Y-90224886D01*
X148414736Y-90245594D01*
X148424698Y-90248845D01*
X148451612Y-90234648D01*
X148467598Y-90224948D01*
X148518033Y-90204175D01*
X148578272Y-90193904D01*
X148641434Y-90193114D01*
X148700637Y-90200786D01*
X148749002Y-90215898D01*
X148779646Y-90237432D01*
X148785689Y-90264366D01*
X148782639Y-90271660D01*
X148760406Y-90301937D01*
X148725930Y-90339175D01*
X148719694Y-90345195D01*
X148686833Y-90372875D01*
X148658480Y-90381818D01*
X148618827Y-90375576D01*
X148602942Y-90371429D01*
X148553509Y-90361467D01*
X148518752Y-90365947D01*
X148489400Y-90381746D01*
X148462513Y-90402949D01*
X148442710Y-90429614D01*
X148428948Y-90466827D01*
X148420184Y-90519673D01*
X148415374Y-90593237D01*
X148413474Y-90692605D01*
X148413289Y-90752601D01*
X148413289Y-91010526D01*
X148246184Y-91010526D01*
X148246184Y-90191710D01*
X148329736Y-90191710D01*
X148379881Y-90193486D01*
X148379881Y-90193486D01*
G37*
X148379881Y-90193486D02*
X148404888Y-90200982D01*
X148412950Y-90217451D01*
X148413289Y-90224886D01*
X148414736Y-90245594D01*
X148424698Y-90248845D01*
X148451612Y-90234648D01*
X148467598Y-90224948D01*
X148518033Y-90204175D01*
X148578272Y-90193904D01*
X148641434Y-90193114D01*
X148700637Y-90200786D01*
X148749002Y-90215898D01*
X148779646Y-90237432D01*
X148785689Y-90264366D01*
X148782639Y-90271660D01*
X148760406Y-90301937D01*
X148725930Y-90339175D01*
X148719694Y-90345195D01*
X148686833Y-90372875D01*
X148658480Y-90381818D01*
X148618827Y-90375576D01*
X148602942Y-90371429D01*
X148553509Y-90361467D01*
X148518752Y-90365947D01*
X148489400Y-90381746D01*
X148462513Y-90402949D01*
X148442710Y-90429614D01*
X148428948Y-90466827D01*
X148420184Y-90519673D01*
X148415374Y-90593237D01*
X148413474Y-90692605D01*
X148413289Y-90752601D01*
X148413289Y-91010526D01*
X148246184Y-91010526D01*
X148246184Y-90191710D01*
X148329736Y-90191710D01*
X148379881Y-90193486D01*
G36*
X149432631Y-91010526D02*
X149340723Y-91010526D01*
X149287377Y-91008962D01*
X149259593Y-91002485D01*
X149249590Y-90988418D01*
X149248815Y-90978906D01*
X149247128Y-90959832D01*
X149236490Y-90956174D01*
X149208535Y-90967932D01*
X149186795Y-90978906D01*
X149103332Y-91004911D01*
X149012604Y-91006416D01*
X148938842Y-90987021D01*
X148870154Y-90940165D01*
X148817794Y-90871004D01*
X148789122Y-90789427D01*
X148788392Y-90784866D01*
X148784132Y-90735101D01*
X148782014Y-90663659D01*
X148782184Y-90609626D01*
X148964720Y-90609626D01*
X148968949Y-90681441D01*
X148978568Y-90740634D01*
X148991590Y-90774060D01*
X149040856Y-90819740D01*
X149099350Y-90836115D01*
X149159671Y-90822873D01*
X149211217Y-90783373D01*
X149230738Y-90756807D01*
X149242152Y-90725106D01*
X149247498Y-90678832D01*
X149248815Y-90609328D01*
X149246458Y-90540499D01*
X149240233Y-90480026D01*
X149231408Y-90439556D01*
X149229937Y-90435929D01*
X149194347Y-90392802D01*
X149142400Y-90369124D01*
X149084278Y-90365301D01*
X149030160Y-90381738D01*
X148990226Y-90418840D01*
X148986083Y-90426222D01*
X148973116Y-90471239D01*
X148966052Y-90535967D01*
X148964720Y-90609626D01*
X148782184Y-90609626D01*
X148782271Y-90582230D01*
X148783472Y-90538405D01*
X148791645Y-90429988D01*
X148808630Y-90348588D01*
X148836887Y-90288412D01*
X148878872Y-90243666D01*
X148919632Y-90217400D01*
X148976581Y-90198935D01*
X149047411Y-90192602D01*
X149119941Y-90197760D01*
X149181986Y-90213769D01*
X149214768Y-90232920D01*
X149248815Y-90263732D01*
X149248815Y-89874210D01*
X149432631Y-89874210D01*
X149432631Y-91010526D01*
X149432631Y-91010526D01*
G37*
X149432631Y-91010526D02*
X149340723Y-91010526D01*
X149287377Y-91008962D01*
X149259593Y-91002485D01*
X149249590Y-90988418D01*
X149248815Y-90978906D01*
X149247128Y-90959832D01*
X149236490Y-90956174D01*
X149208535Y-90967932D01*
X149186795Y-90978906D01*
X149103332Y-91004911D01*
X149012604Y-91006416D01*
X148938842Y-90987021D01*
X148870154Y-90940165D01*
X148817794Y-90871004D01*
X148789122Y-90789427D01*
X148788392Y-90784866D01*
X148784132Y-90735101D01*
X148782014Y-90663659D01*
X148782184Y-90609626D01*
X148964720Y-90609626D01*
X148968949Y-90681441D01*
X148978568Y-90740634D01*
X148991590Y-90774060D01*
X149040856Y-90819740D01*
X149099350Y-90836115D01*
X149159671Y-90822873D01*
X149211217Y-90783373D01*
X149230738Y-90756807D01*
X149242152Y-90725106D01*
X149247498Y-90678832D01*
X149248815Y-90609328D01*
X149246458Y-90540499D01*
X149240233Y-90480026D01*
X149231408Y-90439556D01*
X149229937Y-90435929D01*
X149194347Y-90392802D01*
X149142400Y-90369124D01*
X149084278Y-90365301D01*
X149030160Y-90381738D01*
X148990226Y-90418840D01*
X148986083Y-90426222D01*
X148973116Y-90471239D01*
X148966052Y-90535967D01*
X148964720Y-90609626D01*
X148782184Y-90609626D01*
X148782271Y-90582230D01*
X148783472Y-90538405D01*
X148791645Y-90429988D01*
X148808630Y-90348588D01*
X148836887Y-90288412D01*
X148878872Y-90243666D01*
X148919632Y-90217400D01*
X148976581Y-90198935D01*
X149047411Y-90192602D01*
X149119941Y-90197760D01*
X149181986Y-90213769D01*
X149214768Y-90232920D01*
X149248815Y-90263732D01*
X149248815Y-89874210D01*
X149432631Y-89874210D01*
X149432631Y-91010526D01*
G36*
X150074130Y-90195104D02*
X150140220Y-90200066D01*
X150226626Y-90459079D01*
X150313031Y-90718092D01*
X150340124Y-90626184D01*
X150356428Y-90569384D01*
X150377875Y-90492625D01*
X150401035Y-90408251D01*
X150413280Y-90362993D01*
X150459344Y-90191710D01*
X150649387Y-90191710D01*
X150592582Y-90371349D01*
X150564607Y-90459704D01*
X150530813Y-90566281D01*
X150495520Y-90677454D01*
X150464013Y-90776579D01*
X150392250Y-91002171D01*
X150237286Y-91012253D01*
X150195270Y-90873528D01*
X150169359Y-90787351D01*
X150141083Y-90692347D01*
X150116369Y-90608441D01*
X150115394Y-90605102D01*
X150096935Y-90548248D01*
X150080649Y-90509456D01*
X150069242Y-90494787D01*
X150066898Y-90496483D01*
X150058671Y-90519225D01*
X150043038Y-90567940D01*
X150021904Y-90636502D01*
X149997170Y-90718785D01*
X149983787Y-90764046D01*
X149911311Y-91010526D01*
X149757495Y-91010526D01*
X149634531Y-90622006D01*
X149599988Y-90513022D01*
X149568521Y-90414048D01*
X149541616Y-90329736D01*
X149520759Y-90264734D01*
X149507438Y-90223692D01*
X149503388Y-90211701D01*
X149506594Y-90199423D01*
X149531765Y-90194046D01*
X149584146Y-90194584D01*
X149592345Y-90194990D01*
X149689482Y-90200066D01*
X149753100Y-90434013D01*
X149776484Y-90519333D01*
X149797381Y-90594335D01*
X149813951Y-90652507D01*
X149824354Y-90687337D01*
X149826276Y-90693016D01*
X149834241Y-90686486D01*
X149850304Y-90652654D01*
X149872621Y-90596127D01*
X149899345Y-90521510D01*
X149921937Y-90454107D01*
X150008041Y-90190143D01*
X150074130Y-90195104D01*
X150074130Y-90195104D01*
G37*
X150074130Y-90195104D02*
X150140220Y-90200066D01*
X150226626Y-90459079D01*
X150313031Y-90718092D01*
X150340124Y-90626184D01*
X150356428Y-90569384D01*
X150377875Y-90492625D01*
X150401035Y-90408251D01*
X150413280Y-90362993D01*
X150459344Y-90191710D01*
X150649387Y-90191710D01*
X150592582Y-90371349D01*
X150564607Y-90459704D01*
X150530813Y-90566281D01*
X150495520Y-90677454D01*
X150464013Y-90776579D01*
X150392250Y-91002171D01*
X150237286Y-91012253D01*
X150195270Y-90873528D01*
X150169359Y-90787351D01*
X150141083Y-90692347D01*
X150116369Y-90608441D01*
X150115394Y-90605102D01*
X150096935Y-90548248D01*
X150080649Y-90509456D01*
X150069242Y-90494787D01*
X150066898Y-90496483D01*
X150058671Y-90519225D01*
X150043038Y-90567940D01*
X150021904Y-90636502D01*
X149997170Y-90718785D01*
X149983787Y-90764046D01*
X149911311Y-91010526D01*
X149757495Y-91010526D01*
X149634531Y-90622006D01*
X149599988Y-90513022D01*
X149568521Y-90414048D01*
X149541616Y-90329736D01*
X149520759Y-90264734D01*
X149507438Y-90223692D01*
X149503388Y-90211701D01*
X149506594Y-90199423D01*
X149531765Y-90194046D01*
X149584146Y-90194584D01*
X149592345Y-90194990D01*
X149689482Y-90200066D01*
X149753100Y-90434013D01*
X149776484Y-90519333D01*
X149797381Y-90594335D01*
X149813951Y-90652507D01*
X149824354Y-90687337D01*
X149826276Y-90693016D01*
X149834241Y-90686486D01*
X149850304Y-90652654D01*
X149872621Y-90596127D01*
X149899345Y-90521510D01*
X149921937Y-90454107D01*
X150008041Y-90190143D01*
X150074130Y-90195104D01*
G36*
X151079992Y-90196673D02*
X151150427Y-90213780D01*
X151170787Y-90222844D01*
X151210253Y-90246583D01*
X151240541Y-90273321D01*
X151262952Y-90307699D01*
X151278786Y-90354360D01*
X151289343Y-90417946D01*
X151295924Y-90503099D01*
X151299828Y-90614462D01*
X151301310Y-90688849D01*
X151306765Y-91010526D01*
X151213580Y-91010526D01*
X151157047Y-91008156D01*
X151127922Y-91000055D01*
X151120394Y-90986451D01*
X151116420Y-90971741D01*
X151098652Y-90974554D01*
X151074440Y-90986348D01*
X151013828Y-91004427D01*
X150935929Y-91009299D01*
X150853995Y-91001330D01*
X150781281Y-90980889D01*
X150774759Y-90978051D01*
X150708302Y-90931365D01*
X150664491Y-90866464D01*
X150644332Y-90790600D01*
X150645872Y-90763344D01*
X150810345Y-90763344D01*
X150824837Y-90800024D01*
X150867805Y-90826309D01*
X150937129Y-90840417D01*
X150974177Y-90842290D01*
X151035919Y-90837494D01*
X151076960Y-90818858D01*
X151086973Y-90810000D01*
X151114100Y-90761806D01*
X151120394Y-90718092D01*
X151120394Y-90659605D01*
X151038930Y-90659605D01*
X150944234Y-90664432D01*
X150877813Y-90679613D01*
X150835846Y-90706200D01*
X150826449Y-90718052D01*
X150810345Y-90763344D01*
X150645872Y-90763344D01*
X150648829Y-90711026D01*
X150678985Y-90634995D01*
X150720131Y-90583612D01*
X150745052Y-90561397D01*
X150769448Y-90546798D01*
X150801191Y-90537897D01*
X150848152Y-90532775D01*
X150918204Y-90529515D01*
X150945990Y-90528577D01*
X151120394Y-90522879D01*
X151120138Y-90470091D01*
X151113384Y-90414603D01*
X151088964Y-90381052D01*
X151039630Y-90359618D01*
X151038306Y-90359236D01*
X150968360Y-90350808D01*
X150899914Y-90361816D01*
X150849047Y-90388585D01*
X150828637Y-90401803D01*
X150806654Y-90399974D01*
X150772826Y-90380824D01*
X150752961Y-90367308D01*
X150714106Y-90338432D01*
X150690038Y-90316786D01*
X150686176Y-90310589D01*
X150702079Y-90278519D01*
X150749065Y-90240219D01*
X150769473Y-90227297D01*
X150828143Y-90205041D01*
X150907212Y-90192432D01*
X150995041Y-90189600D01*
X151079992Y-90196673D01*
X151079992Y-90196673D01*
G37*
X151079992Y-90196673D02*
X151150427Y-90213780D01*
X151170787Y-90222844D01*
X151210253Y-90246583D01*
X151240541Y-90273321D01*
X151262952Y-90307699D01*
X151278786Y-90354360D01*
X151289343Y-90417946D01*
X151295924Y-90503099D01*
X151299828Y-90614462D01*
X151301310Y-90688849D01*
X151306765Y-91010526D01*
X151213580Y-91010526D01*
X151157047Y-91008156D01*
X151127922Y-91000055D01*
X151120394Y-90986451D01*
X151116420Y-90971741D01*
X151098652Y-90974554D01*
X151074440Y-90986348D01*
X151013828Y-91004427D01*
X150935929Y-91009299D01*
X150853995Y-91001330D01*
X150781281Y-90980889D01*
X150774759Y-90978051D01*
X150708302Y-90931365D01*
X150664491Y-90866464D01*
X150644332Y-90790600D01*
X150645872Y-90763344D01*
X150810345Y-90763344D01*
X150824837Y-90800024D01*
X150867805Y-90826309D01*
X150937129Y-90840417D01*
X150974177Y-90842290D01*
X151035919Y-90837494D01*
X151076960Y-90818858D01*
X151086973Y-90810000D01*
X151114100Y-90761806D01*
X151120394Y-90718092D01*
X151120394Y-90659605D01*
X151038930Y-90659605D01*
X150944234Y-90664432D01*
X150877813Y-90679613D01*
X150835846Y-90706200D01*
X150826449Y-90718052D01*
X150810345Y-90763344D01*
X150645872Y-90763344D01*
X150648829Y-90711026D01*
X150678985Y-90634995D01*
X150720131Y-90583612D01*
X150745052Y-90561397D01*
X150769448Y-90546798D01*
X150801191Y-90537897D01*
X150848152Y-90532775D01*
X150918204Y-90529515D01*
X150945990Y-90528577D01*
X151120394Y-90522879D01*
X151120138Y-90470091D01*
X151113384Y-90414603D01*
X151088964Y-90381052D01*
X151039630Y-90359618D01*
X151038306Y-90359236D01*
X150968360Y-90350808D01*
X150899914Y-90361816D01*
X150849047Y-90388585D01*
X150828637Y-90401803D01*
X150806654Y-90399974D01*
X150772826Y-90380824D01*
X150752961Y-90367308D01*
X150714106Y-90338432D01*
X150690038Y-90316786D01*
X150686176Y-90310589D01*
X150702079Y-90278519D01*
X150749065Y-90240219D01*
X150769473Y-90227297D01*
X150828143Y-90205041D01*
X150907212Y-90192432D01*
X150995041Y-90189600D01*
X151079992Y-90196673D01*
G36*
X151873167Y-90191447D02*
X151937408Y-90204112D01*
X151973980Y-90222864D01*
X152012453Y-90254017D01*
X151957717Y-90323127D01*
X151923969Y-90364979D01*
X151901053Y-90385398D01*
X151878279Y-90388517D01*
X151844956Y-90378472D01*
X151829314Y-90372789D01*
X151765542Y-90364404D01*
X151707140Y-90382378D01*
X151664264Y-90422982D01*
X151657299Y-90435929D01*
X151649713Y-90470224D01*
X151643859Y-90533427D01*
X151640011Y-90621060D01*
X151638443Y-90728640D01*
X151638421Y-90743944D01*
X151638421Y-91010526D01*
X151454605Y-91010526D01*
X151454605Y-90191710D01*
X151546513Y-90191710D01*
X151599507Y-90193094D01*
X151627115Y-90199252D01*
X151637324Y-90213194D01*
X151638421Y-90226344D01*
X151638421Y-90260978D01*
X151682450Y-90226344D01*
X151732937Y-90202716D01*
X151800760Y-90191033D01*
X151873167Y-90191447D01*
X151873167Y-90191447D01*
G37*
X151873167Y-90191447D02*
X151937408Y-90204112D01*
X151973980Y-90222864D01*
X152012453Y-90254017D01*
X151957717Y-90323127D01*
X151923969Y-90364979D01*
X151901053Y-90385398D01*
X151878279Y-90388517D01*
X151844956Y-90378472D01*
X151829314Y-90372789D01*
X151765542Y-90364404D01*
X151707140Y-90382378D01*
X151664264Y-90422982D01*
X151657299Y-90435929D01*
X151649713Y-90470224D01*
X151643859Y-90533427D01*
X151640011Y-90621060D01*
X151638443Y-90728640D01*
X151638421Y-90743944D01*
X151638421Y-91010526D01*
X151454605Y-91010526D01*
X151454605Y-90191710D01*
X151546513Y-90191710D01*
X151599507Y-90193094D01*
X151627115Y-90199252D01*
X151637324Y-90213194D01*
X151638421Y-90226344D01*
X151638421Y-90260978D01*
X151682450Y-90226344D01*
X151732937Y-90202716D01*
X151800760Y-90191033D01*
X151873167Y-90191447D01*
G36*
X152401193Y-90196078D02*
X152481068Y-90216845D01*
X152547962Y-90259705D01*
X152580351Y-90291723D01*
X152633445Y-90367413D01*
X152663873Y-90455216D01*
X152674327Y-90563150D01*
X152674380Y-90571875D01*
X152674473Y-90659605D01*
X152169534Y-90659605D01*
X152180298Y-90705559D01*
X152199732Y-90747178D01*
X152233745Y-90790544D01*
X152240860Y-90797467D01*
X152302003Y-90834935D01*
X152371729Y-90841289D01*
X152451987Y-90816638D01*
X152465592Y-90810000D01*
X152507319Y-90789819D01*
X152535268Y-90778321D01*
X152540145Y-90777258D01*
X152557168Y-90787583D01*
X152589633Y-90812845D01*
X152606114Y-90826650D01*
X152640264Y-90858361D01*
X152651478Y-90879299D01*
X152643695Y-90898560D01*
X152639535Y-90903827D01*
X152611357Y-90926878D01*
X152564862Y-90954892D01*
X152532434Y-90971246D01*
X152440385Y-91000059D01*
X152338476Y-91009395D01*
X152241963Y-90998332D01*
X152214934Y-90990412D01*
X152131276Y-90945581D01*
X152069266Y-90876598D01*
X152028545Y-90782794D01*
X152008755Y-90663498D01*
X152006582Y-90601118D01*
X152012926Y-90510298D01*
X152173157Y-90510298D01*
X152188655Y-90517012D01*
X152230312Y-90522280D01*
X152290876Y-90525389D01*
X152331907Y-90525921D01*
X152405711Y-90525408D01*
X152452293Y-90523006D01*
X152477848Y-90517422D01*
X152488569Y-90507361D01*
X152490657Y-90492763D01*
X152476331Y-90447796D01*
X152440262Y-90403353D01*
X152392815Y-90369242D01*
X152345349Y-90355288D01*
X152280879Y-90367666D01*
X152225070Y-90403452D01*
X152186374Y-90455033D01*
X152173157Y-90510298D01*
X152012926Y-90510298D01*
X152015821Y-90468866D01*
X152044336Y-90363498D01*
X152092729Y-90284178D01*
X152161604Y-90230071D01*
X152251565Y-90200343D01*
X152300300Y-90194618D01*
X152401193Y-90196078D01*
X152401193Y-90196078D01*
G37*
X152401193Y-90196078D02*
X152481068Y-90216845D01*
X152547962Y-90259705D01*
X152580351Y-90291723D01*
X152633445Y-90367413D01*
X152663873Y-90455216D01*
X152674327Y-90563150D01*
X152674380Y-90571875D01*
X152674473Y-90659605D01*
X152169534Y-90659605D01*
X152180298Y-90705559D01*
X152199732Y-90747178D01*
X152233745Y-90790544D01*
X152240860Y-90797467D01*
X152302003Y-90834935D01*
X152371729Y-90841289D01*
X152451987Y-90816638D01*
X152465592Y-90810000D01*
X152507319Y-90789819D01*
X152535268Y-90778321D01*
X152540145Y-90777258D01*
X152557168Y-90787583D01*
X152589633Y-90812845D01*
X152606114Y-90826650D01*
X152640264Y-90858361D01*
X152651478Y-90879299D01*
X152643695Y-90898560D01*
X152639535Y-90903827D01*
X152611357Y-90926878D01*
X152564862Y-90954892D01*
X152532434Y-90971246D01*
X152440385Y-91000059D01*
X152338476Y-91009395D01*
X152241963Y-90998332D01*
X152214934Y-90990412D01*
X152131276Y-90945581D01*
X152069266Y-90876598D01*
X152028545Y-90782794D01*
X152008755Y-90663498D01*
X152006582Y-90601118D01*
X152012926Y-90510298D01*
X152173157Y-90510298D01*
X152188655Y-90517012D01*
X152230312Y-90522280D01*
X152290876Y-90525389D01*
X152331907Y-90525921D01*
X152405711Y-90525408D01*
X152452293Y-90523006D01*
X152477848Y-90517422D01*
X152488569Y-90507361D01*
X152490657Y-90492763D01*
X152476331Y-90447796D01*
X152440262Y-90403353D01*
X152392815Y-90369242D01*
X152345349Y-90355288D01*
X152280879Y-90367666D01*
X152225070Y-90403452D01*
X152186374Y-90455033D01*
X152173157Y-90510298D01*
X152012926Y-90510298D01*
X152015821Y-90468866D01*
X152044336Y-90363498D01*
X152092729Y-90284178D01*
X152161604Y-90230071D01*
X152251565Y-90200343D01*
X152300300Y-90194618D01*
X152401193Y-90196078D01*
G36*
X146326784Y-88947104D02*
X146414205Y-88985754D01*
X146480570Y-89050290D01*
X146525976Y-89140812D01*
X146550518Y-89257418D01*
X146552277Y-89275624D01*
X146553656Y-89403984D01*
X146535784Y-89516496D01*
X146499750Y-89607688D01*
X146480455Y-89637022D01*
X146413245Y-89699106D01*
X146327650Y-89739316D01*
X146231890Y-89756003D01*
X146134187Y-89747517D01*
X146059917Y-89721380D01*
X145996047Y-89677335D01*
X145943846Y-89619587D01*
X145942943Y-89618236D01*
X145921744Y-89582593D01*
X145907967Y-89546752D01*
X145899624Y-89501519D01*
X145894727Y-89437701D01*
X145892569Y-89385368D01*
X145891671Y-89337910D01*
X146058743Y-89337910D01*
X146060376Y-89385154D01*
X146066304Y-89448046D01*
X146076761Y-89488407D01*
X146095619Y-89517122D01*
X146113281Y-89533896D01*
X146175894Y-89569016D01*
X146241408Y-89573710D01*
X146302421Y-89548440D01*
X146332928Y-89520124D01*
X146354911Y-89491589D01*
X146367769Y-89464284D01*
X146373412Y-89428750D01*
X146373751Y-89375524D01*
X146372012Y-89326506D01*
X146368271Y-89256482D01*
X146362341Y-89211064D01*
X146351653Y-89181440D01*
X146333639Y-89158797D01*
X146319363Y-89145855D01*
X146259651Y-89111860D01*
X146195234Y-89110165D01*
X146141219Y-89130301D01*
X146095140Y-89172352D01*
X146067689Y-89241428D01*
X146058743Y-89337910D01*
X145891671Y-89337910D01*
X145890599Y-89281299D01*
X145893964Y-89203468D01*
X145904045Y-89144930D01*
X145922226Y-89098737D01*
X145949890Y-89057942D01*
X145960146Y-89045828D01*
X146024278Y-88985474D01*
X146093066Y-88950220D01*
X146177189Y-88935450D01*
X146218209Y-88934243D01*
X146326784Y-88947104D01*
X146326784Y-88947104D01*
G37*
X146326784Y-88947104D02*
X146414205Y-88985754D01*
X146480570Y-89050290D01*
X146525976Y-89140812D01*
X146550518Y-89257418D01*
X146552277Y-89275624D01*
X146553656Y-89403984D01*
X146535784Y-89516496D01*
X146499750Y-89607688D01*
X146480455Y-89637022D01*
X146413245Y-89699106D01*
X146327650Y-89739316D01*
X146231890Y-89756003D01*
X146134187Y-89747517D01*
X146059917Y-89721380D01*
X145996047Y-89677335D01*
X145943846Y-89619587D01*
X145942943Y-89618236D01*
X145921744Y-89582593D01*
X145907967Y-89546752D01*
X145899624Y-89501519D01*
X145894727Y-89437701D01*
X145892569Y-89385368D01*
X145891671Y-89337910D01*
X146058743Y-89337910D01*
X146060376Y-89385154D01*
X146066304Y-89448046D01*
X146076761Y-89488407D01*
X146095619Y-89517122D01*
X146113281Y-89533896D01*
X146175894Y-89569016D01*
X146241408Y-89573710D01*
X146302421Y-89548440D01*
X146332928Y-89520124D01*
X146354911Y-89491589D01*
X146367769Y-89464284D01*
X146373412Y-89428750D01*
X146373751Y-89375524D01*
X146372012Y-89326506D01*
X146368271Y-89256482D01*
X146362341Y-89211064D01*
X146351653Y-89181440D01*
X146333639Y-89158797D01*
X146319363Y-89145855D01*
X146259651Y-89111860D01*
X146195234Y-89110165D01*
X146141219Y-89130301D01*
X146095140Y-89172352D01*
X146067689Y-89241428D01*
X146058743Y-89337910D01*
X145891671Y-89337910D01*
X145890599Y-89281299D01*
X145893964Y-89203468D01*
X145904045Y-89144930D01*
X145922226Y-89098737D01*
X145949890Y-89057942D01*
X145960146Y-89045828D01*
X146024278Y-88985474D01*
X146093066Y-88950220D01*
X146177189Y-88935450D01*
X146218209Y-88934243D01*
X146326784Y-88947104D01*
G36*
X147897018Y-88957027D02*
X147913670Y-88964866D01*
X147971305Y-89007086D01*
X148025805Y-89068700D01*
X148066499Y-89136543D01*
X148078074Y-89167734D01*
X148088634Y-89223449D01*
X148094931Y-89290781D01*
X148095696Y-89318585D01*
X148095789Y-89406316D01*
X147590850Y-89406316D01*
X147601613Y-89452270D01*
X147628033Y-89506620D01*
X147674222Y-89553591D01*
X147729172Y-89583848D01*
X147764189Y-89590131D01*
X147811677Y-89582506D01*
X147868335Y-89563383D01*
X147887582Y-89554584D01*
X147958759Y-89519036D01*
X148019502Y-89565367D01*
X148054552Y-89596703D01*
X148073202Y-89622567D01*
X148074147Y-89630158D01*
X148057485Y-89648556D01*
X148020970Y-89676515D01*
X147987828Y-89698327D01*
X147898393Y-89737537D01*
X147798129Y-89755285D01*
X147698754Y-89750670D01*
X147619539Y-89726551D01*
X147537880Y-89674884D01*
X147479849Y-89606856D01*
X147443546Y-89518843D01*
X147427072Y-89407216D01*
X147425611Y-89356138D01*
X147431457Y-89239091D01*
X147432175Y-89235686D01*
X147599489Y-89235686D01*
X147604097Y-89246662D01*
X147623036Y-89252715D01*
X147662098Y-89255310D01*
X147727077Y-89255910D01*
X147752097Y-89255921D01*
X147828221Y-89255014D01*
X147876496Y-89251720D01*
X147902460Y-89245181D01*
X147911648Y-89234537D01*
X147911973Y-89231119D01*
X147901487Y-89203956D01*
X147875242Y-89165903D01*
X147863959Y-89152579D01*
X147822072Y-89114896D01*
X147778409Y-89100080D01*
X147754885Y-89098842D01*
X147691243Y-89114329D01*
X147637873Y-89155930D01*
X147604019Y-89216353D01*
X147603419Y-89218322D01*
X147599489Y-89235686D01*
X147432175Y-89235686D01*
X147450899Y-89146928D01*
X147485922Y-89073190D01*
X147528756Y-89020848D01*
X147607948Y-88964092D01*
X147701040Y-88933762D01*
X147800055Y-88931021D01*
X147897018Y-88957027D01*
X147897018Y-88957027D01*
G37*
X147897018Y-88957027D02*
X147913670Y-88964866D01*
X147971305Y-89007086D01*
X148025805Y-89068700D01*
X148066499Y-89136543D01*
X148078074Y-89167734D01*
X148088634Y-89223449D01*
X148094931Y-89290781D01*
X148095696Y-89318585D01*
X148095789Y-89406316D01*
X147590850Y-89406316D01*
X147601613Y-89452270D01*
X147628033Y-89506620D01*
X147674222Y-89553591D01*
X147729172Y-89583848D01*
X147764189Y-89590131D01*
X147811677Y-89582506D01*
X147868335Y-89563383D01*
X147887582Y-89554584D01*
X147958759Y-89519036D01*
X148019502Y-89565367D01*
X148054552Y-89596703D01*
X148073202Y-89622567D01*
X148074147Y-89630158D01*
X148057485Y-89648556D01*
X148020970Y-89676515D01*
X147987828Y-89698327D01*
X147898393Y-89737537D01*
X147798129Y-89755285D01*
X147698754Y-89750670D01*
X147619539Y-89726551D01*
X147537880Y-89674884D01*
X147479849Y-89606856D01*
X147443546Y-89518843D01*
X147427072Y-89407216D01*
X147425611Y-89356138D01*
X147431457Y-89239091D01*
X147432175Y-89235686D01*
X147599489Y-89235686D01*
X147604097Y-89246662D01*
X147623036Y-89252715D01*
X147662098Y-89255310D01*
X147727077Y-89255910D01*
X147752097Y-89255921D01*
X147828221Y-89255014D01*
X147876496Y-89251720D01*
X147902460Y-89245181D01*
X147911648Y-89234537D01*
X147911973Y-89231119D01*
X147901487Y-89203956D01*
X147875242Y-89165903D01*
X147863959Y-89152579D01*
X147822072Y-89114896D01*
X147778409Y-89100080D01*
X147754885Y-89098842D01*
X147691243Y-89114329D01*
X147637873Y-89155930D01*
X147604019Y-89216353D01*
X147603419Y-89218322D01*
X147599489Y-89235686D01*
X147432175Y-89235686D01*
X147450899Y-89146928D01*
X147485922Y-89073190D01*
X147528756Y-89020848D01*
X147607948Y-88964092D01*
X147701040Y-88933762D01*
X147800055Y-88931021D01*
X147897018Y-88957027D01*
G36*
X149718628Y-88935547D02*
X149781908Y-88947548D01*
X149847557Y-88972648D01*
X149854572Y-88975848D01*
X149904356Y-89002026D01*
X149938834Y-89026353D01*
X149949978Y-89041937D01*
X149939366Y-89067353D01*
X149913588Y-89104853D01*
X149902146Y-89118852D01*
X149854992Y-89173954D01*
X149794201Y-89138086D01*
X149736347Y-89114192D01*
X149669500Y-89101420D01*
X149605394Y-89100613D01*
X149555764Y-89112615D01*
X149543854Y-89120105D01*
X149521172Y-89154450D01*
X149518416Y-89194013D01*
X149535388Y-89224920D01*
X149545427Y-89230913D01*
X149575510Y-89238357D01*
X149628389Y-89247106D01*
X149693575Y-89255467D01*
X149705600Y-89256778D01*
X149810297Y-89274888D01*
X149886232Y-89305651D01*
X149936592Y-89351907D01*
X149964564Y-89416497D01*
X149973278Y-89495387D01*
X149961240Y-89585065D01*
X149922151Y-89655486D01*
X149855855Y-89706777D01*
X149762194Y-89739067D01*
X149658223Y-89751807D01*
X149573438Y-89751654D01*
X149504665Y-89740083D01*
X149457697Y-89724109D01*
X149398350Y-89696275D01*
X149343506Y-89663973D01*
X149324013Y-89649755D01*
X149273881Y-89608835D01*
X149394803Y-89486477D01*
X149463543Y-89531967D01*
X149532488Y-89566133D01*
X149606111Y-89584004D01*
X149676883Y-89585889D01*
X149737274Y-89572101D01*
X149779757Y-89542949D01*
X149793474Y-89518352D01*
X149791417Y-89478904D01*
X149757330Y-89448737D01*
X149691308Y-89427906D01*
X149618974Y-89418279D01*
X149507652Y-89399910D01*
X149424952Y-89365254D01*
X149369765Y-89313297D01*
X149340988Y-89243023D01*
X149337001Y-89159707D01*
X149356693Y-89072681D01*
X149401589Y-89006902D01*
X149472091Y-88962068D01*
X149568601Y-88937879D01*
X149640100Y-88933137D01*
X149718628Y-88935547D01*
X149718628Y-88935547D01*
G37*
X149718628Y-88935547D02*
X149781908Y-88947548D01*
X149847557Y-88972648D01*
X149854572Y-88975848D01*
X149904356Y-89002026D01*
X149938834Y-89026353D01*
X149949978Y-89041937D01*
X149939366Y-89067353D01*
X149913588Y-89104853D01*
X149902146Y-89118852D01*
X149854992Y-89173954D01*
X149794201Y-89138086D01*
X149736347Y-89114192D01*
X149669500Y-89101420D01*
X149605394Y-89100613D01*
X149555764Y-89112615D01*
X149543854Y-89120105D01*
X149521172Y-89154450D01*
X149518416Y-89194013D01*
X149535388Y-89224920D01*
X149545427Y-89230913D01*
X149575510Y-89238357D01*
X149628389Y-89247106D01*
X149693575Y-89255467D01*
X149705600Y-89256778D01*
X149810297Y-89274888D01*
X149886232Y-89305651D01*
X149936592Y-89351907D01*
X149964564Y-89416497D01*
X149973278Y-89495387D01*
X149961240Y-89585065D01*
X149922151Y-89655486D01*
X149855855Y-89706777D01*
X149762194Y-89739067D01*
X149658223Y-89751807D01*
X149573438Y-89751654D01*
X149504665Y-89740083D01*
X149457697Y-89724109D01*
X149398350Y-89696275D01*
X149343506Y-89663973D01*
X149324013Y-89649755D01*
X149273881Y-89608835D01*
X149394803Y-89486477D01*
X149463543Y-89531967D01*
X149532488Y-89566133D01*
X149606111Y-89584004D01*
X149676883Y-89585889D01*
X149737274Y-89572101D01*
X149779757Y-89542949D01*
X149793474Y-89518352D01*
X149791417Y-89478904D01*
X149757330Y-89448737D01*
X149691308Y-89427906D01*
X149618974Y-89418279D01*
X149507652Y-89399910D01*
X149424952Y-89365254D01*
X149369765Y-89313297D01*
X149340988Y-89243023D01*
X149337001Y-89159707D01*
X149356693Y-89072681D01*
X149401589Y-89006902D01*
X149472091Y-88962068D01*
X149568601Y-88937879D01*
X149640100Y-88933137D01*
X149718628Y-88935547D01*
G36*
X150511669Y-88948310D02*
X150596192Y-88994340D01*
X150662321Y-89067006D01*
X150693478Y-89126106D01*
X150706855Y-89178305D01*
X150715522Y-89252719D01*
X150719237Y-89338442D01*
X150717754Y-89424569D01*
X150710831Y-89500193D01*
X150702745Y-89540584D01*
X150675465Y-89595840D01*
X150628220Y-89654530D01*
X150571282Y-89705852D01*
X150514924Y-89739005D01*
X150513550Y-89739531D01*
X150443616Y-89754018D01*
X150360737Y-89754377D01*
X150281977Y-89741188D01*
X150251566Y-89730617D01*
X150173239Y-89686201D01*
X150117143Y-89628007D01*
X150080286Y-89550965D01*
X150059680Y-89450001D01*
X150055018Y-89397116D01*
X150055613Y-89330663D01*
X150234736Y-89330663D01*
X150240770Y-89427630D01*
X150258138Y-89501523D01*
X150285740Y-89548736D01*
X150305404Y-89562237D01*
X150355787Y-89571651D01*
X150415673Y-89568864D01*
X150467449Y-89555316D01*
X150481027Y-89547862D01*
X150516849Y-89504451D01*
X150540493Y-89438014D01*
X150550558Y-89357161D01*
X150545642Y-89270502D01*
X150534655Y-89218349D01*
X150503109Y-89157951D01*
X150453311Y-89120197D01*
X150393337Y-89107143D01*
X150331264Y-89120849D01*
X150283582Y-89154372D01*
X150258525Y-89182031D01*
X150243900Y-89209294D01*
X150236929Y-89246190D01*
X150234833Y-89302750D01*
X150234736Y-89330663D01*
X150055613Y-89330663D01*
X150056282Y-89255994D01*
X150079265Y-89140271D01*
X150123972Y-89049941D01*
X150190405Y-88985000D01*
X150278565Y-88945445D01*
X150297495Y-88940858D01*
X150411266Y-88930090D01*
X150511669Y-88948310D01*
X150511669Y-88948310D01*
G37*
X150511669Y-88948310D02*
X150596192Y-88994340D01*
X150662321Y-89067006D01*
X150693478Y-89126106D01*
X150706855Y-89178305D01*
X150715522Y-89252719D01*
X150719237Y-89338442D01*
X150717754Y-89424569D01*
X150710831Y-89500193D01*
X150702745Y-89540584D01*
X150675465Y-89595840D01*
X150628220Y-89654530D01*
X150571282Y-89705852D01*
X150514924Y-89739005D01*
X150513550Y-89739531D01*
X150443616Y-89754018D01*
X150360737Y-89754377D01*
X150281977Y-89741188D01*
X150251566Y-89730617D01*
X150173239Y-89686201D01*
X150117143Y-89628007D01*
X150080286Y-89550965D01*
X150059680Y-89450001D01*
X150055018Y-89397116D01*
X150055613Y-89330663D01*
X150234736Y-89330663D01*
X150240770Y-89427630D01*
X150258138Y-89501523D01*
X150285740Y-89548736D01*
X150305404Y-89562237D01*
X150355787Y-89571651D01*
X150415673Y-89568864D01*
X150467449Y-89555316D01*
X150481027Y-89547862D01*
X150516849Y-89504451D01*
X150540493Y-89438014D01*
X150550558Y-89357161D01*
X150545642Y-89270502D01*
X150534655Y-89218349D01*
X150503109Y-89157951D01*
X150453311Y-89120197D01*
X150393337Y-89107143D01*
X150331264Y-89120849D01*
X150283582Y-89154372D01*
X150258525Y-89182031D01*
X150243900Y-89209294D01*
X150236929Y-89246190D01*
X150234833Y-89302750D01*
X150234736Y-89330663D01*
X150055613Y-89330663D01*
X150056282Y-89255994D01*
X150079265Y-89140271D01*
X150123972Y-89049941D01*
X150190405Y-88985000D01*
X150278565Y-88945445D01*
X150297495Y-88940858D01*
X150411266Y-88930090D01*
X150511669Y-88948310D01*
G36*
X151020131Y-89198533D02*
X151021710Y-89321089D01*
X151027481Y-89414179D01*
X151038991Y-89481651D01*
X151057790Y-89527355D01*
X151085426Y-89555139D01*
X151123448Y-89568854D01*
X151170526Y-89572358D01*
X151219832Y-89568432D01*
X151257283Y-89554089D01*
X151284428Y-89525478D01*
X151302815Y-89478751D01*
X151313993Y-89410058D01*
X151319511Y-89315550D01*
X151320921Y-89198533D01*
X151320921Y-88938421D01*
X151504736Y-88938421D01*
X151504736Y-89740526D01*
X151412828Y-89740526D01*
X151357422Y-89738281D01*
X151328891Y-89730396D01*
X151320921Y-89715428D01*
X151316120Y-89702097D01*
X151297014Y-89704917D01*
X151258504Y-89723783D01*
X151170239Y-89752887D01*
X151076623Y-89750825D01*
X150986921Y-89719221D01*
X150944204Y-89694257D01*
X150911621Y-89667226D01*
X150887817Y-89633405D01*
X150871439Y-89588068D01*
X150861131Y-89526489D01*
X150855541Y-89443943D01*
X150853312Y-89335705D01*
X150853026Y-89252004D01*
X150853026Y-88938421D01*
X151020131Y-88938421D01*
X151020131Y-89198533D01*
X151020131Y-89198533D01*
G37*
X151020131Y-89198533D02*
X151021710Y-89321089D01*
X151027481Y-89414179D01*
X151038991Y-89481651D01*
X151057790Y-89527355D01*
X151085426Y-89555139D01*
X151123448Y-89568854D01*
X151170526Y-89572358D01*
X151219832Y-89568432D01*
X151257283Y-89554089D01*
X151284428Y-89525478D01*
X151302815Y-89478751D01*
X151313993Y-89410058D01*
X151319511Y-89315550D01*
X151320921Y-89198533D01*
X151320921Y-88938421D01*
X151504736Y-88938421D01*
X151504736Y-89740526D01*
X151412828Y-89740526D01*
X151357422Y-89738281D01*
X151328891Y-89730396D01*
X151320921Y-89715428D01*
X151316120Y-89702097D01*
X151297014Y-89704917D01*
X151258504Y-89723783D01*
X151170239Y-89752887D01*
X151076623Y-89750825D01*
X150986921Y-89719221D01*
X150944204Y-89694257D01*
X150911621Y-89667226D01*
X150887817Y-89633405D01*
X150871439Y-89588068D01*
X150861131Y-89526489D01*
X150855541Y-89443943D01*
X150853312Y-89335705D01*
X150853026Y-89252004D01*
X150853026Y-88938421D01*
X151020131Y-88938421D01*
X151020131Y-89198533D01*
G36*
X152646576Y-88945419D02*
X152743395Y-88986549D01*
X152773890Y-89006571D01*
X152812865Y-89037340D01*
X152837331Y-89061533D01*
X152841578Y-89069413D01*
X152829584Y-89086899D01*
X152798887Y-89116570D01*
X152774312Y-89137279D01*
X152707046Y-89191336D01*
X152653930Y-89146642D01*
X152612884Y-89117789D01*
X152572863Y-89107829D01*
X152527059Y-89110261D01*
X152454324Y-89128345D01*
X152404256Y-89165881D01*
X152373829Y-89226562D01*
X152360017Y-89314081D01*
X152360013Y-89314136D01*
X152361208Y-89411958D01*
X152379772Y-89483730D01*
X152416804Y-89532595D01*
X152442050Y-89549143D01*
X152509097Y-89569749D01*
X152580709Y-89569762D01*
X152643015Y-89549768D01*
X152657763Y-89540000D01*
X152694750Y-89515047D01*
X152723668Y-89510958D01*
X152754856Y-89529530D01*
X152789336Y-89562887D01*
X152843912Y-89619196D01*
X152783318Y-89669142D01*
X152689698Y-89725513D01*
X152584125Y-89753293D01*
X152473798Y-89751282D01*
X152401343Y-89732862D01*
X152316656Y-89687310D01*
X152248927Y-89615650D01*
X152218157Y-89565066D01*
X152193236Y-89492488D01*
X152180766Y-89400569D01*
X152180670Y-89300948D01*
X152192870Y-89205267D01*
X152217290Y-89125169D01*
X152221136Y-89116956D01*
X152278093Y-89036413D01*
X152355209Y-88977771D01*
X152446390Y-88942247D01*
X152545543Y-88931057D01*
X152646576Y-88945419D01*
X152646576Y-88945419D01*
G37*
X152646576Y-88945419D02*
X152743395Y-88986549D01*
X152773890Y-89006571D01*
X152812865Y-89037340D01*
X152837331Y-89061533D01*
X152841578Y-89069413D01*
X152829584Y-89086899D01*
X152798887Y-89116570D01*
X152774312Y-89137279D01*
X152707046Y-89191336D01*
X152653930Y-89146642D01*
X152612884Y-89117789D01*
X152572863Y-89107829D01*
X152527059Y-89110261D01*
X152454324Y-89128345D01*
X152404256Y-89165881D01*
X152373829Y-89226562D01*
X152360017Y-89314081D01*
X152360013Y-89314136D01*
X152361208Y-89411958D01*
X152379772Y-89483730D01*
X152416804Y-89532595D01*
X152442050Y-89549143D01*
X152509097Y-89569749D01*
X152580709Y-89569762D01*
X152643015Y-89549768D01*
X152657763Y-89540000D01*
X152694750Y-89515047D01*
X152723668Y-89510958D01*
X152754856Y-89529530D01*
X152789336Y-89562887D01*
X152843912Y-89619196D01*
X152783318Y-89669142D01*
X152689698Y-89725513D01*
X152584125Y-89753293D01*
X152473798Y-89751282D01*
X152401343Y-89732862D01*
X152316656Y-89687310D01*
X152248927Y-89615650D01*
X152218157Y-89565066D01*
X152193236Y-89492488D01*
X152180766Y-89400569D01*
X152180670Y-89300948D01*
X152192870Y-89205267D01*
X152217290Y-89125169D01*
X152221136Y-89116956D01*
X152278093Y-89036413D01*
X152355209Y-88977771D01*
X152446390Y-88942247D01*
X152545543Y-88931057D01*
X152646576Y-88945419D01*
G36*
X153258784Y-88935554D02*
X153301574Y-88945949D01*
X153383609Y-88984013D01*
X153453757Y-89042149D01*
X153502305Y-89111852D01*
X153508975Y-89127502D01*
X153518124Y-89168496D01*
X153524529Y-89229138D01*
X153526710Y-89290430D01*
X153526710Y-89406316D01*
X153284407Y-89406316D01*
X153184471Y-89406693D01*
X153114069Y-89408987D01*
X153069313Y-89414938D01*
X153046315Y-89426285D01*
X153041189Y-89444771D01*
X153050048Y-89472136D01*
X153065917Y-89504155D01*
X153110184Y-89557592D01*
X153171699Y-89584215D01*
X153246885Y-89583347D01*
X153332053Y-89554371D01*
X153405659Y-89518611D01*
X153466734Y-89566904D01*
X153527810Y-89615197D01*
X153470351Y-89668285D01*
X153393641Y-89718445D01*
X153299302Y-89748688D01*
X153197827Y-89757151D01*
X153099711Y-89741974D01*
X153083881Y-89736824D01*
X152997647Y-89691791D01*
X152933501Y-89624652D01*
X152890091Y-89533405D01*
X152866064Y-89416044D01*
X152865784Y-89413529D01*
X152863633Y-89285627D01*
X152872329Y-89239997D01*
X153042105Y-89239997D01*
X153057697Y-89247013D01*
X153100029Y-89252388D01*
X153162434Y-89255457D01*
X153201981Y-89255921D01*
X153275728Y-89255630D01*
X153321840Y-89253783D01*
X153346100Y-89248912D01*
X153354294Y-89239555D01*
X153352206Y-89224245D01*
X153350455Y-89218322D01*
X153320560Y-89162668D01*
X153273542Y-89117815D01*
X153232049Y-89098105D01*
X153176926Y-89099295D01*
X153121068Y-89123875D01*
X153074212Y-89164570D01*
X153046094Y-89214108D01*
X153042105Y-89239997D01*
X152872329Y-89239997D01*
X152885074Y-89173133D01*
X152927611Y-89078727D01*
X152988747Y-89005088D01*
X153065985Y-88954893D01*
X153156830Y-88930822D01*
X153258784Y-88935554D01*
X153258784Y-88935554D01*
G37*
X153258784Y-88935554D02*
X153301574Y-88945949D01*
X153383609Y-88984013D01*
X153453757Y-89042149D01*
X153502305Y-89111852D01*
X153508975Y-89127502D01*
X153518124Y-89168496D01*
X153524529Y-89229138D01*
X153526710Y-89290430D01*
X153526710Y-89406316D01*
X153284407Y-89406316D01*
X153184471Y-89406693D01*
X153114069Y-89408987D01*
X153069313Y-89414938D01*
X153046315Y-89426285D01*
X153041189Y-89444771D01*
X153050048Y-89472136D01*
X153065917Y-89504155D01*
X153110184Y-89557592D01*
X153171699Y-89584215D01*
X153246885Y-89583347D01*
X153332053Y-89554371D01*
X153405659Y-89518611D01*
X153466734Y-89566904D01*
X153527810Y-89615197D01*
X153470351Y-89668285D01*
X153393641Y-89718445D01*
X153299302Y-89748688D01*
X153197827Y-89757151D01*
X153099711Y-89741974D01*
X153083881Y-89736824D01*
X152997647Y-89691791D01*
X152933501Y-89624652D01*
X152890091Y-89533405D01*
X152866064Y-89416044D01*
X152865784Y-89413529D01*
X152863633Y-89285627D01*
X152872329Y-89239997D01*
X153042105Y-89239997D01*
X153057697Y-89247013D01*
X153100029Y-89252388D01*
X153162434Y-89255457D01*
X153201981Y-89255921D01*
X153275728Y-89255630D01*
X153321840Y-89253783D01*
X153346100Y-89248912D01*
X153354294Y-89239555D01*
X153352206Y-89224245D01*
X153350455Y-89218322D01*
X153320560Y-89162668D01*
X153273542Y-89117815D01*
X153232049Y-89098105D01*
X153176926Y-89099295D01*
X153121068Y-89123875D01*
X153074212Y-89164570D01*
X153046094Y-89214108D01*
X153042105Y-89239997D01*
X152872329Y-89239997D01*
X152885074Y-89173133D01*
X152927611Y-89078727D01*
X152988747Y-89005088D01*
X153065985Y-88954893D01*
X153156830Y-88930822D01*
X153258784Y-88935554D01*
G36*
X148697957Y-88952226D02*
X148739546Y-88972090D01*
X148779825Y-89000784D01*
X148810510Y-89033809D01*
X148832861Y-89075931D01*
X148848136Y-89131915D01*
X148857592Y-89206528D01*
X148862487Y-89304535D01*
X148864081Y-89430702D01*
X148864106Y-89443914D01*
X148864473Y-89740526D01*
X148680657Y-89740526D01*
X148680657Y-89467081D01*
X148680527Y-89365777D01*
X148679621Y-89292353D01*
X148677173Y-89241271D01*
X148672414Y-89206990D01*
X148664574Y-89183971D01*
X148652885Y-89166673D01*
X148636602Y-89149581D01*
X148579634Y-89112857D01*
X148517445Y-89106042D01*
X148458199Y-89129261D01*
X148437595Y-89146543D01*
X148422470Y-89162791D01*
X148411610Y-89180191D01*
X148404310Y-89204212D01*
X148399863Y-89240322D01*
X148397564Y-89293988D01*
X148396704Y-89370680D01*
X148396578Y-89464043D01*
X148396578Y-89740526D01*
X148212763Y-89740526D01*
X148212763Y-88938421D01*
X148304671Y-88938421D01*
X148359851Y-88940603D01*
X148388320Y-88948351D01*
X148396575Y-88963468D01*
X148396578Y-88963916D01*
X148400408Y-88978720D01*
X148417301Y-88977040D01*
X148450888Y-88960773D01*
X148527063Y-88936840D01*
X148614200Y-88934178D01*
X148697957Y-88952226D01*
X148697957Y-88952226D01*
G37*
X148697957Y-88952226D02*
X148739546Y-88972090D01*
X148779825Y-89000784D01*
X148810510Y-89033809D01*
X148832861Y-89075931D01*
X148848136Y-89131915D01*
X148857592Y-89206528D01*
X148862487Y-89304535D01*
X148864081Y-89430702D01*
X148864106Y-89443914D01*
X148864473Y-89740526D01*
X148680657Y-89740526D01*
X148680657Y-89467081D01*
X148680527Y-89365777D01*
X148679621Y-89292353D01*
X148677173Y-89241271D01*
X148672414Y-89206990D01*
X148664574Y-89183971D01*
X148652885Y-89166673D01*
X148636602Y-89149581D01*
X148579634Y-89112857D01*
X148517445Y-89106042D01*
X148458199Y-89129261D01*
X148437595Y-89146543D01*
X148422470Y-89162791D01*
X148411610Y-89180191D01*
X148404310Y-89204212D01*
X148399863Y-89240322D01*
X148397564Y-89293988D01*
X148396704Y-89370680D01*
X148396578Y-89464043D01*
X148396578Y-89740526D01*
X148212763Y-89740526D01*
X148212763Y-88938421D01*
X148304671Y-88938421D01*
X148359851Y-88940603D01*
X148388320Y-88948351D01*
X148396575Y-88963468D01*
X148396578Y-88963916D01*
X148400408Y-88978720D01*
X148417301Y-88977040D01*
X148450888Y-88960773D01*
X148527063Y-88936840D01*
X148614200Y-88934178D01*
X148697957Y-88952226D01*
G36*
X152091388Y-88937645D02*
X152148865Y-88955206D01*
X152185872Y-88977395D01*
X152197927Y-88994942D01*
X152194609Y-89015742D01*
X152173079Y-89048419D01*
X152154874Y-89071562D01*
X152117344Y-89113402D01*
X152089148Y-89131005D01*
X152065111Y-89129856D01*
X151993808Y-89111710D01*
X151941442Y-89112534D01*
X151898918Y-89133098D01*
X151884642Y-89145134D01*
X151838947Y-89187483D01*
X151838947Y-89740526D01*
X151655131Y-89740526D01*
X151655131Y-88938421D01*
X151747039Y-88938421D01*
X151802219Y-88940603D01*
X151830688Y-88948351D01*
X151838943Y-88963468D01*
X151838947Y-88963916D01*
X151842845Y-88979749D01*
X151860474Y-88977684D01*
X151884901Y-88966261D01*
X151935350Y-88945005D01*
X151976316Y-88932216D01*
X152029028Y-88928938D01*
X152091388Y-88937645D01*
X152091388Y-88937645D01*
G37*
X152091388Y-88937645D02*
X152148865Y-88955206D01*
X152185872Y-88977395D01*
X152197927Y-88994942D01*
X152194609Y-89015742D01*
X152173079Y-89048419D01*
X152154874Y-89071562D01*
X152117344Y-89113402D01*
X152089148Y-89131005D01*
X152065111Y-89129856D01*
X151993808Y-89111710D01*
X151941442Y-89112534D01*
X151898918Y-89133098D01*
X151884642Y-89145134D01*
X151838947Y-89187483D01*
X151838947Y-89740526D01*
X151655131Y-89740526D01*
X151655131Y-88938421D01*
X151747039Y-88938421D01*
X151802219Y-88940603D01*
X151830688Y-88948351D01*
X151838943Y-88963468D01*
X151838947Y-88963916D01*
X151842845Y-88979749D01*
X151860474Y-88977684D01*
X151884901Y-88966261D01*
X151935350Y-88945005D01*
X151976316Y-88932216D01*
X152029028Y-88928938D01*
X152091388Y-88937645D01*
G36*
X150200964Y-83398576D02*
X150276513Y-83799322D01*
X150834041Y-84029154D01*
X151168465Y-83801748D01*
X151262122Y-83738431D01*
X151346782Y-83681896D01*
X151418495Y-83634727D01*
X151473311Y-83599502D01*
X151507280Y-83578805D01*
X151516530Y-83574342D01*
X151533195Y-83585820D01*
X151568806Y-83617551D01*
X151619371Y-83665483D01*
X151680900Y-83725562D01*
X151749399Y-83793733D01*
X151820879Y-83865945D01*
X151891347Y-83938142D01*
X151956811Y-84006273D01*
X152013280Y-84066283D01*
X152056763Y-84114119D01*
X152083268Y-84145727D01*
X152089605Y-84156305D01*
X152080486Y-84175806D01*
X152054920Y-84218531D01*
X152015597Y-84280298D01*
X151965203Y-84356931D01*
X151906427Y-84444248D01*
X151872368Y-84494052D01*
X151810289Y-84584993D01*
X151755126Y-84667059D01*
X151709554Y-84736163D01*
X151676250Y-84788222D01*
X151657890Y-84819150D01*
X151655131Y-84825650D01*
X151661385Y-84844121D01*
X151678434Y-84887172D01*
X151703703Y-84948749D01*
X151734622Y-85022799D01*
X151768618Y-85103270D01*
X151803118Y-85184107D01*
X151835551Y-85259258D01*
X151863343Y-85322671D01*
X151883923Y-85368293D01*
X151894719Y-85390069D01*
X151895356Y-85390926D01*
X151912307Y-85395084D01*
X151957451Y-85404361D01*
X152026110Y-85417844D01*
X152113602Y-85434621D01*
X152215250Y-85453781D01*
X152274556Y-85464830D01*
X152383172Y-85485510D01*
X152481277Y-85505189D01*
X152563909Y-85522789D01*
X152626104Y-85537233D01*
X152662899Y-85547446D01*
X152670296Y-85550686D01*
X152677540Y-85572617D01*
X152683385Y-85622147D01*
X152687835Y-85693485D01*
X152690893Y-85780839D01*
X152692565Y-85878417D01*
X152692853Y-85980426D01*
X152691761Y-86081075D01*
X152689294Y-86174572D01*
X152685456Y-86255125D01*
X152680250Y-86316942D01*
X152673681Y-86354230D01*
X152669741Y-86361993D01*
X152646188Y-86371298D01*
X152596282Y-86384600D01*
X152526623Y-86400337D01*
X152443813Y-86416946D01*
X152414905Y-86422319D01*
X152275531Y-86447848D01*
X152165436Y-86468408D01*
X152080982Y-86484815D01*
X152018530Y-86497887D01*
X151974444Y-86508441D01*
X151945085Y-86517294D01*
X151926815Y-86525263D01*
X151915998Y-86533165D01*
X151914485Y-86534727D01*
X151899377Y-86559886D01*
X151876329Y-86608850D01*
X151847644Y-86675621D01*
X151815622Y-86754205D01*
X151782565Y-86838607D01*
X151750773Y-86922830D01*
X151722549Y-87000879D01*
X151700193Y-87066759D01*
X151686007Y-87114473D01*
X151682293Y-87138027D01*
X151682602Y-87138852D01*
X151695189Y-87158104D01*
X151723744Y-87200463D01*
X151765267Y-87261521D01*
X151816756Y-87336868D01*
X151875211Y-87422096D01*
X151891858Y-87446315D01*
X151951215Y-87534123D01*
X152003447Y-87614238D01*
X152045708Y-87682062D01*
X152075153Y-87732993D01*
X152088937Y-87762431D01*
X152089605Y-87766048D01*
X152078024Y-87785057D01*
X152046024Y-87822714D01*
X151997718Y-87874973D01*
X151937220Y-87937786D01*
X151868644Y-88007106D01*
X151796104Y-88078885D01*
X151723712Y-88149077D01*
X151655584Y-88213635D01*
X151595832Y-88268510D01*
X151548571Y-88309656D01*
X151517913Y-88333026D01*
X151509432Y-88336842D01*
X151489691Y-88327855D01*
X151449274Y-88303616D01*
X151394763Y-88268209D01*
X151352823Y-88239711D01*
X151276829Y-88187418D01*
X151186834Y-88125845D01*
X151096564Y-88064370D01*
X151048032Y-88031469D01*
X150883762Y-87920359D01*
X150745869Y-87994916D01*
X150683049Y-88027578D01*
X150629629Y-88052966D01*
X150593484Y-88067446D01*
X150584284Y-88069460D01*
X150573221Y-88054584D01*
X150551394Y-88012547D01*
X150520434Y-87947227D01*
X150481970Y-87862500D01*
X150437632Y-87762245D01*
X150389047Y-87650339D01*
X150337846Y-87530659D01*
X150285659Y-87407084D01*
X150234113Y-87283491D01*
X150184840Y-87163757D01*
X150139467Y-87051759D01*
X150099625Y-86951377D01*
X150066942Y-86866486D01*
X150043049Y-86800965D01*
X150029574Y-86758690D01*
X150027406Y-86744172D01*
X150044583Y-86725653D01*
X150082190Y-86695590D01*
X150132366Y-86660232D01*
X150136578Y-86657434D01*
X150266264Y-86553625D01*
X150370834Y-86432515D01*
X150449381Y-86297976D01*
X150500999Y-86153882D01*
X150524782Y-86004105D01*
X150519823Y-85852517D01*
X150485217Y-85702992D01*
X150420057Y-85559400D01*
X150400886Y-85527984D01*
X150301174Y-85401125D01*
X150183377Y-85299255D01*
X150051571Y-85222904D01*
X149909833Y-85172602D01*
X149762242Y-85148879D01*
X149612873Y-85152265D01*
X149465803Y-85183288D01*
X149325111Y-85242480D01*
X149194873Y-85330369D01*
X149154586Y-85366042D01*
X149052055Y-85477706D01*
X148977341Y-85595257D01*
X148926090Y-85727020D01*
X148897546Y-85857507D01*
X148890500Y-86004216D01*
X148913996Y-86151653D01*
X148965649Y-86294834D01*
X149043071Y-86428777D01*
X149143875Y-86548498D01*
X149265676Y-86649014D01*
X149281684Y-86659609D01*
X149332398Y-86694306D01*
X149370950Y-86724370D01*
X149389381Y-86743565D01*
X149389649Y-86744172D01*
X149385692Y-86764936D01*
X149370007Y-86812062D01*
X149344222Y-86881673D01*
X149309969Y-86969893D01*
X149268877Y-87072844D01*
X149222576Y-87186650D01*
X149172696Y-87307435D01*
X149120867Y-87431321D01*
X149068719Y-87554432D01*
X149017882Y-87672891D01*
X148969987Y-87782823D01*
X148926662Y-87880349D01*
X148889538Y-87961593D01*
X148860244Y-88022679D01*
X148840412Y-88059730D01*
X148832426Y-88069460D01*
X148808021Y-88061883D01*
X148762358Y-88041560D01*
X148703310Y-88012125D01*
X148670840Y-87994916D01*
X148532947Y-87920359D01*
X148368677Y-88031469D01*
X148284821Y-88088390D01*
X148193013Y-88151030D01*
X148106980Y-88210011D01*
X148063887Y-88239711D01*
X148003277Y-88280410D01*
X147951955Y-88312663D01*
X147916615Y-88332384D01*
X147905137Y-88336554D01*
X147888430Y-88325307D01*
X147851454Y-88293911D01*
X147797795Y-88245624D01*
X147731038Y-88183708D01*
X147654766Y-88111421D01*
X147606527Y-88065008D01*
X147522133Y-87982087D01*
X147449197Y-87907920D01*
X147390669Y-87845680D01*
X147349497Y-87798541D01*
X147328628Y-87769673D01*
X147326626Y-87763815D01*
X147335917Y-87741532D01*
X147361591Y-87696477D01*
X147400800Y-87633211D01*
X147450697Y-87556295D01*
X147508433Y-87470292D01*
X147524851Y-87446315D01*
X147584677Y-87359170D01*
X147638350Y-87280710D01*
X147682870Y-87215345D01*
X147715235Y-87167484D01*
X147732445Y-87141535D01*
X147734107Y-87138852D01*
X147731621Y-87118172D01*
X147718423Y-87072704D01*
X147696814Y-87008444D01*
X147669096Y-86931387D01*
X147637570Y-86847529D01*
X147604537Y-86762866D01*
X147572299Y-86683392D01*
X147543157Y-86615104D01*
X147519412Y-86563997D01*
X147503365Y-86536067D01*
X147502225Y-86534727D01*
X147492412Y-86526745D01*
X147475839Y-86518851D01*
X147448868Y-86510229D01*
X147407861Y-86500062D01*
X147349180Y-86487531D01*
X147269187Y-86471821D01*
X147164245Y-86452113D01*
X147030715Y-86427592D01*
X147001804Y-86422319D01*
X146916118Y-86405764D01*
X146841418Y-86389569D01*
X146784306Y-86375296D01*
X146751383Y-86364508D01*
X146746969Y-86361993D01*
X146739694Y-86339696D01*
X146733781Y-86289869D01*
X146729234Y-86218304D01*
X146726055Y-86130793D01*
X146724251Y-86033128D01*
X146723823Y-85931101D01*
X146724777Y-85830503D01*
X146727116Y-85737127D01*
X146730844Y-85656765D01*
X146735966Y-85595209D01*
X146742484Y-85558250D01*
X146746414Y-85550686D01*
X146768292Y-85543056D01*
X146818109Y-85530642D01*
X146890903Y-85514522D01*
X146981711Y-85495773D01*
X147085569Y-85475471D01*
X147142154Y-85464830D01*
X147249514Y-85444760D01*
X147345254Y-85426580D01*
X147424694Y-85411199D01*
X147483154Y-85399531D01*
X147515955Y-85392488D01*
X147521354Y-85390926D01*
X147530478Y-85373322D01*
X147549765Y-85330918D01*
X147576645Y-85269772D01*
X147608546Y-85195943D01*
X147642898Y-85115489D01*
X147677129Y-85034468D01*
X147708669Y-84958937D01*
X147734946Y-84894955D01*
X147753389Y-84848580D01*
X147761429Y-84825869D01*
X147761578Y-84824876D01*
X147752465Y-84806961D01*
X147726914Y-84765733D01*
X147687612Y-84705291D01*
X147637243Y-84629731D01*
X147578494Y-84543152D01*
X147544342Y-84493421D01*
X147482110Y-84402236D01*
X147426836Y-84319449D01*
X147381218Y-84249249D01*
X147347952Y-84195824D01*
X147329736Y-84163361D01*
X147327105Y-84156083D01*
X147338414Y-84139145D01*
X147369681Y-84102978D01*
X147416910Y-84051635D01*
X147476108Y-83989167D01*
X147543281Y-83919626D01*
X147614434Y-83847065D01*
X147685574Y-83775535D01*
X147752707Y-83709087D01*
X147811839Y-83651774D01*
X147858975Y-83607647D01*
X147890123Y-83580759D01*
X147900543Y-83574342D01*
X147917509Y-83583365D01*
X147958089Y-83608715D01*
X148018337Y-83647810D01*
X148094307Y-83698071D01*
X148182054Y-83756917D01*
X148248244Y-83801748D01*
X148582668Y-84029154D01*
X148861433Y-83914238D01*
X149140197Y-83799322D01*
X149215746Y-83398576D01*
X149291294Y-82997829D01*
X150125415Y-82997829D01*
X150200964Y-83398576D01*
X150200964Y-83398576D01*
G37*
X150200964Y-83398576D02*
X150276513Y-83799322D01*
X150834041Y-84029154D01*
X151168465Y-83801748D01*
X151262122Y-83738431D01*
X151346782Y-83681896D01*
X151418495Y-83634727D01*
X151473311Y-83599502D01*
X151507280Y-83578805D01*
X151516530Y-83574342D01*
X151533195Y-83585820D01*
X151568806Y-83617551D01*
X151619371Y-83665483D01*
X151680900Y-83725562D01*
X151749399Y-83793733D01*
X151820879Y-83865945D01*
X151891347Y-83938142D01*
X151956811Y-84006273D01*
X152013280Y-84066283D01*
X152056763Y-84114119D01*
X152083268Y-84145727D01*
X152089605Y-84156305D01*
X152080486Y-84175806D01*
X152054920Y-84218531D01*
X152015597Y-84280298D01*
X151965203Y-84356931D01*
X151906427Y-84444248D01*
X151872368Y-84494052D01*
X151810289Y-84584993D01*
X151755126Y-84667059D01*
X151709554Y-84736163D01*
X151676250Y-84788222D01*
X151657890Y-84819150D01*
X151655131Y-84825650D01*
X151661385Y-84844121D01*
X151678434Y-84887172D01*
X151703703Y-84948749D01*
X151734622Y-85022799D01*
X151768618Y-85103270D01*
X151803118Y-85184107D01*
X151835551Y-85259258D01*
X151863343Y-85322671D01*
X151883923Y-85368293D01*
X151894719Y-85390069D01*
X151895356Y-85390926D01*
X151912307Y-85395084D01*
X151957451Y-85404361D01*
X152026110Y-85417844D01*
X152113602Y-85434621D01*
X152215250Y-85453781D01*
X152274556Y-85464830D01*
X152383172Y-85485510D01*
X152481277Y-85505189D01*
X152563909Y-85522789D01*
X152626104Y-85537233D01*
X152662899Y-85547446D01*
X152670296Y-85550686D01*
X152677540Y-85572617D01*
X152683385Y-85622147D01*
X152687835Y-85693485D01*
X152690893Y-85780839D01*
X152692565Y-85878417D01*
X152692853Y-85980426D01*
X152691761Y-86081075D01*
X152689294Y-86174572D01*
X152685456Y-86255125D01*
X152680250Y-86316942D01*
X152673681Y-86354230D01*
X152669741Y-86361993D01*
X152646188Y-86371298D01*
X152596282Y-86384600D01*
X152526623Y-86400337D01*
X152443813Y-86416946D01*
X152414905Y-86422319D01*
X152275531Y-86447848D01*
X152165436Y-86468408D01*
X152080982Y-86484815D01*
X152018530Y-86497887D01*
X151974444Y-86508441D01*
X151945085Y-86517294D01*
X151926815Y-86525263D01*
X151915998Y-86533165D01*
X151914485Y-86534727D01*
X151899377Y-86559886D01*
X151876329Y-86608850D01*
X151847644Y-86675621D01*
X151815622Y-86754205D01*
X151782565Y-86838607D01*
X151750773Y-86922830D01*
X151722549Y-87000879D01*
X151700193Y-87066759D01*
X151686007Y-87114473D01*
X151682293Y-87138027D01*
X151682602Y-87138852D01*
X151695189Y-87158104D01*
X151723744Y-87200463D01*
X151765267Y-87261521D01*
X151816756Y-87336868D01*
X151875211Y-87422096D01*
X151891858Y-87446315D01*
X151951215Y-87534123D01*
X152003447Y-87614238D01*
X152045708Y-87682062D01*
X152075153Y-87732993D01*
X152088937Y-87762431D01*
X152089605Y-87766048D01*
X152078024Y-87785057D01*
X152046024Y-87822714D01*
X151997718Y-87874973D01*
X151937220Y-87937786D01*
X151868644Y-88007106D01*
X151796104Y-88078885D01*
X151723712Y-88149077D01*
X151655584Y-88213635D01*
X151595832Y-88268510D01*
X151548571Y-88309656D01*
X151517913Y-88333026D01*
X151509432Y-88336842D01*
X151489691Y-88327855D01*
X151449274Y-88303616D01*
X151394763Y-88268209D01*
X151352823Y-88239711D01*
X151276829Y-88187418D01*
X151186834Y-88125845D01*
X151096564Y-88064370D01*
X151048032Y-88031469D01*
X150883762Y-87920359D01*
X150745869Y-87994916D01*
X150683049Y-88027578D01*
X150629629Y-88052966D01*
X150593484Y-88067446D01*
X150584284Y-88069460D01*
X150573221Y-88054584D01*
X150551394Y-88012547D01*
X150520434Y-87947227D01*
X150481970Y-87862500D01*
X150437632Y-87762245D01*
X150389047Y-87650339D01*
X150337846Y-87530659D01*
X150285659Y-87407084D01*
X150234113Y-87283491D01*
X150184840Y-87163757D01*
X150139467Y-87051759D01*
X150099625Y-86951377D01*
X150066942Y-86866486D01*
X150043049Y-86800965D01*
X150029574Y-86758690D01*
X150027406Y-86744172D01*
X150044583Y-86725653D01*
X150082190Y-86695590D01*
X150132366Y-86660232D01*
X150136578Y-86657434D01*
X150266264Y-86553625D01*
X150370834Y-86432515D01*
X150449381Y-86297976D01*
X150500999Y-86153882D01*
X150524782Y-86004105D01*
X150519823Y-85852517D01*
X150485217Y-85702992D01*
X150420057Y-85559400D01*
X150400886Y-85527984D01*
X150301174Y-85401125D01*
X150183377Y-85299255D01*
X150051571Y-85222904D01*
X149909833Y-85172602D01*
X149762242Y-85148879D01*
X149612873Y-85152265D01*
X149465803Y-85183288D01*
X149325111Y-85242480D01*
X149194873Y-85330369D01*
X149154586Y-85366042D01*
X149052055Y-85477706D01*
X148977341Y-85595257D01*
X148926090Y-85727020D01*
X148897546Y-85857507D01*
X148890500Y-86004216D01*
X148913996Y-86151653D01*
X148965649Y-86294834D01*
X149043071Y-86428777D01*
X149143875Y-86548498D01*
X149265676Y-86649014D01*
X149281684Y-86659609D01*
X149332398Y-86694306D01*
X149370950Y-86724370D01*
X149389381Y-86743565D01*
X149389649Y-86744172D01*
X149385692Y-86764936D01*
X149370007Y-86812062D01*
X149344222Y-86881673D01*
X149309969Y-86969893D01*
X149268877Y-87072844D01*
X149222576Y-87186650D01*
X149172696Y-87307435D01*
X149120867Y-87431321D01*
X149068719Y-87554432D01*
X149017882Y-87672891D01*
X148969987Y-87782823D01*
X148926662Y-87880349D01*
X148889538Y-87961593D01*
X148860244Y-88022679D01*
X148840412Y-88059730D01*
X148832426Y-88069460D01*
X148808021Y-88061883D01*
X148762358Y-88041560D01*
X148703310Y-88012125D01*
X148670840Y-87994916D01*
X148532947Y-87920359D01*
X148368677Y-88031469D01*
X148284821Y-88088390D01*
X148193013Y-88151030D01*
X148106980Y-88210011D01*
X148063887Y-88239711D01*
X148003277Y-88280410D01*
X147951955Y-88312663D01*
X147916615Y-88332384D01*
X147905137Y-88336554D01*
X147888430Y-88325307D01*
X147851454Y-88293911D01*
X147797795Y-88245624D01*
X147731038Y-88183708D01*
X147654766Y-88111421D01*
X147606527Y-88065008D01*
X147522133Y-87982087D01*
X147449197Y-87907920D01*
X147390669Y-87845680D01*
X147349497Y-87798541D01*
X147328628Y-87769673D01*
X147326626Y-87763815D01*
X147335917Y-87741532D01*
X147361591Y-87696477D01*
X147400800Y-87633211D01*
X147450697Y-87556295D01*
X147508433Y-87470292D01*
X147524851Y-87446315D01*
X147584677Y-87359170D01*
X147638350Y-87280710D01*
X147682870Y-87215345D01*
X147715235Y-87167484D01*
X147732445Y-87141535D01*
X147734107Y-87138852D01*
X147731621Y-87118172D01*
X147718423Y-87072704D01*
X147696814Y-87008444D01*
X147669096Y-86931387D01*
X147637570Y-86847529D01*
X147604537Y-86762866D01*
X147572299Y-86683392D01*
X147543157Y-86615104D01*
X147519412Y-86563997D01*
X147503365Y-86536067D01*
X147502225Y-86534727D01*
X147492412Y-86526745D01*
X147475839Y-86518851D01*
X147448868Y-86510229D01*
X147407861Y-86500062D01*
X147349180Y-86487531D01*
X147269187Y-86471821D01*
X147164245Y-86452113D01*
X147030715Y-86427592D01*
X147001804Y-86422319D01*
X146916118Y-86405764D01*
X146841418Y-86389569D01*
X146784306Y-86375296D01*
X146751383Y-86364508D01*
X146746969Y-86361993D01*
X146739694Y-86339696D01*
X146733781Y-86289869D01*
X146729234Y-86218304D01*
X146726055Y-86130793D01*
X146724251Y-86033128D01*
X146723823Y-85931101D01*
X146724777Y-85830503D01*
X146727116Y-85737127D01*
X146730844Y-85656765D01*
X146735966Y-85595209D01*
X146742484Y-85558250D01*
X146746414Y-85550686D01*
X146768292Y-85543056D01*
X146818109Y-85530642D01*
X146890903Y-85514522D01*
X146981711Y-85495773D01*
X147085569Y-85475471D01*
X147142154Y-85464830D01*
X147249514Y-85444760D01*
X147345254Y-85426580D01*
X147424694Y-85411199D01*
X147483154Y-85399531D01*
X147515955Y-85392488D01*
X147521354Y-85390926D01*
X147530478Y-85373322D01*
X147549765Y-85330918D01*
X147576645Y-85269772D01*
X147608546Y-85195943D01*
X147642898Y-85115489D01*
X147677129Y-85034468D01*
X147708669Y-84958937D01*
X147734946Y-84894955D01*
X147753389Y-84848580D01*
X147761429Y-84825869D01*
X147761578Y-84824876D01*
X147752465Y-84806961D01*
X147726914Y-84765733D01*
X147687612Y-84705291D01*
X147637243Y-84629731D01*
X147578494Y-84543152D01*
X147544342Y-84493421D01*
X147482110Y-84402236D01*
X147426836Y-84319449D01*
X147381218Y-84249249D01*
X147347952Y-84195824D01*
X147329736Y-84163361D01*
X147327105Y-84156083D01*
X147338414Y-84139145D01*
X147369681Y-84102978D01*
X147416910Y-84051635D01*
X147476108Y-83989167D01*
X147543281Y-83919626D01*
X147614434Y-83847065D01*
X147685574Y-83775535D01*
X147752707Y-83709087D01*
X147811839Y-83651774D01*
X147858975Y-83607647D01*
X147890123Y-83580759D01*
X147900543Y-83574342D01*
X147917509Y-83583365D01*
X147958089Y-83608715D01*
X148018337Y-83647810D01*
X148094307Y-83698071D01*
X148182054Y-83756917D01*
X148248244Y-83801748D01*
X148582668Y-84029154D01*
X148861433Y-83914238D01*
X149140197Y-83799322D01*
X149215746Y-83398576D01*
X149291294Y-82997829D01*
X150125415Y-82997829D01*
X150200964Y-83398576D01*
D12*
X194200000Y-112300000D02*
X196200000Y-112300000D01*
X194200000Y-118900000D02*
X196200000Y-118900000D01*
X198500000Y-114600000D02*
X198500000Y-116600000D01*
X191900000Y-114600000D02*
X191900000Y-116600000D01*
X182100000Y-108000000D02*
X181100000Y-108000000D01*
X182100000Y-109600000D02*
X181100000Y-109600000D01*
D15*
X112433334Y-85557143D02*
X112385715Y-85604762D01*
X112242858Y-85652381D01*
X112147620Y-85652381D01*
X112004762Y-85604762D01*
X111909524Y-85509524D01*
X111861905Y-85414286D01*
X111814286Y-85223810D01*
X111814286Y-85080952D01*
X111861905Y-84890476D01*
X111909524Y-84795238D01*
X112004762Y-84700000D01*
X112147620Y-84652381D01*
X112242858Y-84652381D01*
X112385715Y-84700000D01*
X112433334Y-84747619D01*
X113385715Y-85652381D02*
X112814286Y-85652381D01*
X113100000Y-85652381D02*
X113100000Y-84652381D01*
X113004762Y-84795238D01*
X112909524Y-84890476D01*
X112814286Y-84938095D01*
X120633334Y-82057143D02*
X120585715Y-82104762D01*
X120442858Y-82152381D01*
X120347620Y-82152381D01*
X120204762Y-82104762D01*
X120109524Y-82009524D01*
X120061905Y-81914286D01*
X120014286Y-81723810D01*
X120014286Y-81580952D01*
X120061905Y-81390476D01*
X120109524Y-81295238D01*
X120204762Y-81200000D01*
X120347620Y-81152381D01*
X120442858Y-81152381D01*
X120585715Y-81200000D01*
X120633334Y-81247619D01*
X121014286Y-81247619D02*
X121061905Y-81200000D01*
X121157143Y-81152381D01*
X121395239Y-81152381D01*
X121490477Y-81200000D01*
X121538096Y-81247619D01*
X121585715Y-81342857D01*
X121585715Y-81438095D01*
X121538096Y-81580952D01*
X120966667Y-82152381D01*
X121585715Y-82152381D01*
X151433334Y-107357143D02*
X151385715Y-107404762D01*
X151242858Y-107452381D01*
X151147620Y-107452381D01*
X151004762Y-107404762D01*
X150909524Y-107309524D01*
X150861905Y-107214286D01*
X150814286Y-107023810D01*
X150814286Y-106880952D01*
X150861905Y-106690476D01*
X150909524Y-106595238D01*
X151004762Y-106500000D01*
X151147620Y-106452381D01*
X151242858Y-106452381D01*
X151385715Y-106500000D01*
X151433334Y-106547619D01*
X151766667Y-106452381D02*
X152385715Y-106452381D01*
X152052381Y-106833333D01*
X152195239Y-106833333D01*
X152290477Y-106880952D01*
X152338096Y-106928571D01*
X152385715Y-107023810D01*
X152385715Y-107261905D01*
X152338096Y-107357143D01*
X152290477Y-107404762D01*
X152195239Y-107452381D01*
X151909524Y-107452381D01*
X151814286Y-107404762D01*
X151766667Y-107357143D01*
X159833334Y-107357143D02*
X159785715Y-107404762D01*
X159642858Y-107452381D01*
X159547620Y-107452381D01*
X159404762Y-107404762D01*
X159309524Y-107309524D01*
X159261905Y-107214286D01*
X159214286Y-107023810D01*
X159214286Y-106880952D01*
X159261905Y-106690476D01*
X159309524Y-106595238D01*
X159404762Y-106500000D01*
X159547620Y-106452381D01*
X159642858Y-106452381D01*
X159785715Y-106500000D01*
X159833334Y-106547619D01*
X160690477Y-106785714D02*
X160690477Y-107452381D01*
X160452381Y-106404762D02*
X160214286Y-107119048D01*
X160833334Y-107119048D01*
X180333334Y-104457143D02*
X180285715Y-104504762D01*
X180142858Y-104552381D01*
X180047620Y-104552381D01*
X179904762Y-104504762D01*
X179809524Y-104409524D01*
X179761905Y-104314286D01*
X179714286Y-104123810D01*
X179714286Y-103980952D01*
X179761905Y-103790476D01*
X179809524Y-103695238D01*
X179904762Y-103600000D01*
X180047620Y-103552381D01*
X180142858Y-103552381D01*
X180285715Y-103600000D01*
X180333334Y-103647619D01*
X181238096Y-103552381D02*
X180761905Y-103552381D01*
X180714286Y-104028571D01*
X180761905Y-103980952D01*
X180857143Y-103933333D01*
X181095239Y-103933333D01*
X181190477Y-103980952D01*
X181238096Y-104028571D01*
X181285715Y-104123810D01*
X181285715Y-104361905D01*
X181238096Y-104457143D01*
X181190477Y-104504762D01*
X181095239Y-104552381D01*
X180857143Y-104552381D01*
X180761905Y-104504762D01*
X180714286Y-104457143D01*
X174633334Y-107057143D02*
X174585715Y-107104762D01*
X174442858Y-107152381D01*
X174347620Y-107152381D01*
X174204762Y-107104762D01*
X174109524Y-107009524D01*
X174061905Y-106914286D01*
X174014286Y-106723810D01*
X174014286Y-106580952D01*
X174061905Y-106390476D01*
X174109524Y-106295238D01*
X174204762Y-106200000D01*
X174347620Y-106152381D01*
X174442858Y-106152381D01*
X174585715Y-106200000D01*
X174633334Y-106247619D01*
X175490477Y-106152381D02*
X175300000Y-106152381D01*
X175204762Y-106200000D01*
X175157143Y-106247619D01*
X175061905Y-106390476D01*
X175014286Y-106580952D01*
X175014286Y-106961905D01*
X175061905Y-107057143D01*
X175109524Y-107104762D01*
X175204762Y-107152381D01*
X175395239Y-107152381D01*
X175490477Y-107104762D01*
X175538096Y-107057143D01*
X175585715Y-106961905D01*
X175585715Y-106723810D01*
X175538096Y-106628571D01*
X175490477Y-106580952D01*
X175395239Y-106533333D01*
X175204762Y-106533333D01*
X175109524Y-106580952D01*
X175061905Y-106628571D01*
X175014286Y-106723810D01*
X124833334Y-76152381D02*
X124357143Y-76152381D01*
X124357143Y-75152381D01*
X125690477Y-76152381D02*
X125119048Y-76152381D01*
X125404762Y-76152381D02*
X125404762Y-75152381D01*
X125309524Y-75295238D01*
X125214286Y-75390476D01*
X125119048Y-75438095D01*
X137033334Y-76252381D02*
X136557143Y-76252381D01*
X136557143Y-75252381D01*
X137319048Y-75347619D02*
X137366667Y-75300000D01*
X137461905Y-75252381D01*
X137700001Y-75252381D01*
X137795239Y-75300000D01*
X137842858Y-75347619D01*
X137890477Y-75442857D01*
X137890477Y-75538095D01*
X137842858Y-75680952D01*
X137271429Y-76252381D01*
X137890477Y-76252381D01*
X148833334Y-76252381D02*
X148357143Y-76252381D01*
X148357143Y-75252381D01*
X149071429Y-75252381D02*
X149690477Y-75252381D01*
X149357143Y-75633333D01*
X149500001Y-75633333D01*
X149595239Y-75680952D01*
X149642858Y-75728571D01*
X149690477Y-75823810D01*
X149690477Y-76061905D01*
X149642858Y-76157143D01*
X149595239Y-76204762D01*
X149500001Y-76252381D01*
X149214286Y-76252381D01*
X149119048Y-76204762D01*
X149071429Y-76157143D01*
X161033334Y-76352381D02*
X160557143Y-76352381D01*
X160557143Y-75352381D01*
X161795239Y-75685714D02*
X161795239Y-76352381D01*
X161557143Y-75304762D02*
X161319048Y-76019048D01*
X161938096Y-76019048D01*
X155533334Y-107452381D02*
X155057143Y-107452381D01*
X155057143Y-106452381D01*
X156342858Y-106452381D02*
X155866667Y-106452381D01*
X155819048Y-106928571D01*
X155866667Y-106880952D01*
X155961905Y-106833333D01*
X156200001Y-106833333D01*
X156295239Y-106880952D01*
X156342858Y-106928571D01*
X156390477Y-107023810D01*
X156390477Y-107261905D01*
X156342858Y-107357143D01*
X156295239Y-107404762D01*
X156200001Y-107452381D01*
X155961905Y-107452381D01*
X155866667Y-107404762D01*
X155819048Y-107357143D01*
X173133334Y-76252381D02*
X172657143Y-76252381D01*
X172657143Y-75252381D01*
X173895239Y-75252381D02*
X173704762Y-75252381D01*
X173609524Y-75300000D01*
X173561905Y-75347619D01*
X173466667Y-75490476D01*
X173419048Y-75680952D01*
X173419048Y-76061905D01*
X173466667Y-76157143D01*
X173514286Y-76204762D01*
X173609524Y-76252381D01*
X173800001Y-76252381D01*
X173895239Y-76204762D01*
X173942858Y-76157143D01*
X173990477Y-76061905D01*
X173990477Y-75823810D01*
X173942858Y-75728571D01*
X173895239Y-75680952D01*
X173800001Y-75633333D01*
X173609524Y-75633333D01*
X173514286Y-75680952D01*
X173466667Y-75728571D01*
X173419048Y-75823810D01*
X125433334Y-103152381D02*
X125100000Y-102676190D01*
X124861905Y-103152381D02*
X124861905Y-102152381D01*
X125242858Y-102152381D01*
X125338096Y-102200000D01*
X125385715Y-102247619D01*
X125433334Y-102342857D01*
X125433334Y-102485714D01*
X125385715Y-102580952D01*
X125338096Y-102628571D01*
X125242858Y-102676190D01*
X124861905Y-102676190D01*
X126385715Y-103152381D02*
X125814286Y-103152381D01*
X126100000Y-103152381D02*
X126100000Y-102152381D01*
X126004762Y-102295238D01*
X125909524Y-102390476D01*
X125814286Y-102438095D01*
X125433334Y-115452381D02*
X125100000Y-114976190D01*
X124861905Y-115452381D02*
X124861905Y-114452381D01*
X125242858Y-114452381D01*
X125338096Y-114500000D01*
X125385715Y-114547619D01*
X125433334Y-114642857D01*
X125433334Y-114785714D01*
X125385715Y-114880952D01*
X125338096Y-114928571D01*
X125242858Y-114976190D01*
X124861905Y-114976190D01*
X125814286Y-114547619D02*
X125861905Y-114500000D01*
X125957143Y-114452381D01*
X126195239Y-114452381D01*
X126290477Y-114500000D01*
X126338096Y-114547619D01*
X126385715Y-114642857D01*
X126385715Y-114738095D01*
X126338096Y-114880952D01*
X125766667Y-115452381D01*
X126385715Y-115452381D01*
X133633334Y-107652381D02*
X133300000Y-107176190D01*
X133061905Y-107652381D02*
X133061905Y-106652381D01*
X133442858Y-106652381D01*
X133538096Y-106700000D01*
X133585715Y-106747619D01*
X133633334Y-106842857D01*
X133633334Y-106985714D01*
X133585715Y-107080952D01*
X133538096Y-107128571D01*
X133442858Y-107176190D01*
X133061905Y-107176190D01*
X133966667Y-106652381D02*
X134585715Y-106652381D01*
X134252381Y-107033333D01*
X134395239Y-107033333D01*
X134490477Y-107080952D01*
X134538096Y-107128571D01*
X134585715Y-107223810D01*
X134585715Y-107461905D01*
X134538096Y-107557143D01*
X134490477Y-107604762D01*
X134395239Y-107652381D01*
X134109524Y-107652381D01*
X134014286Y-107604762D01*
X133966667Y-107557143D01*
X142033334Y-115452381D02*
X141700000Y-114976190D01*
X141461905Y-115452381D02*
X141461905Y-114452381D01*
X141842858Y-114452381D01*
X141938096Y-114500000D01*
X141985715Y-114547619D01*
X142033334Y-114642857D01*
X142033334Y-114785714D01*
X141985715Y-114880952D01*
X141938096Y-114928571D01*
X141842858Y-114976190D01*
X141461905Y-114976190D01*
X142890477Y-114785714D02*
X142890477Y-115452381D01*
X142652381Y-114404762D02*
X142414286Y-115119048D01*
X143033334Y-115119048D01*
X129833334Y-70852381D02*
X129500000Y-70376190D01*
X129261905Y-70852381D02*
X129261905Y-69852381D01*
X129642858Y-69852381D01*
X129738096Y-69900000D01*
X129785715Y-69947619D01*
X129833334Y-70042857D01*
X129833334Y-70185714D01*
X129785715Y-70280952D01*
X129738096Y-70328571D01*
X129642858Y-70376190D01*
X129261905Y-70376190D01*
X130738096Y-69852381D02*
X130261905Y-69852381D01*
X130214286Y-70328571D01*
X130261905Y-70280952D01*
X130357143Y-70233333D01*
X130595239Y-70233333D01*
X130690477Y-70280952D01*
X130738096Y-70328571D01*
X130785715Y-70423810D01*
X130785715Y-70661905D01*
X130738096Y-70757143D01*
X130690477Y-70804762D01*
X130595239Y-70852381D01*
X130357143Y-70852381D01*
X130261905Y-70804762D01*
X130214286Y-70757143D01*
X142033334Y-103152381D02*
X141700000Y-102676190D01*
X141461905Y-103152381D02*
X141461905Y-102152381D01*
X141842858Y-102152381D01*
X141938096Y-102200000D01*
X141985715Y-102247619D01*
X142033334Y-102342857D01*
X142033334Y-102485714D01*
X141985715Y-102580952D01*
X141938096Y-102628571D01*
X141842858Y-102676190D01*
X141461905Y-102676190D01*
X142890477Y-102152381D02*
X142700000Y-102152381D01*
X142604762Y-102200000D01*
X142557143Y-102247619D01*
X142461905Y-102390476D01*
X142414286Y-102580952D01*
X142414286Y-102961905D01*
X142461905Y-103057143D01*
X142509524Y-103104762D01*
X142604762Y-103152381D01*
X142795239Y-103152381D01*
X142890477Y-103104762D01*
X142938096Y-103057143D01*
X142985715Y-102961905D01*
X142985715Y-102723810D01*
X142938096Y-102628571D01*
X142890477Y-102580952D01*
X142795239Y-102533333D01*
X142604762Y-102533333D01*
X142509524Y-102580952D01*
X142461905Y-102628571D01*
X142414286Y-102723810D01*
X145033334Y-107652381D02*
X144700000Y-107176190D01*
X144461905Y-107652381D02*
X144461905Y-106652381D01*
X144842858Y-106652381D01*
X144938096Y-106700000D01*
X144985715Y-106747619D01*
X145033334Y-106842857D01*
X145033334Y-106985714D01*
X144985715Y-107080952D01*
X144938096Y-107128571D01*
X144842858Y-107176190D01*
X144461905Y-107176190D01*
X145366667Y-106652381D02*
X146033334Y-106652381D01*
X145604762Y-107652381D01*
X141833334Y-70852381D02*
X141500000Y-70376190D01*
X141261905Y-70852381D02*
X141261905Y-69852381D01*
X141642858Y-69852381D01*
X141738096Y-69900000D01*
X141785715Y-69947619D01*
X141833334Y-70042857D01*
X141833334Y-70185714D01*
X141785715Y-70280952D01*
X141738096Y-70328571D01*
X141642858Y-70376190D01*
X141261905Y-70376190D01*
X142404762Y-70280952D02*
X142309524Y-70233333D01*
X142261905Y-70185714D01*
X142214286Y-70090476D01*
X142214286Y-70042857D01*
X142261905Y-69947619D01*
X142309524Y-69900000D01*
X142404762Y-69852381D01*
X142595239Y-69852381D01*
X142690477Y-69900000D01*
X142738096Y-69947619D01*
X142785715Y-70042857D01*
X142785715Y-70090476D01*
X142738096Y-70185714D01*
X142690477Y-70233333D01*
X142595239Y-70280952D01*
X142404762Y-70280952D01*
X142309524Y-70328571D01*
X142261905Y-70376190D01*
X142214286Y-70471429D01*
X142214286Y-70661905D01*
X142261905Y-70757143D01*
X142309524Y-70804762D01*
X142404762Y-70852381D01*
X142595239Y-70852381D01*
X142690477Y-70804762D01*
X142738096Y-70757143D01*
X142785715Y-70661905D01*
X142785715Y-70471429D01*
X142738096Y-70376190D01*
X142690477Y-70328571D01*
X142595239Y-70280952D01*
X148033334Y-115452381D02*
X147700000Y-114976190D01*
X147461905Y-115452381D02*
X147461905Y-114452381D01*
X147842858Y-114452381D01*
X147938096Y-114500000D01*
X147985715Y-114547619D01*
X148033334Y-114642857D01*
X148033334Y-114785714D01*
X147985715Y-114880952D01*
X147938096Y-114928571D01*
X147842858Y-114976190D01*
X147461905Y-114976190D01*
X148509524Y-115452381D02*
X148700000Y-115452381D01*
X148795239Y-115404762D01*
X148842858Y-115357143D01*
X148938096Y-115214286D01*
X148985715Y-115023810D01*
X148985715Y-114642857D01*
X148938096Y-114547619D01*
X148890477Y-114500000D01*
X148795239Y-114452381D01*
X148604762Y-114452381D01*
X148509524Y-114500000D01*
X148461905Y-114547619D01*
X148414286Y-114642857D01*
X148414286Y-114880952D01*
X148461905Y-114976190D01*
X148509524Y-115023810D01*
X148604762Y-115071429D01*
X148795239Y-115071429D01*
X148890477Y-115023810D01*
X148938096Y-114976190D01*
X148985715Y-114880952D01*
X147557143Y-103152381D02*
X147223809Y-102676190D01*
X146985714Y-103152381D02*
X146985714Y-102152381D01*
X147366667Y-102152381D01*
X147461905Y-102200000D01*
X147509524Y-102247619D01*
X147557143Y-102342857D01*
X147557143Y-102485714D01*
X147509524Y-102580952D01*
X147461905Y-102628571D01*
X147366667Y-102676190D01*
X146985714Y-102676190D01*
X148509524Y-103152381D02*
X147938095Y-103152381D01*
X148223809Y-103152381D02*
X148223809Y-102152381D01*
X148128571Y-102295238D01*
X148033333Y-102390476D01*
X147938095Y-102438095D01*
X149128571Y-102152381D02*
X149223810Y-102152381D01*
X149319048Y-102200000D01*
X149366667Y-102247619D01*
X149414286Y-102342857D01*
X149461905Y-102533333D01*
X149461905Y-102771429D01*
X149414286Y-102961905D01*
X149366667Y-103057143D01*
X149319048Y-103104762D01*
X149223810Y-103152381D01*
X149128571Y-103152381D01*
X149033333Y-103104762D01*
X148985714Y-103057143D01*
X148938095Y-102961905D01*
X148890476Y-102771429D01*
X148890476Y-102533333D01*
X148938095Y-102342857D01*
X148985714Y-102247619D01*
X149033333Y-102200000D01*
X149128571Y-102152381D01*
X153307143Y-70852381D02*
X152973809Y-70376190D01*
X152735714Y-70852381D02*
X152735714Y-69852381D01*
X153116667Y-69852381D01*
X153211905Y-69900000D01*
X153259524Y-69947619D01*
X153307143Y-70042857D01*
X153307143Y-70185714D01*
X153259524Y-70280952D01*
X153211905Y-70328571D01*
X153116667Y-70376190D01*
X152735714Y-70376190D01*
X154259524Y-70852381D02*
X153688095Y-70852381D01*
X153973809Y-70852381D02*
X153973809Y-69852381D01*
X153878571Y-69995238D01*
X153783333Y-70090476D01*
X153688095Y-70138095D01*
X155211905Y-70852381D02*
X154640476Y-70852381D01*
X154926190Y-70852381D02*
X154926190Y-69852381D01*
X154830952Y-69995238D01*
X154735714Y-70090476D01*
X154640476Y-70138095D01*
X165157143Y-70852381D02*
X164823809Y-70376190D01*
X164585714Y-70852381D02*
X164585714Y-69852381D01*
X164966667Y-69852381D01*
X165061905Y-69900000D01*
X165109524Y-69947619D01*
X165157143Y-70042857D01*
X165157143Y-70185714D01*
X165109524Y-70280952D01*
X165061905Y-70328571D01*
X164966667Y-70376190D01*
X164585714Y-70376190D01*
X166109524Y-70852381D02*
X165538095Y-70852381D01*
X165823809Y-70852381D02*
X165823809Y-69852381D01*
X165728571Y-69995238D01*
X165633333Y-70090476D01*
X165538095Y-70138095D01*
X166490476Y-69947619D02*
X166538095Y-69900000D01*
X166633333Y-69852381D01*
X166871429Y-69852381D01*
X166966667Y-69900000D01*
X167014286Y-69947619D01*
X167061905Y-70042857D01*
X167061905Y-70138095D01*
X167014286Y-70280952D01*
X166442857Y-70852381D01*
X167061905Y-70852381D01*
X177357143Y-70852381D02*
X177023809Y-70376190D01*
X176785714Y-70852381D02*
X176785714Y-69852381D01*
X177166667Y-69852381D01*
X177261905Y-69900000D01*
X177309524Y-69947619D01*
X177357143Y-70042857D01*
X177357143Y-70185714D01*
X177309524Y-70280952D01*
X177261905Y-70328571D01*
X177166667Y-70376190D01*
X176785714Y-70376190D01*
X178309524Y-70852381D02*
X177738095Y-70852381D01*
X178023809Y-70852381D02*
X178023809Y-69852381D01*
X177928571Y-69995238D01*
X177833333Y-70090476D01*
X177738095Y-70138095D01*
X178642857Y-69852381D02*
X179261905Y-69852381D01*
X178928571Y-70233333D01*
X179071429Y-70233333D01*
X179166667Y-70280952D01*
X179214286Y-70328571D01*
X179261905Y-70423810D01*
X179261905Y-70661905D01*
X179214286Y-70757143D01*
X179166667Y-70804762D01*
X179071429Y-70852381D01*
X178785714Y-70852381D01*
X178690476Y-70804762D01*
X178642857Y-70757143D01*
X162757143Y-115452381D02*
X162423809Y-114976190D01*
X162185714Y-115452381D02*
X162185714Y-114452381D01*
X162566667Y-114452381D01*
X162661905Y-114500000D01*
X162709524Y-114547619D01*
X162757143Y-114642857D01*
X162757143Y-114785714D01*
X162709524Y-114880952D01*
X162661905Y-114928571D01*
X162566667Y-114976190D01*
X162185714Y-114976190D01*
X163709524Y-115452381D02*
X163138095Y-115452381D01*
X163423809Y-115452381D02*
X163423809Y-114452381D01*
X163328571Y-114595238D01*
X163233333Y-114690476D01*
X163138095Y-114738095D01*
X164566667Y-114785714D02*
X164566667Y-115452381D01*
X164328571Y-114404762D02*
X164090476Y-115119048D01*
X164709524Y-115119048D01*
X162757143Y-103052381D02*
X162423809Y-102576190D01*
X162185714Y-103052381D02*
X162185714Y-102052381D01*
X162566667Y-102052381D01*
X162661905Y-102100000D01*
X162709524Y-102147619D01*
X162757143Y-102242857D01*
X162757143Y-102385714D01*
X162709524Y-102480952D01*
X162661905Y-102528571D01*
X162566667Y-102576190D01*
X162185714Y-102576190D01*
X163709524Y-103052381D02*
X163138095Y-103052381D01*
X163423809Y-103052381D02*
X163423809Y-102052381D01*
X163328571Y-102195238D01*
X163233333Y-102290476D01*
X163138095Y-102338095D01*
X164614286Y-102052381D02*
X164138095Y-102052381D01*
X164090476Y-102528571D01*
X164138095Y-102480952D01*
X164233333Y-102433333D01*
X164471429Y-102433333D01*
X164566667Y-102480952D01*
X164614286Y-102528571D01*
X164661905Y-102623810D01*
X164661905Y-102861905D01*
X164614286Y-102957143D01*
X164566667Y-103004762D01*
X164471429Y-103052381D01*
X164233333Y-103052381D01*
X164138095Y-103004762D01*
X164090476Y-102957143D01*
X165957143Y-107652381D02*
X165623809Y-107176190D01*
X165385714Y-107652381D02*
X165385714Y-106652381D01*
X165766667Y-106652381D01*
X165861905Y-106700000D01*
X165909524Y-106747619D01*
X165957143Y-106842857D01*
X165957143Y-106985714D01*
X165909524Y-107080952D01*
X165861905Y-107128571D01*
X165766667Y-107176190D01*
X165385714Y-107176190D01*
X166909524Y-107652381D02*
X166338095Y-107652381D01*
X166623809Y-107652381D02*
X166623809Y-106652381D01*
X166528571Y-106795238D01*
X166433333Y-106890476D01*
X166338095Y-106938095D01*
X167766667Y-106652381D02*
X167576190Y-106652381D01*
X167480952Y-106700000D01*
X167433333Y-106747619D01*
X167338095Y-106890476D01*
X167290476Y-107080952D01*
X167290476Y-107461905D01*
X167338095Y-107557143D01*
X167385714Y-107604762D01*
X167480952Y-107652381D01*
X167671429Y-107652381D01*
X167766667Y-107604762D01*
X167814286Y-107557143D01*
X167861905Y-107461905D01*
X167861905Y-107223810D01*
X167814286Y-107128571D01*
X167766667Y-107080952D01*
X167671429Y-107033333D01*
X167480952Y-107033333D01*
X167385714Y-107080952D01*
X167338095Y-107128571D01*
X167290476Y-107223810D01*
X169357143Y-115452381D02*
X169023809Y-114976190D01*
X168785714Y-115452381D02*
X168785714Y-114452381D01*
X169166667Y-114452381D01*
X169261905Y-114500000D01*
X169309524Y-114547619D01*
X169357143Y-114642857D01*
X169357143Y-114785714D01*
X169309524Y-114880952D01*
X169261905Y-114928571D01*
X169166667Y-114976190D01*
X168785714Y-114976190D01*
X170309524Y-115452381D02*
X169738095Y-115452381D01*
X170023809Y-115452381D02*
X170023809Y-114452381D01*
X169928571Y-114595238D01*
X169833333Y-114690476D01*
X169738095Y-114738095D01*
X170642857Y-114452381D02*
X171309524Y-114452381D01*
X170880952Y-115452381D01*
X169457143Y-103052381D02*
X169123809Y-102576190D01*
X168885714Y-103052381D02*
X168885714Y-102052381D01*
X169266667Y-102052381D01*
X169361905Y-102100000D01*
X169409524Y-102147619D01*
X169457143Y-102242857D01*
X169457143Y-102385714D01*
X169409524Y-102480952D01*
X169361905Y-102528571D01*
X169266667Y-102576190D01*
X168885714Y-102576190D01*
X170409524Y-103052381D02*
X169838095Y-103052381D01*
X170123809Y-103052381D02*
X170123809Y-102052381D01*
X170028571Y-102195238D01*
X169933333Y-102290476D01*
X169838095Y-102338095D01*
X170980952Y-102480952D02*
X170885714Y-102433333D01*
X170838095Y-102385714D01*
X170790476Y-102290476D01*
X170790476Y-102242857D01*
X170838095Y-102147619D01*
X170885714Y-102100000D01*
X170980952Y-102052381D01*
X171171429Y-102052381D01*
X171266667Y-102100000D01*
X171314286Y-102147619D01*
X171361905Y-102242857D01*
X171361905Y-102290476D01*
X171314286Y-102385714D01*
X171266667Y-102433333D01*
X171171429Y-102480952D01*
X170980952Y-102480952D01*
X170885714Y-102528571D01*
X170838095Y-102576190D01*
X170790476Y-102671429D01*
X170790476Y-102861905D01*
X170838095Y-102957143D01*
X170885714Y-103004762D01*
X170980952Y-103052381D01*
X171171429Y-103052381D01*
X171266667Y-103004762D01*
X171314286Y-102957143D01*
X171361905Y-102861905D01*
X171361905Y-102671429D01*
X171314286Y-102576190D01*
X171266667Y-102528571D01*
X171171429Y-102480952D01*
X131590476Y-111502381D02*
X131923809Y-112502381D01*
X132257143Y-111502381D01*
X133114286Y-112502381D02*
X132542857Y-112502381D01*
X132828571Y-112502381D02*
X132828571Y-111502381D01*
X132733333Y-111645238D01*
X132638095Y-111740476D01*
X132542857Y-111788095D01*
X131490476Y-105052381D02*
X131823809Y-106052381D01*
X132157143Y-105052381D01*
X132442857Y-105147619D02*
X132490476Y-105100000D01*
X132585714Y-105052381D01*
X132823810Y-105052381D01*
X132919048Y-105100000D01*
X132966667Y-105147619D01*
X133014286Y-105242857D01*
X133014286Y-105338095D01*
X132966667Y-105480952D01*
X132395238Y-106052381D01*
X133014286Y-106052381D01*
X138390476Y-111552381D02*
X138723809Y-112552381D01*
X139057143Y-111552381D01*
X139295238Y-111552381D02*
X139914286Y-111552381D01*
X139580952Y-111933333D01*
X139723810Y-111933333D01*
X139819048Y-111980952D01*
X139866667Y-112028571D01*
X139914286Y-112123810D01*
X139914286Y-112361905D01*
X139866667Y-112457143D01*
X139819048Y-112504762D01*
X139723810Y-112552381D01*
X139438095Y-112552381D01*
X139342857Y-112504762D01*
X139295238Y-112457143D01*
X138290476Y-105052381D02*
X138623809Y-106052381D01*
X138957143Y-105052381D01*
X139719048Y-105385714D02*
X139719048Y-106052381D01*
X139480952Y-105004762D02*
X139242857Y-105719048D01*
X139861905Y-105719048D01*
D11*
X103080952Y-121304762D02*
X104414286Y-123304762D01*
X104414286Y-121304762D02*
X103080952Y-123304762D01*
X106223810Y-123304762D02*
X105080952Y-123304762D01*
X105652381Y-123304762D02*
X105652381Y-121304762D01*
X105461905Y-121590476D01*
X105271429Y-121780952D01*
X105080952Y-121876190D01*
X127080952Y-67504762D02*
X128414286Y-69504762D01*
X128414286Y-67504762D02*
X127080952Y-69504762D01*
X129080952Y-67695238D02*
X129176190Y-67600000D01*
X129366667Y-67504762D01*
X129842857Y-67504762D01*
X130033333Y-67600000D01*
X130128571Y-67695238D01*
X130223810Y-67885714D01*
X130223810Y-68076190D01*
X130128571Y-68361905D01*
X128985714Y-69504762D01*
X130223810Y-69504762D01*
X169780952Y-66904762D02*
X171114286Y-68904762D01*
X171114286Y-66904762D02*
X169780952Y-68904762D01*
X171685714Y-66904762D02*
X172923810Y-66904762D01*
X172257143Y-67666667D01*
X172542857Y-67666667D01*
X172733333Y-67761905D01*
X172828571Y-67857143D01*
X172923810Y-68047619D01*
X172923810Y-68523810D01*
X172828571Y-68714286D01*
X172733333Y-68809524D01*
X172542857Y-68904762D01*
X171971429Y-68904762D01*
X171780952Y-68809524D01*
X171685714Y-68714286D01*
X106380952Y-70904762D02*
X107714286Y-72904762D01*
X107714286Y-70904762D02*
X106380952Y-72904762D01*
X109333333Y-71571429D02*
X109333333Y-72904762D01*
X108857143Y-70809524D02*
X108380952Y-72238095D01*
X109619048Y-72238095D01*
X106380952Y-104904762D02*
X107714286Y-106904762D01*
X107714286Y-104904762D02*
X106380952Y-106904762D01*
X109428571Y-104904762D02*
X108476190Y-104904762D01*
X108380952Y-105857143D01*
X108476190Y-105761905D01*
X108666667Y-105666667D01*
X109142857Y-105666667D01*
X109333333Y-105761905D01*
X109428571Y-105857143D01*
X109523810Y-106047619D01*
X109523810Y-106523810D01*
X109428571Y-106714286D01*
X109333333Y-106809524D01*
X109142857Y-106904762D01*
X108666667Y-106904762D01*
X108476190Y-106809524D01*
X108380952Y-106714286D01*
X183704762Y-81019048D02*
X185704762Y-79685714D01*
X183704762Y-79685714D02*
X185704762Y-81019048D01*
X183704762Y-78066667D02*
X183704762Y-78447619D01*
X183800000Y-78638095D01*
X183895238Y-78733333D01*
X184180952Y-78923810D01*
X184561905Y-79019048D01*
X185323810Y-79019048D01*
X185514286Y-78923810D01*
X185609524Y-78828571D01*
X185704762Y-78638095D01*
X185704762Y-78257143D01*
X185609524Y-78066667D01*
X185514286Y-77971429D01*
X185323810Y-77876190D01*
X184847619Y-77876190D01*
X184657143Y-77971429D01*
X184561905Y-78066667D01*
X184466667Y-78257143D01*
X184466667Y-78638095D01*
X184561905Y-78828571D01*
X184657143Y-78923810D01*
X184847619Y-79019048D01*
X183704762Y-100019048D02*
X185704762Y-98685714D01*
X183704762Y-98685714D02*
X185704762Y-100019048D01*
X183704762Y-98114286D02*
X183704762Y-96780952D01*
X185704762Y-97638095D01*
D15*
X121938095Y-109852381D02*
X122509524Y-109852381D01*
X122223809Y-110852381D02*
X122223809Y-109852381D01*
X122842857Y-110852381D02*
X122842857Y-109852381D01*
X123223810Y-109852381D01*
X123319048Y-109900000D01*
X123366667Y-109947619D01*
X123414286Y-110042857D01*
X123414286Y-110185714D01*
X123366667Y-110280952D01*
X123319048Y-110328571D01*
X123223810Y-110376190D01*
X122842857Y-110376190D01*
X124366667Y-110852381D02*
X123795238Y-110852381D01*
X124080952Y-110852381D02*
X124080952Y-109852381D01*
X123985714Y-109995238D01*
X123890476Y-110090476D01*
X123795238Y-110138095D01*
X102238095Y-84852381D02*
X102809524Y-84852381D01*
X102523809Y-85852381D02*
X102523809Y-84852381D01*
X103142857Y-85852381D02*
X103142857Y-84852381D01*
X103523810Y-84852381D01*
X103619048Y-84900000D01*
X103666667Y-84947619D01*
X103714286Y-85042857D01*
X103714286Y-85185714D01*
X103666667Y-85280952D01*
X103619048Y-85328571D01*
X103523810Y-85376190D01*
X103142857Y-85376190D01*
X104095238Y-84947619D02*
X104142857Y-84900000D01*
X104238095Y-84852381D01*
X104476191Y-84852381D01*
X104571429Y-84900000D01*
X104619048Y-84947619D01*
X104666667Y-85042857D01*
X104666667Y-85138095D01*
X104619048Y-85280952D01*
X104047619Y-85852381D01*
X104666667Y-85852381D01*
X118338095Y-93452381D02*
X118909524Y-93452381D01*
X118623809Y-94452381D02*
X118623809Y-93452381D01*
X119242857Y-94452381D02*
X119242857Y-93452381D01*
X119623810Y-93452381D01*
X119719048Y-93500000D01*
X119766667Y-93547619D01*
X119814286Y-93642857D01*
X119814286Y-93785714D01*
X119766667Y-93880952D01*
X119719048Y-93928571D01*
X119623810Y-93976190D01*
X119242857Y-93976190D01*
X120147619Y-93452381D02*
X120766667Y-93452381D01*
X120433333Y-93833333D01*
X120576191Y-93833333D01*
X120671429Y-93880952D01*
X120719048Y-93928571D01*
X120766667Y-94023810D01*
X120766667Y-94261905D01*
X120719048Y-94357143D01*
X120671429Y-94404762D01*
X120576191Y-94452381D01*
X120290476Y-94452381D01*
X120195238Y-94404762D01*
X120147619Y-94357143D01*
X192838095Y-90552381D02*
X193409524Y-90552381D01*
X193123809Y-91552381D02*
X193123809Y-90552381D01*
X193742857Y-91552381D02*
X193742857Y-90552381D01*
X194123810Y-90552381D01*
X194219048Y-90600000D01*
X194266667Y-90647619D01*
X194314286Y-90742857D01*
X194314286Y-90885714D01*
X194266667Y-90980952D01*
X194219048Y-91028571D01*
X194123810Y-91076190D01*
X193742857Y-91076190D01*
X195171429Y-90885714D02*
X195171429Y-91552381D01*
X194933333Y-90504762D02*
X194695238Y-91219048D01*
X195314286Y-91219048D01*
X185638095Y-87852381D02*
X186209524Y-87852381D01*
X185923809Y-88852381D02*
X185923809Y-87852381D01*
X186542857Y-88852381D02*
X186542857Y-87852381D01*
X186923810Y-87852381D01*
X187019048Y-87900000D01*
X187066667Y-87947619D01*
X187114286Y-88042857D01*
X187114286Y-88185714D01*
X187066667Y-88280952D01*
X187019048Y-88328571D01*
X186923810Y-88376190D01*
X186542857Y-88376190D01*
X188019048Y-87852381D02*
X187542857Y-87852381D01*
X187495238Y-88328571D01*
X187542857Y-88280952D01*
X187638095Y-88233333D01*
X187876191Y-88233333D01*
X187971429Y-88280952D01*
X188019048Y-88328571D01*
X188066667Y-88423810D01*
X188066667Y-88661905D01*
X188019048Y-88757143D01*
X187971429Y-88804762D01*
X187876191Y-88852381D01*
X187638095Y-88852381D01*
X187542857Y-88804762D01*
X187495238Y-88757143D01*
D11*
X193580952Y-120404762D02*
X194914286Y-122404762D01*
X194914286Y-120404762D02*
X193580952Y-122404762D01*
X195961905Y-121261905D02*
X195771429Y-121166667D01*
X195676190Y-121071429D01*
X195580952Y-120880952D01*
X195580952Y-120785714D01*
X195676190Y-120595238D01*
X195771429Y-120500000D01*
X195961905Y-120404762D01*
X196342857Y-120404762D01*
X196533333Y-120500000D01*
X196628571Y-120595238D01*
X196723810Y-120785714D01*
X196723810Y-120880952D01*
X196628571Y-121071429D01*
X196533333Y-121166667D01*
X196342857Y-121261905D01*
X195961905Y-121261905D01*
X195771429Y-121357143D01*
X195676190Y-121452381D01*
X195580952Y-121642857D01*
X195580952Y-122023810D01*
X195676190Y-122214286D01*
X195771429Y-122309524D01*
X195961905Y-122404762D01*
X196342857Y-122404762D01*
X196533333Y-122309524D01*
X196628571Y-122214286D01*
X196723810Y-122023810D01*
X196723810Y-121642857D01*
X196628571Y-121452381D01*
X196533333Y-121357143D01*
X196342857Y-121261905D01*
D15*
X181433334Y-107157143D02*
X181385715Y-107204762D01*
X181242858Y-107252381D01*
X181147620Y-107252381D01*
X181004762Y-107204762D01*
X180909524Y-107109524D01*
X180861905Y-107014286D01*
X180814286Y-106823810D01*
X180814286Y-106680952D01*
X180861905Y-106490476D01*
X180909524Y-106395238D01*
X181004762Y-106300000D01*
X181147620Y-106252381D01*
X181242858Y-106252381D01*
X181385715Y-106300000D01*
X181433334Y-106347619D01*
X181766667Y-106252381D02*
X182433334Y-106252381D01*
X182004762Y-107252381D01*
X187738095Y-111252381D02*
X188309524Y-111252381D01*
X188023809Y-112252381D02*
X188023809Y-111252381D01*
X188642857Y-112252381D02*
X188642857Y-111252381D01*
X189023810Y-111252381D01*
X189119048Y-111300000D01*
X189166667Y-111347619D01*
X189214286Y-111442857D01*
X189214286Y-111585714D01*
X189166667Y-111680952D01*
X189119048Y-111728571D01*
X189023810Y-111776190D01*
X188642857Y-111776190D01*
X190071429Y-111252381D02*
X189880952Y-111252381D01*
X189785714Y-111300000D01*
X189738095Y-111347619D01*
X189642857Y-111490476D01*
X189595238Y-111680952D01*
X189595238Y-112061905D01*
X189642857Y-112157143D01*
X189690476Y-112204762D01*
X189785714Y-112252381D01*
X189976191Y-112252381D01*
X190071429Y-112204762D01*
X190119048Y-112157143D01*
X190166667Y-112061905D01*
X190166667Y-111823810D01*
X190119048Y-111728571D01*
X190071429Y-111680952D01*
X189976191Y-111633333D01*
X189785714Y-111633333D01*
X189690476Y-111680952D01*
X189642857Y-111728571D01*
X189595238Y-111823810D01*
M02*
