G04 #@! TF.FileFunction,Other,Fab,Top*
%FSLAX46Y46*%
G04 Gerber Fmt 4.6, Leading zero omitted, Abs format (unit mm)*
G04 Created by KiCad (PCBNEW 4.0.7) date 12/03/17 22:14:14*
%MOMM*%
%LPD*%
G01*
G04 APERTURE LIST*
%ADD10C,0.100000*%
%ADD11C,0.200000*%
%ADD12C,0.150000*%
%ADD13C,0.075000*%
G04 APERTURE END LIST*
D10*
X111350000Y-87000000D02*
X113850000Y-87000000D01*
X111350000Y-90200000D02*
X111350000Y-87000000D01*
X113850000Y-90200000D02*
X111350000Y-90200000D01*
X113850000Y-87000000D02*
X113850000Y-90200000D01*
D11*
X124800000Y-86950000D02*
G75*
G03X124800000Y-86950000I-4000000J0D01*
G01*
D10*
X120800000Y-83200000D02*
X120800000Y-84000000D01*
X121200000Y-83600000D02*
X120400000Y-83600000D01*
X152600000Y-108180000D02*
X152600000Y-109420000D01*
X150600000Y-108180000D02*
X152600000Y-108180000D01*
X150600000Y-109420000D02*
X150600000Y-108180000D01*
X152600000Y-109420000D02*
X150600000Y-109420000D01*
X161000000Y-108180000D02*
X161000000Y-109420000D01*
X159000000Y-108180000D02*
X161000000Y-108180000D01*
X159000000Y-109420000D02*
X159000000Y-108180000D01*
X161000000Y-109420000D02*
X159000000Y-109420000D01*
X177400000Y-102900000D02*
X179000000Y-102900000D01*
X177400000Y-106100000D02*
X177400000Y-102900000D01*
X179000000Y-106100000D02*
X177400000Y-106100000D01*
X179000000Y-102900000D02*
X179000000Y-106100000D01*
X176400000Y-108000000D02*
X176400000Y-109600000D01*
X173200000Y-108000000D02*
X176400000Y-108000000D01*
X173200000Y-109600000D02*
X173200000Y-108000000D01*
X176400000Y-109600000D02*
X173200000Y-109600000D01*
D12*
X126550000Y-74500000D02*
X126550000Y-81500000D01*
X133550000Y-74500000D02*
X126550000Y-74500000D01*
X133550000Y-81500000D02*
X133550000Y-74500000D01*
X126550000Y-81500000D02*
X133550000Y-81500000D01*
X138550000Y-74500000D02*
X138550000Y-81500000D01*
X145550000Y-74500000D02*
X138550000Y-74500000D01*
X145550000Y-81500000D02*
X145550000Y-74500000D01*
X138550000Y-81500000D02*
X145550000Y-81500000D01*
X150500000Y-74500000D02*
X150500000Y-81500000D01*
X157500000Y-74500000D02*
X150500000Y-74500000D01*
X157500000Y-81500000D02*
X157500000Y-74500000D01*
X150500000Y-81500000D02*
X157500000Y-81500000D01*
X162550000Y-74500000D02*
X162550000Y-81500000D01*
X169550000Y-74500000D02*
X162550000Y-74500000D01*
X169550000Y-81500000D02*
X169550000Y-74500000D01*
X162550000Y-81500000D02*
X169550000Y-81500000D01*
D10*
X154550000Y-108800000D02*
X157050000Y-108800000D01*
X154550000Y-112000000D02*
X154550000Y-108800000D01*
X157050000Y-112000000D02*
X154550000Y-112000000D01*
X157050000Y-108800000D02*
X157050000Y-112000000D01*
D12*
X174500000Y-74500000D02*
X174500000Y-81500000D01*
X181500000Y-74500000D02*
X174500000Y-74500000D01*
X181500000Y-81500000D02*
X181500000Y-74500000D01*
X174500000Y-81500000D02*
X181500000Y-81500000D01*
D10*
X125200000Y-107000000D02*
X125200000Y-105400000D01*
X125200000Y-105400000D02*
X126000000Y-105400000D01*
X126000000Y-105400000D02*
X126000000Y-107000000D01*
X126000000Y-107000000D02*
X125200000Y-107000000D01*
X126000000Y-110600000D02*
X126000000Y-112200000D01*
X126000000Y-112200000D02*
X125200000Y-112200000D01*
X125200000Y-112200000D02*
X125200000Y-110600000D01*
X125200000Y-110600000D02*
X126000000Y-110600000D01*
X134600000Y-109200000D02*
X133000000Y-109200000D01*
X133000000Y-109200000D02*
X133000000Y-108400000D01*
X133000000Y-108400000D02*
X134600000Y-108400000D01*
X134600000Y-108400000D02*
X134600000Y-109200000D01*
X142600000Y-110600000D02*
X142600000Y-112200000D01*
X142600000Y-112200000D02*
X141800000Y-112200000D01*
X141800000Y-112200000D02*
X141800000Y-110600000D01*
X141800000Y-110600000D02*
X142600000Y-110600000D01*
X130800000Y-72400000D02*
X129200000Y-72400000D01*
X129200000Y-72400000D02*
X129200000Y-71600000D01*
X129200000Y-71600000D02*
X130800000Y-71600000D01*
X130800000Y-71600000D02*
X130800000Y-72400000D01*
X141800000Y-107000000D02*
X141800000Y-105400000D01*
X141800000Y-105400000D02*
X142600000Y-105400000D01*
X142600000Y-105400000D02*
X142600000Y-107000000D01*
X142600000Y-107000000D02*
X141800000Y-107000000D01*
X146000000Y-109200000D02*
X144400000Y-109200000D01*
X144400000Y-109200000D02*
X144400000Y-108400000D01*
X144400000Y-108400000D02*
X146000000Y-108400000D01*
X146000000Y-108400000D02*
X146000000Y-109200000D01*
X142750000Y-72400000D02*
X141150000Y-72400000D01*
X141150000Y-72400000D02*
X141150000Y-71600000D01*
X141150000Y-71600000D02*
X142750000Y-71600000D01*
X142750000Y-71600000D02*
X142750000Y-72400000D01*
X148600000Y-110600000D02*
X148600000Y-112200000D01*
X148600000Y-112200000D02*
X147800000Y-112200000D01*
X147800000Y-112200000D02*
X147800000Y-110600000D01*
X147800000Y-110600000D02*
X148600000Y-110600000D01*
X147800000Y-107000000D02*
X147800000Y-105400000D01*
X147800000Y-105400000D02*
X148600000Y-105400000D01*
X148600000Y-105400000D02*
X148600000Y-107000000D01*
X148600000Y-107000000D02*
X147800000Y-107000000D01*
X154750000Y-72400000D02*
X153150000Y-72400000D01*
X153150000Y-72400000D02*
X153150000Y-71600000D01*
X153150000Y-71600000D02*
X154750000Y-71600000D01*
X154750000Y-71600000D02*
X154750000Y-72400000D01*
X166750000Y-72400000D02*
X165150000Y-72400000D01*
X165150000Y-72400000D02*
X165150000Y-71600000D01*
X165150000Y-71600000D02*
X166750000Y-71600000D01*
X166750000Y-71600000D02*
X166750000Y-72400000D01*
X178800000Y-72400000D02*
X177200000Y-72400000D01*
X177200000Y-72400000D02*
X177200000Y-71600000D01*
X177200000Y-71600000D02*
X178800000Y-71600000D01*
X178800000Y-71600000D02*
X178800000Y-72400000D01*
X163800000Y-110600000D02*
X163800000Y-112200000D01*
X163800000Y-112200000D02*
X163000000Y-112200000D01*
X163000000Y-112200000D02*
X163000000Y-110600000D01*
X163000000Y-110600000D02*
X163800000Y-110600000D01*
X163000000Y-107000000D02*
X163000000Y-105400000D01*
X163000000Y-105400000D02*
X163800000Y-105400000D01*
X163800000Y-105400000D02*
X163800000Y-107000000D01*
X163800000Y-107000000D02*
X163000000Y-107000000D01*
X167400000Y-109200000D02*
X165800000Y-109200000D01*
X165800000Y-109200000D02*
X165800000Y-108400000D01*
X165800000Y-108400000D02*
X167400000Y-108400000D01*
X167400000Y-108400000D02*
X167400000Y-109200000D01*
X170400000Y-110600000D02*
X170400000Y-112200000D01*
X170400000Y-112200000D02*
X169600000Y-112200000D01*
X169600000Y-112200000D02*
X169600000Y-110600000D01*
X169600000Y-110600000D02*
X170400000Y-110600000D01*
X169600000Y-107000000D02*
X169600000Y-105400000D01*
X169600000Y-105400000D02*
X170400000Y-105400000D01*
X170400000Y-105400000D02*
X170400000Y-107000000D01*
X170400000Y-107000000D02*
X169600000Y-107000000D01*
X130600000Y-111800000D02*
X130200000Y-112400000D01*
X129800000Y-111800000D02*
X130600000Y-111800000D01*
X130200000Y-112400000D02*
X129800000Y-111800000D01*
X130200000Y-112400000D02*
X130750000Y-112400000D01*
X130200000Y-112400000D02*
X129650000Y-112400000D01*
X131100000Y-113450000D02*
X129300000Y-113450000D01*
X131100000Y-110650000D02*
X131100000Y-113450000D01*
X129300000Y-110650000D02*
X131100000Y-110650000D01*
X129300000Y-113450000D02*
X129300000Y-110650000D01*
X130600000Y-105350000D02*
X130200000Y-105950000D01*
X129800000Y-105350000D02*
X130600000Y-105350000D01*
X130200000Y-105950000D02*
X129800000Y-105350000D01*
X130200000Y-105950000D02*
X130750000Y-105950000D01*
X130200000Y-105950000D02*
X129650000Y-105950000D01*
X131100000Y-107000000D02*
X129300000Y-107000000D01*
X131100000Y-104200000D02*
X131100000Y-107000000D01*
X129300000Y-104200000D02*
X131100000Y-104200000D01*
X129300000Y-107000000D02*
X129300000Y-104200000D01*
X137400000Y-111800000D02*
X137000000Y-112400000D01*
X136600000Y-111800000D02*
X137400000Y-111800000D01*
X137000000Y-112400000D02*
X136600000Y-111800000D01*
X137000000Y-112400000D02*
X137550000Y-112400000D01*
X137000000Y-112400000D02*
X136450000Y-112400000D01*
X137900000Y-113450000D02*
X136100000Y-113450000D01*
X137900000Y-110650000D02*
X137900000Y-113450000D01*
X136100000Y-110650000D02*
X137900000Y-110650000D01*
X136100000Y-113450000D02*
X136100000Y-110650000D01*
X137400000Y-105350000D02*
X137000000Y-105950000D01*
X136600000Y-105350000D02*
X137400000Y-105350000D01*
X137000000Y-105950000D02*
X136600000Y-105350000D01*
X137000000Y-105950000D02*
X137550000Y-105950000D01*
X137000000Y-105950000D02*
X136450000Y-105950000D01*
X137900000Y-107000000D02*
X136100000Y-107000000D01*
X137900000Y-104200000D02*
X137900000Y-107000000D01*
X136100000Y-104200000D02*
X137900000Y-104200000D01*
X136100000Y-107000000D02*
X136100000Y-104200000D01*
X106830000Y-112550000D02*
X107850000Y-112550000D01*
X107970000Y-112430000D02*
X107970000Y-118770000D01*
X101630000Y-118770000D02*
X107970000Y-118770000D01*
X101630000Y-112430000D02*
X101630000Y-118770000D01*
X101630000Y-112430000D02*
X107970000Y-112430000D01*
X102770000Y-112550000D02*
X102770000Y-113570000D01*
X101750000Y-113570000D02*
X102770000Y-113570000D01*
X102770000Y-117630000D02*
X102770000Y-118650000D01*
X101750000Y-117630000D02*
X102770000Y-117630000D01*
X106830000Y-112550000D02*
X106830000Y-113570000D01*
X106830000Y-113570000D02*
X107850000Y-113570000D01*
X107850000Y-117630000D02*
X106830000Y-117630000D01*
X106830000Y-117630000D02*
X106830000Y-118650000D01*
X106840000Y-115600000D02*
G75*
G03X106840000Y-115600000I-2040000J0D01*
G01*
X105435000Y-115600000D02*
G75*
G03X105435000Y-115600000I-635000J0D01*
G01*
X107850000Y-112550000D02*
X107850000Y-113570000D01*
X101750000Y-112550000D02*
X101750000Y-113570000D01*
X101750000Y-112550000D02*
X102770000Y-112550000D01*
X101750000Y-118650000D02*
X102770000Y-118650000D01*
X101750000Y-118650000D02*
X101750000Y-117630000D01*
X107850000Y-117630000D02*
X107850000Y-118650000D01*
X106830000Y-118650000D02*
X107850000Y-118650000D01*
X126000000Y-69600000D02*
X126000000Y-65800000D01*
X126000000Y-65800000D02*
X103500000Y-65800000D01*
X103500000Y-65800000D02*
X103500000Y-69600000D01*
X103500000Y-69600000D02*
X126000000Y-69600000D01*
X126450000Y-67850000D02*
X126450000Y-65350000D01*
X126450000Y-65350000D02*
X123950000Y-65350000D01*
X197200000Y-69600000D02*
X197200000Y-65800000D01*
X197200000Y-65800000D02*
X174700000Y-65800000D01*
X174700000Y-65800000D02*
X174700000Y-69600000D01*
X174700000Y-69600000D02*
X197200000Y-69600000D01*
X197650000Y-67850000D02*
X197650000Y-65350000D01*
X197650000Y-65350000D02*
X195150000Y-65350000D01*
X197230000Y-112550000D02*
X198250000Y-112550000D01*
X198370000Y-112430000D02*
X198370000Y-118770000D01*
X192030000Y-118770000D02*
X198370000Y-118770000D01*
X192030000Y-112430000D02*
X192030000Y-118770000D01*
X192030000Y-112430000D02*
X198370000Y-112430000D01*
X193170000Y-112550000D02*
X193170000Y-113570000D01*
X192150000Y-113570000D02*
X193170000Y-113570000D01*
X193170000Y-117630000D02*
X193170000Y-118650000D01*
X192150000Y-117630000D02*
X193170000Y-117630000D01*
X197230000Y-112550000D02*
X197230000Y-113570000D01*
X197230000Y-113570000D02*
X198250000Y-113570000D01*
X198250000Y-117630000D02*
X197230000Y-117630000D01*
X197230000Y-117630000D02*
X197230000Y-118650000D01*
X197240000Y-115600000D02*
G75*
G03X197240000Y-115600000I-2040000J0D01*
G01*
X195835000Y-115600000D02*
G75*
G03X195835000Y-115600000I-635000J0D01*
G01*
X198250000Y-112550000D02*
X198250000Y-113570000D01*
X192150000Y-112550000D02*
X192150000Y-113570000D01*
X192150000Y-112550000D02*
X193170000Y-112550000D01*
X192150000Y-118650000D02*
X193170000Y-118650000D01*
X192150000Y-118650000D02*
X192150000Y-117630000D01*
X198250000Y-117630000D02*
X198250000Y-118650000D01*
X197230000Y-118650000D02*
X198250000Y-118650000D01*
X183200000Y-108000000D02*
X183200000Y-109600000D01*
X180000000Y-108000000D02*
X183200000Y-108000000D01*
X180000000Y-109600000D02*
X180000000Y-108000000D01*
X183200000Y-109600000D02*
X180000000Y-109600000D01*
D12*
X109885714Y-90004761D02*
X110552381Y-90004761D01*
X109504762Y-90242857D02*
X110219048Y-90480952D01*
X110219048Y-89861904D01*
X110457143Y-89480952D02*
X110504762Y-89433333D01*
X110552381Y-89480952D01*
X110504762Y-89528571D01*
X110457143Y-89480952D01*
X110552381Y-89480952D01*
X109552381Y-89100000D02*
X109552381Y-88433333D01*
X110552381Y-88861905D01*
X109885714Y-87623809D02*
X110552381Y-87623809D01*
X109885714Y-88052381D02*
X110409524Y-88052381D01*
X110504762Y-88004762D01*
X110552381Y-87909524D01*
X110552381Y-87766666D01*
X110504762Y-87671428D01*
X110457143Y-87623809D01*
X110028571Y-86814285D02*
X110028571Y-87147619D01*
X110552381Y-87147619D02*
X109552381Y-87147619D01*
X109552381Y-86671428D01*
X115207143Y-88766666D02*
X115254762Y-88814285D01*
X115302381Y-88957142D01*
X115302381Y-89052380D01*
X115254762Y-89195238D01*
X115159524Y-89290476D01*
X115064286Y-89338095D01*
X114873810Y-89385714D01*
X114730952Y-89385714D01*
X114540476Y-89338095D01*
X114445238Y-89290476D01*
X114350000Y-89195238D01*
X114302381Y-89052380D01*
X114302381Y-88957142D01*
X114350000Y-88814285D01*
X114397619Y-88766666D01*
X115302381Y-87814285D02*
X115302381Y-88385714D01*
X115302381Y-88100000D02*
X114302381Y-88100000D01*
X114445238Y-88195238D01*
X114540476Y-88290476D01*
X114588095Y-88385714D01*
X115037619Y-88592857D02*
X114990000Y-88545238D01*
X114942381Y-88450000D01*
X114942381Y-88211904D01*
X114990000Y-88116666D01*
X115037619Y-88069047D01*
X115132857Y-88021428D01*
X115228095Y-88021428D01*
X115370952Y-88069047D01*
X115942381Y-88640476D01*
X115942381Y-88021428D01*
X114942381Y-87688095D02*
X114942381Y-87021428D01*
X115942381Y-87450000D01*
X115275714Y-86211904D02*
X115942381Y-86211904D01*
X115275714Y-86640476D02*
X115799524Y-86640476D01*
X115894762Y-86592857D01*
X115942381Y-86497619D01*
X115942381Y-86354761D01*
X115894762Y-86259523D01*
X115847143Y-86211904D01*
X115418571Y-85402380D02*
X115418571Y-85735714D01*
X115942381Y-85735714D02*
X114942381Y-85735714D01*
X114942381Y-85259523D01*
X121157143Y-87116666D02*
X121204762Y-87164285D01*
X121252381Y-87307142D01*
X121252381Y-87402380D01*
X121204762Y-87545238D01*
X121109524Y-87640476D01*
X121014286Y-87688095D01*
X120823810Y-87735714D01*
X120680952Y-87735714D01*
X120490476Y-87688095D01*
X120395238Y-87640476D01*
X120300000Y-87545238D01*
X120252381Y-87402380D01*
X120252381Y-87307142D01*
X120300000Y-87164285D01*
X120347619Y-87116666D01*
X120347619Y-86735714D02*
X120300000Y-86688095D01*
X120252381Y-86592857D01*
X120252381Y-86354761D01*
X120300000Y-86259523D01*
X120347619Y-86211904D01*
X120442857Y-86164285D01*
X120538095Y-86164285D01*
X120680952Y-86211904D01*
X121252381Y-86783333D01*
X121252381Y-86164285D01*
X149957143Y-106835714D02*
X149957143Y-107502381D01*
X149719047Y-106454762D02*
X149480952Y-107169048D01*
X150100000Y-107169048D01*
X150385714Y-106502381D02*
X151052381Y-106502381D01*
X150623809Y-107502381D01*
X151623809Y-106502381D02*
X151719048Y-106502381D01*
X151814286Y-106550000D01*
X151861905Y-106597619D01*
X151909524Y-106692857D01*
X151957143Y-106883333D01*
X151957143Y-107121429D01*
X151909524Y-107311905D01*
X151861905Y-107407143D01*
X151814286Y-107454762D01*
X151719048Y-107502381D01*
X151623809Y-107502381D01*
X151528571Y-107454762D01*
X151480952Y-107407143D01*
X151433333Y-107311905D01*
X151385714Y-107121429D01*
X151385714Y-106883333D01*
X151433333Y-106692857D01*
X151480952Y-106597619D01*
X151528571Y-106550000D01*
X151623809Y-106502381D01*
X152385714Y-106835714D02*
X152385714Y-107502381D01*
X152385714Y-106930952D02*
X152433333Y-106883333D01*
X152528571Y-106835714D01*
X152671429Y-106835714D01*
X152766667Y-106883333D01*
X152814286Y-106978571D01*
X152814286Y-107502381D01*
X153623810Y-106978571D02*
X153290476Y-106978571D01*
X153290476Y-107502381D02*
X153290476Y-106502381D01*
X153766667Y-106502381D01*
D13*
X151550000Y-108907143D02*
X151535714Y-108921429D01*
X151492857Y-108935714D01*
X151464286Y-108935714D01*
X151421429Y-108921429D01*
X151392857Y-108892857D01*
X151378572Y-108864286D01*
X151364286Y-108807143D01*
X151364286Y-108764286D01*
X151378572Y-108707143D01*
X151392857Y-108678571D01*
X151421429Y-108650000D01*
X151464286Y-108635714D01*
X151492857Y-108635714D01*
X151535714Y-108650000D01*
X151550000Y-108664286D01*
X151650000Y-108635714D02*
X151835714Y-108635714D01*
X151735714Y-108750000D01*
X151778572Y-108750000D01*
X151807143Y-108764286D01*
X151821429Y-108778571D01*
X151835714Y-108807143D01*
X151835714Y-108878571D01*
X151821429Y-108907143D01*
X151807143Y-108921429D01*
X151778572Y-108935714D01*
X151692857Y-108935714D01*
X151664286Y-108921429D01*
X151650000Y-108907143D01*
D12*
X158357143Y-106835714D02*
X158357143Y-107502381D01*
X158119047Y-106454762D02*
X157880952Y-107169048D01*
X158500000Y-107169048D01*
X158785714Y-106502381D02*
X159452381Y-106502381D01*
X159023809Y-107502381D01*
X160023809Y-106502381D02*
X160119048Y-106502381D01*
X160214286Y-106550000D01*
X160261905Y-106597619D01*
X160309524Y-106692857D01*
X160357143Y-106883333D01*
X160357143Y-107121429D01*
X160309524Y-107311905D01*
X160261905Y-107407143D01*
X160214286Y-107454762D01*
X160119048Y-107502381D01*
X160023809Y-107502381D01*
X159928571Y-107454762D01*
X159880952Y-107407143D01*
X159833333Y-107311905D01*
X159785714Y-107121429D01*
X159785714Y-106883333D01*
X159833333Y-106692857D01*
X159880952Y-106597619D01*
X159928571Y-106550000D01*
X160023809Y-106502381D01*
X160785714Y-106835714D02*
X160785714Y-107502381D01*
X160785714Y-106930952D02*
X160833333Y-106883333D01*
X160928571Y-106835714D01*
X161071429Y-106835714D01*
X161166667Y-106883333D01*
X161214286Y-106978571D01*
X161214286Y-107502381D01*
X162023810Y-106978571D02*
X161690476Y-106978571D01*
X161690476Y-107502381D02*
X161690476Y-106502381D01*
X162166667Y-106502381D01*
D13*
X159950000Y-108907143D02*
X159935714Y-108921429D01*
X159892857Y-108935714D01*
X159864286Y-108935714D01*
X159821429Y-108921429D01*
X159792857Y-108892857D01*
X159778572Y-108864286D01*
X159764286Y-108807143D01*
X159764286Y-108764286D01*
X159778572Y-108707143D01*
X159792857Y-108678571D01*
X159821429Y-108650000D01*
X159864286Y-108635714D01*
X159892857Y-108635714D01*
X159935714Y-108650000D01*
X159950000Y-108664286D01*
X160207143Y-108735714D02*
X160207143Y-108935714D01*
X160135714Y-108621429D02*
X160064286Y-108835714D01*
X160250000Y-108835714D01*
D12*
X176652381Y-106047619D02*
X176652381Y-106619048D01*
X176652381Y-106333334D02*
X175652381Y-106333334D01*
X175795238Y-106428572D01*
X175890476Y-106523810D01*
X175938095Y-106619048D01*
X175652381Y-105428572D02*
X175652381Y-105333333D01*
X175700000Y-105238095D01*
X175747619Y-105190476D01*
X175842857Y-105142857D01*
X176033333Y-105095238D01*
X176271429Y-105095238D01*
X176461905Y-105142857D01*
X176557143Y-105190476D01*
X176604762Y-105238095D01*
X176652381Y-105333333D01*
X176652381Y-105428572D01*
X176604762Y-105523810D01*
X176557143Y-105571429D01*
X176461905Y-105619048D01*
X176271429Y-105666667D01*
X176033333Y-105666667D01*
X175842857Y-105619048D01*
X175747619Y-105571429D01*
X175700000Y-105523810D01*
X175652381Y-105428572D01*
X175652381Y-104476191D02*
X175652381Y-104380952D01*
X175700000Y-104285714D01*
X175747619Y-104238095D01*
X175842857Y-104190476D01*
X176033333Y-104142857D01*
X176271429Y-104142857D01*
X176461905Y-104190476D01*
X176557143Y-104238095D01*
X176604762Y-104285714D01*
X176652381Y-104380952D01*
X176652381Y-104476191D01*
X176604762Y-104571429D01*
X176557143Y-104619048D01*
X176461905Y-104666667D01*
X176271429Y-104714286D01*
X176033333Y-104714286D01*
X175842857Y-104666667D01*
X175747619Y-104619048D01*
X175700000Y-104571429D01*
X175652381Y-104476191D01*
X175985714Y-103714286D02*
X176652381Y-103714286D01*
X176080952Y-103714286D02*
X176033333Y-103666667D01*
X175985714Y-103571429D01*
X175985714Y-103428571D01*
X176033333Y-103333333D01*
X176128571Y-103285714D01*
X176652381Y-103285714D01*
X176128571Y-102476190D02*
X176128571Y-102809524D01*
X176652381Y-102809524D02*
X175652381Y-102809524D01*
X175652381Y-102333333D01*
D13*
X178307143Y-104550000D02*
X178321429Y-104564286D01*
X178335714Y-104607143D01*
X178335714Y-104635714D01*
X178321429Y-104678571D01*
X178292857Y-104707143D01*
X178264286Y-104721428D01*
X178207143Y-104735714D01*
X178164286Y-104735714D01*
X178107143Y-104721428D01*
X178078571Y-104707143D01*
X178050000Y-104678571D01*
X178035714Y-104635714D01*
X178035714Y-104607143D01*
X178050000Y-104564286D01*
X178064286Y-104550000D01*
X178035714Y-104278571D02*
X178035714Y-104421428D01*
X178178571Y-104435714D01*
X178164286Y-104421428D01*
X178150000Y-104392857D01*
X178150000Y-104321428D01*
X178164286Y-104292857D01*
X178178571Y-104278571D01*
X178207143Y-104264286D01*
X178278571Y-104264286D01*
X178307143Y-104278571D01*
X178321429Y-104292857D01*
X178335714Y-104321428D01*
X178335714Y-104392857D01*
X178321429Y-104421428D01*
X178307143Y-104435714D01*
D12*
X173252381Y-107252381D02*
X172680952Y-107252381D01*
X172966666Y-107252381D02*
X172966666Y-106252381D01*
X172871428Y-106395238D01*
X172776190Y-106490476D01*
X172680952Y-106538095D01*
X173871428Y-106252381D02*
X173966667Y-106252381D01*
X174061905Y-106300000D01*
X174109524Y-106347619D01*
X174157143Y-106442857D01*
X174204762Y-106633333D01*
X174204762Y-106871429D01*
X174157143Y-107061905D01*
X174109524Y-107157143D01*
X174061905Y-107204762D01*
X173966667Y-107252381D01*
X173871428Y-107252381D01*
X173776190Y-107204762D01*
X173728571Y-107157143D01*
X173680952Y-107061905D01*
X173633333Y-106871429D01*
X173633333Y-106633333D01*
X173680952Y-106442857D01*
X173728571Y-106347619D01*
X173776190Y-106300000D01*
X173871428Y-106252381D01*
X174823809Y-106252381D02*
X174919048Y-106252381D01*
X175014286Y-106300000D01*
X175061905Y-106347619D01*
X175109524Y-106442857D01*
X175157143Y-106633333D01*
X175157143Y-106871429D01*
X175109524Y-107061905D01*
X175061905Y-107157143D01*
X175014286Y-107204762D01*
X174919048Y-107252381D01*
X174823809Y-107252381D01*
X174728571Y-107204762D01*
X174680952Y-107157143D01*
X174633333Y-107061905D01*
X174585714Y-106871429D01*
X174585714Y-106633333D01*
X174633333Y-106442857D01*
X174680952Y-106347619D01*
X174728571Y-106300000D01*
X174823809Y-106252381D01*
X175585714Y-106585714D02*
X175585714Y-107252381D01*
X175585714Y-106680952D02*
X175633333Y-106633333D01*
X175728571Y-106585714D01*
X175871429Y-106585714D01*
X175966667Y-106633333D01*
X176014286Y-106728571D01*
X176014286Y-107252381D01*
X176823810Y-106728571D02*
X176490476Y-106728571D01*
X176490476Y-107252381D02*
X176490476Y-106252381D01*
X176966667Y-106252381D01*
D13*
X174750000Y-108907143D02*
X174735714Y-108921429D01*
X174692857Y-108935714D01*
X174664286Y-108935714D01*
X174621429Y-108921429D01*
X174592857Y-108892857D01*
X174578572Y-108864286D01*
X174564286Y-108807143D01*
X174564286Y-108764286D01*
X174578572Y-108707143D01*
X174592857Y-108678571D01*
X174621429Y-108650000D01*
X174664286Y-108635714D01*
X174692857Y-108635714D01*
X174735714Y-108650000D01*
X174750000Y-108664286D01*
X175007143Y-108635714D02*
X174950000Y-108635714D01*
X174921429Y-108650000D01*
X174907143Y-108664286D01*
X174878572Y-108707143D01*
X174864286Y-108764286D01*
X174864286Y-108878571D01*
X174878572Y-108907143D01*
X174892857Y-108921429D01*
X174921429Y-108935714D01*
X174978572Y-108935714D01*
X175007143Y-108921429D01*
X175021429Y-108907143D01*
X175035714Y-108878571D01*
X175035714Y-108807143D01*
X175021429Y-108778571D01*
X175007143Y-108764286D01*
X174978572Y-108750000D01*
X174921429Y-108750000D01*
X174892857Y-108764286D01*
X174878572Y-108778571D01*
X174864286Y-108807143D01*
D12*
X128645239Y-73752381D02*
X128073810Y-73752381D01*
X128359524Y-73752381D02*
X128359524Y-72752381D01*
X128264286Y-72895238D01*
X128169048Y-72990476D01*
X128073810Y-73038095D01*
X129073810Y-73657143D02*
X129121429Y-73704762D01*
X129073810Y-73752381D01*
X129026191Y-73704762D01*
X129073810Y-73657143D01*
X129073810Y-73752381D01*
X130073810Y-73752381D02*
X129502381Y-73752381D01*
X129788095Y-73752381D02*
X129788095Y-72752381D01*
X129692857Y-72895238D01*
X129597619Y-72990476D01*
X129502381Y-73038095D01*
X130930953Y-73085714D02*
X130930953Y-73752381D01*
X130502381Y-73085714D02*
X130502381Y-73609524D01*
X130550000Y-73704762D01*
X130645238Y-73752381D01*
X130788096Y-73752381D01*
X130883334Y-73704762D01*
X130930953Y-73657143D01*
X131407143Y-73752381D02*
X131407143Y-72752381D01*
X131407143Y-73228571D02*
X131978572Y-73228571D01*
X131978572Y-73752381D02*
X131978572Y-72752381D01*
X140645239Y-73752381D02*
X140073810Y-73752381D01*
X140359524Y-73752381D02*
X140359524Y-72752381D01*
X140264286Y-72895238D01*
X140169048Y-72990476D01*
X140073810Y-73038095D01*
X141073810Y-73657143D02*
X141121429Y-73704762D01*
X141073810Y-73752381D01*
X141026191Y-73704762D01*
X141073810Y-73657143D01*
X141073810Y-73752381D01*
X142073810Y-73752381D02*
X141502381Y-73752381D01*
X141788095Y-73752381D02*
X141788095Y-72752381D01*
X141692857Y-72895238D01*
X141597619Y-72990476D01*
X141502381Y-73038095D01*
X142930953Y-73085714D02*
X142930953Y-73752381D01*
X142502381Y-73085714D02*
X142502381Y-73609524D01*
X142550000Y-73704762D01*
X142645238Y-73752381D01*
X142788096Y-73752381D01*
X142883334Y-73704762D01*
X142930953Y-73657143D01*
X143407143Y-73752381D02*
X143407143Y-72752381D01*
X143407143Y-73228571D02*
X143978572Y-73228571D01*
X143978572Y-73752381D02*
X143978572Y-72752381D01*
X152595239Y-73752381D02*
X152023810Y-73752381D01*
X152309524Y-73752381D02*
X152309524Y-72752381D01*
X152214286Y-72895238D01*
X152119048Y-72990476D01*
X152023810Y-73038095D01*
X153023810Y-73657143D02*
X153071429Y-73704762D01*
X153023810Y-73752381D01*
X152976191Y-73704762D01*
X153023810Y-73657143D01*
X153023810Y-73752381D01*
X154023810Y-73752381D02*
X153452381Y-73752381D01*
X153738095Y-73752381D02*
X153738095Y-72752381D01*
X153642857Y-72895238D01*
X153547619Y-72990476D01*
X153452381Y-73038095D01*
X154880953Y-73085714D02*
X154880953Y-73752381D01*
X154452381Y-73085714D02*
X154452381Y-73609524D01*
X154500000Y-73704762D01*
X154595238Y-73752381D01*
X154738096Y-73752381D01*
X154833334Y-73704762D01*
X154880953Y-73657143D01*
X155357143Y-73752381D02*
X155357143Y-72752381D01*
X155357143Y-73228571D02*
X155928572Y-73228571D01*
X155928572Y-73752381D02*
X155928572Y-72752381D01*
X164645239Y-73752381D02*
X164073810Y-73752381D01*
X164359524Y-73752381D02*
X164359524Y-72752381D01*
X164264286Y-72895238D01*
X164169048Y-72990476D01*
X164073810Y-73038095D01*
X165073810Y-73657143D02*
X165121429Y-73704762D01*
X165073810Y-73752381D01*
X165026191Y-73704762D01*
X165073810Y-73657143D01*
X165073810Y-73752381D01*
X166073810Y-73752381D02*
X165502381Y-73752381D01*
X165788095Y-73752381D02*
X165788095Y-72752381D01*
X165692857Y-72895238D01*
X165597619Y-72990476D01*
X165502381Y-73038095D01*
X166930953Y-73085714D02*
X166930953Y-73752381D01*
X166502381Y-73085714D02*
X166502381Y-73609524D01*
X166550000Y-73704762D01*
X166645238Y-73752381D01*
X166788096Y-73752381D01*
X166883334Y-73704762D01*
X166930953Y-73657143D01*
X167407143Y-73752381D02*
X167407143Y-72752381D01*
X167407143Y-73228571D02*
X167978572Y-73228571D01*
X167978572Y-73752381D02*
X167978572Y-72752381D01*
X153752381Y-111304761D02*
X153752381Y-111876190D01*
X153752381Y-111590476D02*
X152752381Y-111590476D01*
X152895238Y-111685714D01*
X152990476Y-111780952D01*
X153038095Y-111876190D01*
X153752381Y-110876190D02*
X153085714Y-110876190D01*
X153180952Y-110876190D02*
X153133333Y-110828571D01*
X153085714Y-110733333D01*
X153085714Y-110590475D01*
X153133333Y-110495237D01*
X153228571Y-110447618D01*
X153752381Y-110447618D01*
X153228571Y-110447618D02*
X153133333Y-110399999D01*
X153085714Y-110304761D01*
X153085714Y-110161904D01*
X153133333Y-110066666D01*
X153228571Y-110019047D01*
X153752381Y-110019047D01*
X153752381Y-109542857D02*
X152752381Y-109542857D01*
X153228571Y-109542857D02*
X153228571Y-108971428D01*
X153752381Y-108971428D02*
X152752381Y-108971428D01*
X158502381Y-110566666D02*
X158502381Y-111042857D01*
X157502381Y-111042857D01*
X157502381Y-109757142D02*
X157502381Y-110233333D01*
X157978571Y-110280952D01*
X157930952Y-110233333D01*
X157883333Y-110138095D01*
X157883333Y-109899999D01*
X157930952Y-109804761D01*
X157978571Y-109757142D01*
X158073810Y-109709523D01*
X158311905Y-109709523D01*
X158407143Y-109757142D01*
X158454762Y-109804761D01*
X158502381Y-109899999D01*
X158502381Y-110138095D01*
X158454762Y-110233333D01*
X158407143Y-110280952D01*
X176595239Y-73752381D02*
X176023810Y-73752381D01*
X176309524Y-73752381D02*
X176309524Y-72752381D01*
X176214286Y-72895238D01*
X176119048Y-72990476D01*
X176023810Y-73038095D01*
X177023810Y-73657143D02*
X177071429Y-73704762D01*
X177023810Y-73752381D01*
X176976191Y-73704762D01*
X177023810Y-73657143D01*
X177023810Y-73752381D01*
X178023810Y-73752381D02*
X177452381Y-73752381D01*
X177738095Y-73752381D02*
X177738095Y-72752381D01*
X177642857Y-72895238D01*
X177547619Y-72990476D01*
X177452381Y-73038095D01*
X178880953Y-73085714D02*
X178880953Y-73752381D01*
X178452381Y-73085714D02*
X178452381Y-73609524D01*
X178500000Y-73704762D01*
X178595238Y-73752381D01*
X178738096Y-73752381D01*
X178833334Y-73704762D01*
X178880953Y-73657143D01*
X179357143Y-73752381D02*
X179357143Y-72752381D01*
X179357143Y-73228571D02*
X179928572Y-73228571D01*
X179928572Y-73752381D02*
X179928572Y-72752381D01*
X126980952Y-107747619D02*
X126933333Y-107842857D01*
X126885714Y-107890476D01*
X126790476Y-107938095D01*
X126742857Y-107938095D01*
X126647619Y-107890476D01*
X126600000Y-107842857D01*
X126552381Y-107747619D01*
X126552381Y-107557142D01*
X126600000Y-107461904D01*
X126647619Y-107414285D01*
X126742857Y-107366666D01*
X126790476Y-107366666D01*
X126885714Y-107414285D01*
X126933333Y-107461904D01*
X126980952Y-107557142D01*
X126980952Y-107747619D01*
X127028571Y-107842857D01*
X127076190Y-107890476D01*
X127171429Y-107938095D01*
X127361905Y-107938095D01*
X127457143Y-107890476D01*
X127504762Y-107842857D01*
X127552381Y-107747619D01*
X127552381Y-107557142D01*
X127504762Y-107461904D01*
X127457143Y-107414285D01*
X127361905Y-107366666D01*
X127171429Y-107366666D01*
X127076190Y-107414285D01*
X127028571Y-107461904D01*
X126980952Y-107557142D01*
X126647619Y-106985714D02*
X126600000Y-106938095D01*
X126552381Y-106842857D01*
X126552381Y-106604761D01*
X126600000Y-106509523D01*
X126647619Y-106461904D01*
X126742857Y-106414285D01*
X126838095Y-106414285D01*
X126980952Y-106461904D01*
X127552381Y-107033333D01*
X127552381Y-106414285D01*
X126552381Y-105509523D02*
X126552381Y-105985714D01*
X127028571Y-106033333D01*
X126980952Y-105985714D01*
X126933333Y-105890476D01*
X126933333Y-105652380D01*
X126980952Y-105557142D01*
X127028571Y-105509523D01*
X127123810Y-105461904D01*
X127361905Y-105461904D01*
X127457143Y-105509523D01*
X127504762Y-105557142D01*
X127552381Y-105652380D01*
X127552381Y-105890476D01*
X127504762Y-105985714D01*
X127457143Y-106033333D01*
X127552381Y-104461904D02*
X127076190Y-104795238D01*
X127552381Y-105033333D02*
X126552381Y-105033333D01*
X126552381Y-104652380D01*
X126600000Y-104557142D01*
X126647619Y-104509523D01*
X126742857Y-104461904D01*
X126885714Y-104461904D01*
X126980952Y-104509523D01*
X127028571Y-104557142D01*
X127076190Y-104652380D01*
X127076190Y-105033333D01*
D13*
X125735714Y-106250000D02*
X125592857Y-106350000D01*
X125735714Y-106421428D02*
X125435714Y-106421428D01*
X125435714Y-106307143D01*
X125450000Y-106278571D01*
X125464286Y-106264286D01*
X125492857Y-106250000D01*
X125535714Y-106250000D01*
X125564286Y-106264286D01*
X125578571Y-106278571D01*
X125592857Y-106307143D01*
X125592857Y-106421428D01*
X125735714Y-105964286D02*
X125735714Y-106135714D01*
X125735714Y-106050000D02*
X125435714Y-106050000D01*
X125478571Y-106078571D01*
X125507143Y-106107143D01*
X125521429Y-106135714D01*
D12*
X124552381Y-113042857D02*
X124552381Y-112852381D01*
X124504762Y-112757142D01*
X124457143Y-112709523D01*
X124314286Y-112614285D01*
X124123810Y-112566666D01*
X123742857Y-112566666D01*
X123647619Y-112614285D01*
X123600000Y-112661904D01*
X123552381Y-112757142D01*
X123552381Y-112947619D01*
X123600000Y-113042857D01*
X123647619Y-113090476D01*
X123742857Y-113138095D01*
X123980952Y-113138095D01*
X124076190Y-113090476D01*
X124123810Y-113042857D01*
X124171429Y-112947619D01*
X124171429Y-112757142D01*
X124123810Y-112661904D01*
X124076190Y-112614285D01*
X123980952Y-112566666D01*
X123552381Y-111947619D02*
X123552381Y-111852380D01*
X123600000Y-111757142D01*
X123647619Y-111709523D01*
X123742857Y-111661904D01*
X123933333Y-111614285D01*
X124171429Y-111614285D01*
X124361905Y-111661904D01*
X124457143Y-111709523D01*
X124504762Y-111757142D01*
X124552381Y-111852380D01*
X124552381Y-111947619D01*
X124504762Y-112042857D01*
X124457143Y-112090476D01*
X124361905Y-112138095D01*
X124171429Y-112185714D01*
X123933333Y-112185714D01*
X123742857Y-112138095D01*
X123647619Y-112090476D01*
X123600000Y-112042857D01*
X123552381Y-111947619D01*
X124552381Y-111138095D02*
X124552381Y-110947619D01*
X124504762Y-110852380D01*
X124457143Y-110804761D01*
X124314286Y-110709523D01*
X124123810Y-110661904D01*
X123742857Y-110661904D01*
X123647619Y-110709523D01*
X123600000Y-110757142D01*
X123552381Y-110852380D01*
X123552381Y-111042857D01*
X123600000Y-111138095D01*
X123647619Y-111185714D01*
X123742857Y-111233333D01*
X123980952Y-111233333D01*
X124076190Y-111185714D01*
X124123810Y-111138095D01*
X124171429Y-111042857D01*
X124171429Y-110852380D01*
X124123810Y-110757142D01*
X124076190Y-110709523D01*
X123980952Y-110661904D01*
X124552381Y-109661904D02*
X124076190Y-109995238D01*
X124552381Y-110233333D02*
X123552381Y-110233333D01*
X123552381Y-109852380D01*
X123600000Y-109757142D01*
X123647619Y-109709523D01*
X123742857Y-109661904D01*
X123885714Y-109661904D01*
X123980952Y-109709523D01*
X124028571Y-109757142D01*
X124076190Y-109852380D01*
X124076190Y-110233333D01*
D13*
X125735714Y-111450000D02*
X125592857Y-111550000D01*
X125735714Y-111621428D02*
X125435714Y-111621428D01*
X125435714Y-111507143D01*
X125450000Y-111478571D01*
X125464286Y-111464286D01*
X125492857Y-111450000D01*
X125535714Y-111450000D01*
X125564286Y-111464286D01*
X125578571Y-111478571D01*
X125592857Y-111507143D01*
X125592857Y-111621428D01*
X125464286Y-111335714D02*
X125450000Y-111321428D01*
X125435714Y-111292857D01*
X125435714Y-111221428D01*
X125450000Y-111192857D01*
X125464286Y-111178571D01*
X125492857Y-111164286D01*
X125521429Y-111164286D01*
X125564286Y-111178571D01*
X125735714Y-111350000D01*
X125735714Y-111164286D01*
D12*
X132395239Y-107752381D02*
X131823810Y-107752381D01*
X132109524Y-107752381D02*
X132109524Y-106752381D01*
X132014286Y-106895238D01*
X131919048Y-106990476D01*
X131823810Y-107038095D01*
X132776191Y-106847619D02*
X132823810Y-106800000D01*
X132919048Y-106752381D01*
X133157144Y-106752381D01*
X133252382Y-106800000D01*
X133300001Y-106847619D01*
X133347620Y-106942857D01*
X133347620Y-107038095D01*
X133300001Y-107180952D01*
X132728572Y-107752381D01*
X133347620Y-107752381D01*
X133776191Y-107657143D02*
X133823810Y-107704762D01*
X133776191Y-107752381D01*
X133728572Y-107704762D01*
X133776191Y-107657143D01*
X133776191Y-107752381D01*
X134776191Y-107752381D02*
X134204762Y-107752381D01*
X134490476Y-107752381D02*
X134490476Y-106752381D01*
X134395238Y-106895238D01*
X134300000Y-106990476D01*
X134204762Y-107038095D01*
X135776191Y-107752381D02*
X135442857Y-107276190D01*
X135204762Y-107752381D02*
X135204762Y-106752381D01*
X135585715Y-106752381D01*
X135680953Y-106800000D01*
X135728572Y-106847619D01*
X135776191Y-106942857D01*
X135776191Y-107085714D01*
X135728572Y-107180952D01*
X135680953Y-107228571D01*
X135585715Y-107276190D01*
X135204762Y-107276190D01*
D13*
X133750000Y-108935714D02*
X133650000Y-108792857D01*
X133578572Y-108935714D02*
X133578572Y-108635714D01*
X133692857Y-108635714D01*
X133721429Y-108650000D01*
X133735714Y-108664286D01*
X133750000Y-108692857D01*
X133750000Y-108735714D01*
X133735714Y-108764286D01*
X133721429Y-108778571D01*
X133692857Y-108792857D01*
X133578572Y-108792857D01*
X133850000Y-108635714D02*
X134035714Y-108635714D01*
X133935714Y-108750000D01*
X133978572Y-108750000D01*
X134007143Y-108764286D01*
X134021429Y-108778571D01*
X134035714Y-108807143D01*
X134035714Y-108878571D01*
X134021429Y-108907143D01*
X134007143Y-108921429D01*
X133978572Y-108935714D01*
X133892857Y-108935714D01*
X133864286Y-108921429D01*
X133850000Y-108907143D01*
D12*
X140247619Y-113138095D02*
X140200000Y-113090476D01*
X140152381Y-112995238D01*
X140152381Y-112757142D01*
X140200000Y-112661904D01*
X140247619Y-112614285D01*
X140342857Y-112566666D01*
X140438095Y-112566666D01*
X140580952Y-112614285D01*
X141152381Y-113185714D01*
X141152381Y-112566666D01*
X140485714Y-111709523D02*
X141152381Y-111709523D01*
X140104762Y-111947619D02*
X140819048Y-112185714D01*
X140819048Y-111566666D01*
X140152381Y-111280952D02*
X140152381Y-110661904D01*
X140533333Y-110995238D01*
X140533333Y-110852380D01*
X140580952Y-110757142D01*
X140628571Y-110709523D01*
X140723810Y-110661904D01*
X140961905Y-110661904D01*
X141057143Y-110709523D01*
X141104762Y-110757142D01*
X141152381Y-110852380D01*
X141152381Y-111138095D01*
X141104762Y-111233333D01*
X141057143Y-111280952D01*
X141152381Y-109661904D02*
X140676190Y-109995238D01*
X141152381Y-110233333D02*
X140152381Y-110233333D01*
X140152381Y-109852380D01*
X140200000Y-109757142D01*
X140247619Y-109709523D01*
X140342857Y-109661904D01*
X140485714Y-109661904D01*
X140580952Y-109709523D01*
X140628571Y-109757142D01*
X140676190Y-109852380D01*
X140676190Y-110233333D01*
D13*
X142335714Y-111450000D02*
X142192857Y-111550000D01*
X142335714Y-111621428D02*
X142035714Y-111621428D01*
X142035714Y-111507143D01*
X142050000Y-111478571D01*
X142064286Y-111464286D01*
X142092857Y-111450000D01*
X142135714Y-111450000D01*
X142164286Y-111464286D01*
X142178571Y-111478571D01*
X142192857Y-111507143D01*
X142192857Y-111621428D01*
X142135714Y-111192857D02*
X142335714Y-111192857D01*
X142021429Y-111264286D02*
X142235714Y-111335714D01*
X142235714Y-111150000D01*
D12*
X128261905Y-70047619D02*
X128309524Y-70000000D01*
X128404762Y-69952381D01*
X128642858Y-69952381D01*
X128738096Y-70000000D01*
X128785715Y-70047619D01*
X128833334Y-70142857D01*
X128833334Y-70238095D01*
X128785715Y-70380952D01*
X128214286Y-70952381D01*
X128833334Y-70952381D01*
X129690477Y-69952381D02*
X129500000Y-69952381D01*
X129404762Y-70000000D01*
X129357143Y-70047619D01*
X129261905Y-70190476D01*
X129214286Y-70380952D01*
X129214286Y-70761905D01*
X129261905Y-70857143D01*
X129309524Y-70904762D01*
X129404762Y-70952381D01*
X129595239Y-70952381D01*
X129690477Y-70904762D01*
X129738096Y-70857143D01*
X129785715Y-70761905D01*
X129785715Y-70523810D01*
X129738096Y-70428571D01*
X129690477Y-70380952D01*
X129595239Y-70333333D01*
X129404762Y-70333333D01*
X129309524Y-70380952D01*
X129261905Y-70428571D01*
X129214286Y-70523810D01*
X130738096Y-70952381D02*
X130166667Y-70952381D01*
X130452381Y-70952381D02*
X130452381Y-69952381D01*
X130357143Y-70095238D01*
X130261905Y-70190476D01*
X130166667Y-70238095D01*
X131738096Y-70952381D02*
X131404762Y-70476190D01*
X131166667Y-70952381D02*
X131166667Y-69952381D01*
X131547620Y-69952381D01*
X131642858Y-70000000D01*
X131690477Y-70047619D01*
X131738096Y-70142857D01*
X131738096Y-70285714D01*
X131690477Y-70380952D01*
X131642858Y-70428571D01*
X131547620Y-70476190D01*
X131166667Y-70476190D01*
D13*
X129950000Y-72135714D02*
X129850000Y-71992857D01*
X129778572Y-72135714D02*
X129778572Y-71835714D01*
X129892857Y-71835714D01*
X129921429Y-71850000D01*
X129935714Y-71864286D01*
X129950000Y-71892857D01*
X129950000Y-71935714D01*
X129935714Y-71964286D01*
X129921429Y-71978571D01*
X129892857Y-71992857D01*
X129778572Y-71992857D01*
X130221429Y-71835714D02*
X130078572Y-71835714D01*
X130064286Y-71978571D01*
X130078572Y-71964286D01*
X130107143Y-71950000D01*
X130178572Y-71950000D01*
X130207143Y-71964286D01*
X130221429Y-71978571D01*
X130235714Y-72007143D01*
X130235714Y-72078571D01*
X130221429Y-72107143D01*
X130207143Y-72121429D01*
X130178572Y-72135714D01*
X130107143Y-72135714D01*
X130078572Y-72121429D01*
X130064286Y-72107143D01*
D12*
X143247619Y-107938095D02*
X143200000Y-107890476D01*
X143152381Y-107795238D01*
X143152381Y-107557142D01*
X143200000Y-107461904D01*
X143247619Y-107414285D01*
X143342857Y-107366666D01*
X143438095Y-107366666D01*
X143580952Y-107414285D01*
X144152381Y-107985714D01*
X144152381Y-107366666D01*
X143152381Y-107033333D02*
X143152381Y-106366666D01*
X144152381Y-106795238D01*
X143485714Y-105557142D02*
X144152381Y-105557142D01*
X143104762Y-105795238D02*
X143819048Y-106033333D01*
X143819048Y-105414285D01*
X144152381Y-104461904D02*
X143676190Y-104795238D01*
X144152381Y-105033333D02*
X143152381Y-105033333D01*
X143152381Y-104652380D01*
X143200000Y-104557142D01*
X143247619Y-104509523D01*
X143342857Y-104461904D01*
X143485714Y-104461904D01*
X143580952Y-104509523D01*
X143628571Y-104557142D01*
X143676190Y-104652380D01*
X143676190Y-105033333D01*
D13*
X142335714Y-106250000D02*
X142192857Y-106350000D01*
X142335714Y-106421428D02*
X142035714Y-106421428D01*
X142035714Y-106307143D01*
X142050000Y-106278571D01*
X142064286Y-106264286D01*
X142092857Y-106250000D01*
X142135714Y-106250000D01*
X142164286Y-106264286D01*
X142178571Y-106278571D01*
X142192857Y-106307143D01*
X142192857Y-106421428D01*
X142035714Y-105992857D02*
X142035714Y-106050000D01*
X142050000Y-106078571D01*
X142064286Y-106092857D01*
X142107143Y-106121428D01*
X142164286Y-106135714D01*
X142278571Y-106135714D01*
X142307143Y-106121428D01*
X142321429Y-106107143D01*
X142335714Y-106078571D01*
X142335714Y-106021428D01*
X142321429Y-105992857D01*
X142307143Y-105978571D01*
X142278571Y-105964286D01*
X142207143Y-105964286D01*
X142178571Y-105978571D01*
X142164286Y-105992857D01*
X142150000Y-106021428D01*
X142150000Y-106078571D01*
X142164286Y-106107143D01*
X142178571Y-106121428D01*
X142207143Y-106135714D01*
D12*
X143176191Y-106752381D02*
X143795239Y-106752381D01*
X143461905Y-107133333D01*
X143604763Y-107133333D01*
X143700001Y-107180952D01*
X143747620Y-107228571D01*
X143795239Y-107323810D01*
X143795239Y-107561905D01*
X143747620Y-107657143D01*
X143700001Y-107704762D01*
X143604763Y-107752381D01*
X143319048Y-107752381D01*
X143223810Y-107704762D01*
X143176191Y-107657143D01*
X144414286Y-106752381D02*
X144509525Y-106752381D01*
X144604763Y-106800000D01*
X144652382Y-106847619D01*
X144700001Y-106942857D01*
X144747620Y-107133333D01*
X144747620Y-107371429D01*
X144700001Y-107561905D01*
X144652382Y-107657143D01*
X144604763Y-107704762D01*
X144509525Y-107752381D01*
X144414286Y-107752381D01*
X144319048Y-107704762D01*
X144271429Y-107657143D01*
X144223810Y-107561905D01*
X144176191Y-107371429D01*
X144176191Y-107133333D01*
X144223810Y-106942857D01*
X144271429Y-106847619D01*
X144319048Y-106800000D01*
X144414286Y-106752381D01*
X145176191Y-107657143D02*
X145223810Y-107704762D01*
X145176191Y-107752381D01*
X145128572Y-107704762D01*
X145176191Y-107657143D01*
X145176191Y-107752381D01*
X146176191Y-107752381D02*
X145604762Y-107752381D01*
X145890476Y-107752381D02*
X145890476Y-106752381D01*
X145795238Y-106895238D01*
X145700000Y-106990476D01*
X145604762Y-107038095D01*
X147176191Y-107752381D02*
X146842857Y-107276190D01*
X146604762Y-107752381D02*
X146604762Y-106752381D01*
X146985715Y-106752381D01*
X147080953Y-106800000D01*
X147128572Y-106847619D01*
X147176191Y-106942857D01*
X147176191Y-107085714D01*
X147128572Y-107180952D01*
X147080953Y-107228571D01*
X146985715Y-107276190D01*
X146604762Y-107276190D01*
D13*
X145150000Y-108935714D02*
X145050000Y-108792857D01*
X144978572Y-108935714D02*
X144978572Y-108635714D01*
X145092857Y-108635714D01*
X145121429Y-108650000D01*
X145135714Y-108664286D01*
X145150000Y-108692857D01*
X145150000Y-108735714D01*
X145135714Y-108764286D01*
X145121429Y-108778571D01*
X145092857Y-108792857D01*
X144978572Y-108792857D01*
X145250000Y-108635714D02*
X145450000Y-108635714D01*
X145321429Y-108935714D01*
D12*
X140211905Y-70047619D02*
X140259524Y-70000000D01*
X140354762Y-69952381D01*
X140592858Y-69952381D01*
X140688096Y-70000000D01*
X140735715Y-70047619D01*
X140783334Y-70142857D01*
X140783334Y-70238095D01*
X140735715Y-70380952D01*
X140164286Y-70952381D01*
X140783334Y-70952381D01*
X141640477Y-69952381D02*
X141450000Y-69952381D01*
X141354762Y-70000000D01*
X141307143Y-70047619D01*
X141211905Y-70190476D01*
X141164286Y-70380952D01*
X141164286Y-70761905D01*
X141211905Y-70857143D01*
X141259524Y-70904762D01*
X141354762Y-70952381D01*
X141545239Y-70952381D01*
X141640477Y-70904762D01*
X141688096Y-70857143D01*
X141735715Y-70761905D01*
X141735715Y-70523810D01*
X141688096Y-70428571D01*
X141640477Y-70380952D01*
X141545239Y-70333333D01*
X141354762Y-70333333D01*
X141259524Y-70380952D01*
X141211905Y-70428571D01*
X141164286Y-70523810D01*
X142688096Y-70952381D02*
X142116667Y-70952381D01*
X142402381Y-70952381D02*
X142402381Y-69952381D01*
X142307143Y-70095238D01*
X142211905Y-70190476D01*
X142116667Y-70238095D01*
X143688096Y-70952381D02*
X143354762Y-70476190D01*
X143116667Y-70952381D02*
X143116667Y-69952381D01*
X143497620Y-69952381D01*
X143592858Y-70000000D01*
X143640477Y-70047619D01*
X143688096Y-70142857D01*
X143688096Y-70285714D01*
X143640477Y-70380952D01*
X143592858Y-70428571D01*
X143497620Y-70476190D01*
X143116667Y-70476190D01*
D13*
X141900000Y-72135714D02*
X141800000Y-71992857D01*
X141728572Y-72135714D02*
X141728572Y-71835714D01*
X141842857Y-71835714D01*
X141871429Y-71850000D01*
X141885714Y-71864286D01*
X141900000Y-71892857D01*
X141900000Y-71935714D01*
X141885714Y-71964286D01*
X141871429Y-71978571D01*
X141842857Y-71992857D01*
X141728572Y-71992857D01*
X142071429Y-71964286D02*
X142042857Y-71950000D01*
X142028572Y-71935714D01*
X142014286Y-71907143D01*
X142014286Y-71892857D01*
X142028572Y-71864286D01*
X142042857Y-71850000D01*
X142071429Y-71835714D01*
X142128572Y-71835714D01*
X142157143Y-71850000D01*
X142171429Y-71864286D01*
X142185714Y-71892857D01*
X142185714Y-71907143D01*
X142171429Y-71935714D01*
X142157143Y-71950000D01*
X142128572Y-71964286D01*
X142071429Y-71964286D01*
X142042857Y-71978571D01*
X142028572Y-71992857D01*
X142014286Y-72021429D01*
X142014286Y-72078571D01*
X142028572Y-72107143D01*
X142042857Y-72121429D01*
X142071429Y-72135714D01*
X142128572Y-72135714D01*
X142157143Y-72121429D01*
X142171429Y-72107143D01*
X142185714Y-72078571D01*
X142185714Y-72021429D01*
X142171429Y-71992857D01*
X142157143Y-71978571D01*
X142128572Y-71964286D01*
D12*
X146485714Y-112661904D02*
X147152381Y-112661904D01*
X146104762Y-112900000D02*
X146819048Y-113138095D01*
X146819048Y-112519047D01*
X146152381Y-112233333D02*
X146152381Y-111614285D01*
X146533333Y-111947619D01*
X146533333Y-111804761D01*
X146580952Y-111709523D01*
X146628571Y-111661904D01*
X146723810Y-111614285D01*
X146961905Y-111614285D01*
X147057143Y-111661904D01*
X147104762Y-111709523D01*
X147152381Y-111804761D01*
X147152381Y-112090476D01*
X147104762Y-112185714D01*
X147057143Y-112233333D01*
X146247619Y-111233333D02*
X146200000Y-111185714D01*
X146152381Y-111090476D01*
X146152381Y-110852380D01*
X146200000Y-110757142D01*
X146247619Y-110709523D01*
X146342857Y-110661904D01*
X146438095Y-110661904D01*
X146580952Y-110709523D01*
X147152381Y-111280952D01*
X147152381Y-110661904D01*
X147152381Y-109661904D02*
X146676190Y-109995238D01*
X147152381Y-110233333D02*
X146152381Y-110233333D01*
X146152381Y-109852380D01*
X146200000Y-109757142D01*
X146247619Y-109709523D01*
X146342857Y-109661904D01*
X146485714Y-109661904D01*
X146580952Y-109709523D01*
X146628571Y-109757142D01*
X146676190Y-109852380D01*
X146676190Y-110233333D01*
D13*
X148335714Y-111450000D02*
X148192857Y-111550000D01*
X148335714Y-111621428D02*
X148035714Y-111621428D01*
X148035714Y-111507143D01*
X148050000Y-111478571D01*
X148064286Y-111464286D01*
X148092857Y-111450000D01*
X148135714Y-111450000D01*
X148164286Y-111464286D01*
X148178571Y-111478571D01*
X148192857Y-111507143D01*
X148192857Y-111621428D01*
X148335714Y-111307143D02*
X148335714Y-111250000D01*
X148321429Y-111221428D01*
X148307143Y-111207143D01*
X148264286Y-111178571D01*
X148207143Y-111164286D01*
X148092857Y-111164286D01*
X148064286Y-111178571D01*
X148050000Y-111192857D01*
X148035714Y-111221428D01*
X148035714Y-111278571D01*
X148050000Y-111307143D01*
X148064286Y-111321428D01*
X148092857Y-111335714D01*
X148164286Y-111335714D01*
X148192857Y-111321428D01*
X148207143Y-111307143D01*
X148221429Y-111278571D01*
X148221429Y-111221428D01*
X148207143Y-111192857D01*
X148192857Y-111178571D01*
X148164286Y-111164286D01*
D12*
X149485714Y-107461904D02*
X150152381Y-107461904D01*
X149104762Y-107700000D02*
X149819048Y-107938095D01*
X149819048Y-107319047D01*
X149152381Y-107033333D02*
X149152381Y-106414285D01*
X149533333Y-106747619D01*
X149533333Y-106604761D01*
X149580952Y-106509523D01*
X149628571Y-106461904D01*
X149723810Y-106414285D01*
X149961905Y-106414285D01*
X150057143Y-106461904D01*
X150104762Y-106509523D01*
X150152381Y-106604761D01*
X150152381Y-106890476D01*
X150104762Y-106985714D01*
X150057143Y-107033333D01*
X149247619Y-106033333D02*
X149200000Y-105985714D01*
X149152381Y-105890476D01*
X149152381Y-105652380D01*
X149200000Y-105557142D01*
X149247619Y-105509523D01*
X149342857Y-105461904D01*
X149438095Y-105461904D01*
X149580952Y-105509523D01*
X150152381Y-106080952D01*
X150152381Y-105461904D01*
X150152381Y-104461904D02*
X149676190Y-104795238D01*
X150152381Y-105033333D02*
X149152381Y-105033333D01*
X149152381Y-104652380D01*
X149200000Y-104557142D01*
X149247619Y-104509523D01*
X149342857Y-104461904D01*
X149485714Y-104461904D01*
X149580952Y-104509523D01*
X149628571Y-104557142D01*
X149676190Y-104652380D01*
X149676190Y-105033333D01*
D13*
X148335714Y-106392857D02*
X148192857Y-106492857D01*
X148335714Y-106564285D02*
X148035714Y-106564285D01*
X148035714Y-106450000D01*
X148050000Y-106421428D01*
X148064286Y-106407143D01*
X148092857Y-106392857D01*
X148135714Y-106392857D01*
X148164286Y-106407143D01*
X148178571Y-106421428D01*
X148192857Y-106450000D01*
X148192857Y-106564285D01*
X148335714Y-106107143D02*
X148335714Y-106278571D01*
X148335714Y-106192857D02*
X148035714Y-106192857D01*
X148078571Y-106221428D01*
X148107143Y-106250000D01*
X148121429Y-106278571D01*
X148035714Y-105921429D02*
X148035714Y-105892857D01*
X148050000Y-105864286D01*
X148064286Y-105850000D01*
X148092857Y-105835714D01*
X148150000Y-105821429D01*
X148221429Y-105821429D01*
X148278571Y-105835714D01*
X148307143Y-105850000D01*
X148321429Y-105864286D01*
X148335714Y-105892857D01*
X148335714Y-105921429D01*
X148321429Y-105950000D01*
X148307143Y-105964286D01*
X148278571Y-105978571D01*
X148221429Y-105992857D01*
X148150000Y-105992857D01*
X148092857Y-105978571D01*
X148064286Y-105964286D01*
X148050000Y-105950000D01*
X148035714Y-105921429D01*
D12*
X152211905Y-70047619D02*
X152259524Y-70000000D01*
X152354762Y-69952381D01*
X152592858Y-69952381D01*
X152688096Y-70000000D01*
X152735715Y-70047619D01*
X152783334Y-70142857D01*
X152783334Y-70238095D01*
X152735715Y-70380952D01*
X152164286Y-70952381D01*
X152783334Y-70952381D01*
X153640477Y-69952381D02*
X153450000Y-69952381D01*
X153354762Y-70000000D01*
X153307143Y-70047619D01*
X153211905Y-70190476D01*
X153164286Y-70380952D01*
X153164286Y-70761905D01*
X153211905Y-70857143D01*
X153259524Y-70904762D01*
X153354762Y-70952381D01*
X153545239Y-70952381D01*
X153640477Y-70904762D01*
X153688096Y-70857143D01*
X153735715Y-70761905D01*
X153735715Y-70523810D01*
X153688096Y-70428571D01*
X153640477Y-70380952D01*
X153545239Y-70333333D01*
X153354762Y-70333333D01*
X153259524Y-70380952D01*
X153211905Y-70428571D01*
X153164286Y-70523810D01*
X154688096Y-70952381D02*
X154116667Y-70952381D01*
X154402381Y-70952381D02*
X154402381Y-69952381D01*
X154307143Y-70095238D01*
X154211905Y-70190476D01*
X154116667Y-70238095D01*
X155688096Y-70952381D02*
X155354762Y-70476190D01*
X155116667Y-70952381D02*
X155116667Y-69952381D01*
X155497620Y-69952381D01*
X155592858Y-70000000D01*
X155640477Y-70047619D01*
X155688096Y-70142857D01*
X155688096Y-70285714D01*
X155640477Y-70380952D01*
X155592858Y-70428571D01*
X155497620Y-70476190D01*
X155116667Y-70476190D01*
D13*
X153757143Y-72135714D02*
X153657143Y-71992857D01*
X153585715Y-72135714D02*
X153585715Y-71835714D01*
X153700000Y-71835714D01*
X153728572Y-71850000D01*
X153742857Y-71864286D01*
X153757143Y-71892857D01*
X153757143Y-71935714D01*
X153742857Y-71964286D01*
X153728572Y-71978571D01*
X153700000Y-71992857D01*
X153585715Y-71992857D01*
X154042857Y-72135714D02*
X153871429Y-72135714D01*
X153957143Y-72135714D02*
X153957143Y-71835714D01*
X153928572Y-71878571D01*
X153900000Y-71907143D01*
X153871429Y-71921429D01*
X154328571Y-72135714D02*
X154157143Y-72135714D01*
X154242857Y-72135714D02*
X154242857Y-71835714D01*
X154214286Y-71878571D01*
X154185714Y-71907143D01*
X154157143Y-71921429D01*
D12*
X164211905Y-70047619D02*
X164259524Y-70000000D01*
X164354762Y-69952381D01*
X164592858Y-69952381D01*
X164688096Y-70000000D01*
X164735715Y-70047619D01*
X164783334Y-70142857D01*
X164783334Y-70238095D01*
X164735715Y-70380952D01*
X164164286Y-70952381D01*
X164783334Y-70952381D01*
X165640477Y-69952381D02*
X165450000Y-69952381D01*
X165354762Y-70000000D01*
X165307143Y-70047619D01*
X165211905Y-70190476D01*
X165164286Y-70380952D01*
X165164286Y-70761905D01*
X165211905Y-70857143D01*
X165259524Y-70904762D01*
X165354762Y-70952381D01*
X165545239Y-70952381D01*
X165640477Y-70904762D01*
X165688096Y-70857143D01*
X165735715Y-70761905D01*
X165735715Y-70523810D01*
X165688096Y-70428571D01*
X165640477Y-70380952D01*
X165545239Y-70333333D01*
X165354762Y-70333333D01*
X165259524Y-70380952D01*
X165211905Y-70428571D01*
X165164286Y-70523810D01*
X166688096Y-70952381D02*
X166116667Y-70952381D01*
X166402381Y-70952381D02*
X166402381Y-69952381D01*
X166307143Y-70095238D01*
X166211905Y-70190476D01*
X166116667Y-70238095D01*
X167688096Y-70952381D02*
X167354762Y-70476190D01*
X167116667Y-70952381D02*
X167116667Y-69952381D01*
X167497620Y-69952381D01*
X167592858Y-70000000D01*
X167640477Y-70047619D01*
X167688096Y-70142857D01*
X167688096Y-70285714D01*
X167640477Y-70380952D01*
X167592858Y-70428571D01*
X167497620Y-70476190D01*
X167116667Y-70476190D01*
D13*
X165757143Y-72135714D02*
X165657143Y-71992857D01*
X165585715Y-72135714D02*
X165585715Y-71835714D01*
X165700000Y-71835714D01*
X165728572Y-71850000D01*
X165742857Y-71864286D01*
X165757143Y-71892857D01*
X165757143Y-71935714D01*
X165742857Y-71964286D01*
X165728572Y-71978571D01*
X165700000Y-71992857D01*
X165585715Y-71992857D01*
X166042857Y-72135714D02*
X165871429Y-72135714D01*
X165957143Y-72135714D02*
X165957143Y-71835714D01*
X165928572Y-71878571D01*
X165900000Y-71907143D01*
X165871429Y-71921429D01*
X166157143Y-71864286D02*
X166171429Y-71850000D01*
X166200000Y-71835714D01*
X166271429Y-71835714D01*
X166300000Y-71850000D01*
X166314286Y-71864286D01*
X166328571Y-71892857D01*
X166328571Y-71921429D01*
X166314286Y-71964286D01*
X166142857Y-72135714D01*
X166328571Y-72135714D01*
D12*
X176261905Y-70047619D02*
X176309524Y-70000000D01*
X176404762Y-69952381D01*
X176642858Y-69952381D01*
X176738096Y-70000000D01*
X176785715Y-70047619D01*
X176833334Y-70142857D01*
X176833334Y-70238095D01*
X176785715Y-70380952D01*
X176214286Y-70952381D01*
X176833334Y-70952381D01*
X177690477Y-69952381D02*
X177500000Y-69952381D01*
X177404762Y-70000000D01*
X177357143Y-70047619D01*
X177261905Y-70190476D01*
X177214286Y-70380952D01*
X177214286Y-70761905D01*
X177261905Y-70857143D01*
X177309524Y-70904762D01*
X177404762Y-70952381D01*
X177595239Y-70952381D01*
X177690477Y-70904762D01*
X177738096Y-70857143D01*
X177785715Y-70761905D01*
X177785715Y-70523810D01*
X177738096Y-70428571D01*
X177690477Y-70380952D01*
X177595239Y-70333333D01*
X177404762Y-70333333D01*
X177309524Y-70380952D01*
X177261905Y-70428571D01*
X177214286Y-70523810D01*
X178738096Y-70952381D02*
X178166667Y-70952381D01*
X178452381Y-70952381D02*
X178452381Y-69952381D01*
X178357143Y-70095238D01*
X178261905Y-70190476D01*
X178166667Y-70238095D01*
X179738096Y-70952381D02*
X179404762Y-70476190D01*
X179166667Y-70952381D02*
X179166667Y-69952381D01*
X179547620Y-69952381D01*
X179642858Y-70000000D01*
X179690477Y-70047619D01*
X179738096Y-70142857D01*
X179738096Y-70285714D01*
X179690477Y-70380952D01*
X179642858Y-70428571D01*
X179547620Y-70476190D01*
X179166667Y-70476190D01*
D13*
X177807143Y-72135714D02*
X177707143Y-71992857D01*
X177635715Y-72135714D02*
X177635715Y-71835714D01*
X177750000Y-71835714D01*
X177778572Y-71850000D01*
X177792857Y-71864286D01*
X177807143Y-71892857D01*
X177807143Y-71935714D01*
X177792857Y-71964286D01*
X177778572Y-71978571D01*
X177750000Y-71992857D01*
X177635715Y-71992857D01*
X178092857Y-72135714D02*
X177921429Y-72135714D01*
X178007143Y-72135714D02*
X178007143Y-71835714D01*
X177978572Y-71878571D01*
X177950000Y-71907143D01*
X177921429Y-71921429D01*
X178192857Y-71835714D02*
X178378571Y-71835714D01*
X178278571Y-71950000D01*
X178321429Y-71950000D01*
X178350000Y-71964286D01*
X178364286Y-71978571D01*
X178378571Y-72007143D01*
X178378571Y-72078571D01*
X178364286Y-72107143D01*
X178350000Y-72121429D01*
X178321429Y-72135714D01*
X178235714Y-72135714D01*
X178207143Y-72121429D01*
X178192857Y-72107143D01*
D12*
X161685714Y-112661904D02*
X162352381Y-112661904D01*
X161304762Y-112900000D02*
X162019048Y-113138095D01*
X162019048Y-112519047D01*
X161352381Y-112233333D02*
X161352381Y-111614285D01*
X161733333Y-111947619D01*
X161733333Y-111804761D01*
X161780952Y-111709523D01*
X161828571Y-111661904D01*
X161923810Y-111614285D01*
X162161905Y-111614285D01*
X162257143Y-111661904D01*
X162304762Y-111709523D01*
X162352381Y-111804761D01*
X162352381Y-112090476D01*
X162304762Y-112185714D01*
X162257143Y-112233333D01*
X161447619Y-111233333D02*
X161400000Y-111185714D01*
X161352381Y-111090476D01*
X161352381Y-110852380D01*
X161400000Y-110757142D01*
X161447619Y-110709523D01*
X161542857Y-110661904D01*
X161638095Y-110661904D01*
X161780952Y-110709523D01*
X162352381Y-111280952D01*
X162352381Y-110661904D01*
X162352381Y-109661904D02*
X161876190Y-109995238D01*
X162352381Y-110233333D02*
X161352381Y-110233333D01*
X161352381Y-109852380D01*
X161400000Y-109757142D01*
X161447619Y-109709523D01*
X161542857Y-109661904D01*
X161685714Y-109661904D01*
X161780952Y-109709523D01*
X161828571Y-109757142D01*
X161876190Y-109852380D01*
X161876190Y-110233333D01*
D13*
X163535714Y-111592857D02*
X163392857Y-111692857D01*
X163535714Y-111764285D02*
X163235714Y-111764285D01*
X163235714Y-111650000D01*
X163250000Y-111621428D01*
X163264286Y-111607143D01*
X163292857Y-111592857D01*
X163335714Y-111592857D01*
X163364286Y-111607143D01*
X163378571Y-111621428D01*
X163392857Y-111650000D01*
X163392857Y-111764285D01*
X163535714Y-111307143D02*
X163535714Y-111478571D01*
X163535714Y-111392857D02*
X163235714Y-111392857D01*
X163278571Y-111421428D01*
X163307143Y-111450000D01*
X163321429Y-111478571D01*
X163335714Y-111050000D02*
X163535714Y-111050000D01*
X163221429Y-111121429D02*
X163435714Y-111192857D01*
X163435714Y-111007143D01*
D12*
X164685714Y-107461904D02*
X165352381Y-107461904D01*
X164304762Y-107700000D02*
X165019048Y-107938095D01*
X165019048Y-107319047D01*
X164352381Y-107033333D02*
X164352381Y-106414285D01*
X164733333Y-106747619D01*
X164733333Y-106604761D01*
X164780952Y-106509523D01*
X164828571Y-106461904D01*
X164923810Y-106414285D01*
X165161905Y-106414285D01*
X165257143Y-106461904D01*
X165304762Y-106509523D01*
X165352381Y-106604761D01*
X165352381Y-106890476D01*
X165304762Y-106985714D01*
X165257143Y-107033333D01*
X164447619Y-106033333D02*
X164400000Y-105985714D01*
X164352381Y-105890476D01*
X164352381Y-105652380D01*
X164400000Y-105557142D01*
X164447619Y-105509523D01*
X164542857Y-105461904D01*
X164638095Y-105461904D01*
X164780952Y-105509523D01*
X165352381Y-106080952D01*
X165352381Y-105461904D01*
X165352381Y-104461904D02*
X164876190Y-104795238D01*
X165352381Y-105033333D02*
X164352381Y-105033333D01*
X164352381Y-104652380D01*
X164400000Y-104557142D01*
X164447619Y-104509523D01*
X164542857Y-104461904D01*
X164685714Y-104461904D01*
X164780952Y-104509523D01*
X164828571Y-104557142D01*
X164876190Y-104652380D01*
X164876190Y-105033333D01*
D13*
X163535714Y-106392857D02*
X163392857Y-106492857D01*
X163535714Y-106564285D02*
X163235714Y-106564285D01*
X163235714Y-106450000D01*
X163250000Y-106421428D01*
X163264286Y-106407143D01*
X163292857Y-106392857D01*
X163335714Y-106392857D01*
X163364286Y-106407143D01*
X163378571Y-106421428D01*
X163392857Y-106450000D01*
X163392857Y-106564285D01*
X163535714Y-106107143D02*
X163535714Y-106278571D01*
X163535714Y-106192857D02*
X163235714Y-106192857D01*
X163278571Y-106221428D01*
X163307143Y-106250000D01*
X163321429Y-106278571D01*
X163235714Y-105835714D02*
X163235714Y-105978571D01*
X163378571Y-105992857D01*
X163364286Y-105978571D01*
X163350000Y-105950000D01*
X163350000Y-105878571D01*
X163364286Y-105850000D01*
X163378571Y-105835714D01*
X163407143Y-105821429D01*
X163478571Y-105821429D01*
X163507143Y-105835714D01*
X163521429Y-105850000D01*
X163535714Y-105878571D01*
X163535714Y-105950000D01*
X163521429Y-105978571D01*
X163507143Y-105992857D01*
D12*
X165195239Y-107752381D02*
X164623810Y-107752381D01*
X164909524Y-107752381D02*
X164909524Y-106752381D01*
X164814286Y-106895238D01*
X164719048Y-106990476D01*
X164623810Y-107038095D01*
X165766667Y-107180952D02*
X165671429Y-107133333D01*
X165623810Y-107085714D01*
X165576191Y-106990476D01*
X165576191Y-106942857D01*
X165623810Y-106847619D01*
X165671429Y-106800000D01*
X165766667Y-106752381D01*
X165957144Y-106752381D01*
X166052382Y-106800000D01*
X166100001Y-106847619D01*
X166147620Y-106942857D01*
X166147620Y-106990476D01*
X166100001Y-107085714D01*
X166052382Y-107133333D01*
X165957144Y-107180952D01*
X165766667Y-107180952D01*
X165671429Y-107228571D01*
X165623810Y-107276190D01*
X165576191Y-107371429D01*
X165576191Y-107561905D01*
X165623810Y-107657143D01*
X165671429Y-107704762D01*
X165766667Y-107752381D01*
X165957144Y-107752381D01*
X166052382Y-107704762D01*
X166100001Y-107657143D01*
X166147620Y-107561905D01*
X166147620Y-107371429D01*
X166100001Y-107276190D01*
X166052382Y-107228571D01*
X165957144Y-107180952D01*
X166576191Y-107657143D02*
X166623810Y-107704762D01*
X166576191Y-107752381D01*
X166528572Y-107704762D01*
X166576191Y-107657143D01*
X166576191Y-107752381D01*
X167004762Y-106847619D02*
X167052381Y-106800000D01*
X167147619Y-106752381D01*
X167385715Y-106752381D01*
X167480953Y-106800000D01*
X167528572Y-106847619D01*
X167576191Y-106942857D01*
X167576191Y-107038095D01*
X167528572Y-107180952D01*
X166957143Y-107752381D01*
X167576191Y-107752381D01*
X168576191Y-107752381D02*
X168242857Y-107276190D01*
X168004762Y-107752381D02*
X168004762Y-106752381D01*
X168385715Y-106752381D01*
X168480953Y-106800000D01*
X168528572Y-106847619D01*
X168576191Y-106942857D01*
X168576191Y-107085714D01*
X168528572Y-107180952D01*
X168480953Y-107228571D01*
X168385715Y-107276190D01*
X168004762Y-107276190D01*
D13*
X166407143Y-108935714D02*
X166307143Y-108792857D01*
X166235715Y-108935714D02*
X166235715Y-108635714D01*
X166350000Y-108635714D01*
X166378572Y-108650000D01*
X166392857Y-108664286D01*
X166407143Y-108692857D01*
X166407143Y-108735714D01*
X166392857Y-108764286D01*
X166378572Y-108778571D01*
X166350000Y-108792857D01*
X166235715Y-108792857D01*
X166692857Y-108935714D02*
X166521429Y-108935714D01*
X166607143Y-108935714D02*
X166607143Y-108635714D01*
X166578572Y-108678571D01*
X166550000Y-108707143D01*
X166521429Y-108721429D01*
X166950000Y-108635714D02*
X166892857Y-108635714D01*
X166864286Y-108650000D01*
X166850000Y-108664286D01*
X166821429Y-108707143D01*
X166807143Y-108764286D01*
X166807143Y-108878571D01*
X166821429Y-108907143D01*
X166835714Y-108921429D01*
X166864286Y-108935714D01*
X166921429Y-108935714D01*
X166950000Y-108921429D01*
X166964286Y-108907143D01*
X166978571Y-108878571D01*
X166978571Y-108807143D01*
X166964286Y-108778571D01*
X166950000Y-108764286D01*
X166921429Y-108750000D01*
X166864286Y-108750000D01*
X166835714Y-108764286D01*
X166821429Y-108778571D01*
X166807143Y-108807143D01*
D12*
X167952381Y-112614285D02*
X167952381Y-113090476D01*
X168428571Y-113138095D01*
X168380952Y-113090476D01*
X168333333Y-112995238D01*
X168333333Y-112757142D01*
X168380952Y-112661904D01*
X168428571Y-112614285D01*
X168523810Y-112566666D01*
X168761905Y-112566666D01*
X168857143Y-112614285D01*
X168904762Y-112661904D01*
X168952381Y-112757142D01*
X168952381Y-112995238D01*
X168904762Y-113090476D01*
X168857143Y-113138095D01*
X167952381Y-111709523D02*
X167952381Y-111900000D01*
X168000000Y-111995238D01*
X168047619Y-112042857D01*
X168190476Y-112138095D01*
X168380952Y-112185714D01*
X168761905Y-112185714D01*
X168857143Y-112138095D01*
X168904762Y-112090476D01*
X168952381Y-111995238D01*
X168952381Y-111804761D01*
X168904762Y-111709523D01*
X168857143Y-111661904D01*
X168761905Y-111614285D01*
X168523810Y-111614285D01*
X168428571Y-111661904D01*
X168380952Y-111709523D01*
X168333333Y-111804761D01*
X168333333Y-111995238D01*
X168380952Y-112090476D01*
X168428571Y-112138095D01*
X168523810Y-112185714D01*
X168047619Y-111233333D02*
X168000000Y-111185714D01*
X167952381Y-111090476D01*
X167952381Y-110852380D01*
X168000000Y-110757142D01*
X168047619Y-110709523D01*
X168142857Y-110661904D01*
X168238095Y-110661904D01*
X168380952Y-110709523D01*
X168952381Y-111280952D01*
X168952381Y-110661904D01*
X168952381Y-109661904D02*
X168476190Y-109995238D01*
X168952381Y-110233333D02*
X167952381Y-110233333D01*
X167952381Y-109852380D01*
X168000000Y-109757142D01*
X168047619Y-109709523D01*
X168142857Y-109661904D01*
X168285714Y-109661904D01*
X168380952Y-109709523D01*
X168428571Y-109757142D01*
X168476190Y-109852380D01*
X168476190Y-110233333D01*
D13*
X170135714Y-111592857D02*
X169992857Y-111692857D01*
X170135714Y-111764285D02*
X169835714Y-111764285D01*
X169835714Y-111650000D01*
X169850000Y-111621428D01*
X169864286Y-111607143D01*
X169892857Y-111592857D01*
X169935714Y-111592857D01*
X169964286Y-111607143D01*
X169978571Y-111621428D01*
X169992857Y-111650000D01*
X169992857Y-111764285D01*
X170135714Y-111307143D02*
X170135714Y-111478571D01*
X170135714Y-111392857D02*
X169835714Y-111392857D01*
X169878571Y-111421428D01*
X169907143Y-111450000D01*
X169921429Y-111478571D01*
X169835714Y-111207143D02*
X169835714Y-111007143D01*
X170135714Y-111135714D01*
D12*
X170952381Y-107461904D02*
X170952381Y-107652381D01*
X171000000Y-107747619D01*
X171047619Y-107795238D01*
X171190476Y-107890476D01*
X171380952Y-107938095D01*
X171761905Y-107938095D01*
X171857143Y-107890476D01*
X171904762Y-107842857D01*
X171952381Y-107747619D01*
X171952381Y-107557142D01*
X171904762Y-107461904D01*
X171857143Y-107414285D01*
X171761905Y-107366666D01*
X171523810Y-107366666D01*
X171428571Y-107414285D01*
X171380952Y-107461904D01*
X171333333Y-107557142D01*
X171333333Y-107747619D01*
X171380952Y-107842857D01*
X171428571Y-107890476D01*
X171523810Y-107938095D01*
X171952381Y-106414285D02*
X171952381Y-106985714D01*
X171952381Y-106700000D02*
X170952381Y-106700000D01*
X171095238Y-106795238D01*
X171190476Y-106890476D01*
X171238095Y-106985714D01*
X171952381Y-105938095D02*
X171952381Y-105747619D01*
X171904762Y-105652380D01*
X171857143Y-105604761D01*
X171714286Y-105509523D01*
X171523810Y-105461904D01*
X171142857Y-105461904D01*
X171047619Y-105509523D01*
X171000000Y-105557142D01*
X170952381Y-105652380D01*
X170952381Y-105842857D01*
X171000000Y-105938095D01*
X171047619Y-105985714D01*
X171142857Y-106033333D01*
X171380952Y-106033333D01*
X171476190Y-105985714D01*
X171523810Y-105938095D01*
X171571429Y-105842857D01*
X171571429Y-105652380D01*
X171523810Y-105557142D01*
X171476190Y-105509523D01*
X171380952Y-105461904D01*
X171952381Y-104461904D02*
X171476190Y-104795238D01*
X171952381Y-105033333D02*
X170952381Y-105033333D01*
X170952381Y-104652380D01*
X171000000Y-104557142D01*
X171047619Y-104509523D01*
X171142857Y-104461904D01*
X171285714Y-104461904D01*
X171380952Y-104509523D01*
X171428571Y-104557142D01*
X171476190Y-104652380D01*
X171476190Y-105033333D01*
D13*
X170135714Y-106392857D02*
X169992857Y-106492857D01*
X170135714Y-106564285D02*
X169835714Y-106564285D01*
X169835714Y-106450000D01*
X169850000Y-106421428D01*
X169864286Y-106407143D01*
X169892857Y-106392857D01*
X169935714Y-106392857D01*
X169964286Y-106407143D01*
X169978571Y-106421428D01*
X169992857Y-106450000D01*
X169992857Y-106564285D01*
X170135714Y-106107143D02*
X170135714Y-106278571D01*
X170135714Y-106192857D02*
X169835714Y-106192857D01*
X169878571Y-106221428D01*
X169907143Y-106250000D01*
X169921429Y-106278571D01*
X169964286Y-105935714D02*
X169950000Y-105964286D01*
X169935714Y-105978571D01*
X169907143Y-105992857D01*
X169892857Y-105992857D01*
X169864286Y-105978571D01*
X169850000Y-105964286D01*
X169835714Y-105935714D01*
X169835714Y-105878571D01*
X169850000Y-105850000D01*
X169864286Y-105835714D01*
X169892857Y-105821429D01*
X169907143Y-105821429D01*
X169935714Y-105835714D01*
X169950000Y-105850000D01*
X169964286Y-105878571D01*
X169964286Y-105935714D01*
X169978571Y-105964286D01*
X169992857Y-105978571D01*
X170021429Y-105992857D01*
X170078571Y-105992857D01*
X170107143Y-105978571D01*
X170121429Y-105964286D01*
X170135714Y-105935714D01*
X170135714Y-105878571D01*
X170121429Y-105850000D01*
X170107143Y-105835714D01*
X170078571Y-105821429D01*
X170021429Y-105821429D01*
X169992857Y-105835714D01*
X169978571Y-105850000D01*
X169964286Y-105878571D01*
D12*
X132752381Y-114764285D02*
X132752381Y-115335714D01*
X132752381Y-115050000D02*
X131752381Y-115050000D01*
X131895238Y-115145238D01*
X131990476Y-115240476D01*
X132038095Y-115335714D01*
X132752381Y-114335714D02*
X131752381Y-114335714D01*
X132752381Y-113764285D01*
X131752381Y-113764285D01*
X132085714Y-112859523D02*
X132752381Y-112859523D01*
X131704762Y-113097619D02*
X132419048Y-113335714D01*
X132419048Y-112716666D01*
X132752381Y-111811904D02*
X132752381Y-112383333D01*
X132752381Y-112097619D02*
X131752381Y-112097619D01*
X131895238Y-112192857D01*
X131990476Y-112288095D01*
X132038095Y-112383333D01*
X132085714Y-110954761D02*
X132752381Y-110954761D01*
X131704762Y-111192857D02*
X132419048Y-111430952D01*
X132419048Y-110811904D01*
X132180952Y-110288095D02*
X132133333Y-110383333D01*
X132085714Y-110430952D01*
X131990476Y-110478571D01*
X131942857Y-110478571D01*
X131847619Y-110430952D01*
X131800000Y-110383333D01*
X131752381Y-110288095D01*
X131752381Y-110097618D01*
X131800000Y-110002380D01*
X131847619Y-109954761D01*
X131942857Y-109907142D01*
X131990476Y-109907142D01*
X132085714Y-109954761D01*
X132133333Y-110002380D01*
X132180952Y-110097618D01*
X132180952Y-110288095D01*
X132228571Y-110383333D01*
X132276190Y-110430952D01*
X132371429Y-110478571D01*
X132561905Y-110478571D01*
X132657143Y-110430952D01*
X132704762Y-110383333D01*
X132752381Y-110288095D01*
X132752381Y-110097618D01*
X132704762Y-110002380D01*
X132657143Y-109954761D01*
X132561905Y-109907142D01*
X132371429Y-109907142D01*
X132276190Y-109954761D01*
X132228571Y-110002380D01*
X132180952Y-110097618D01*
X131752381Y-109573809D02*
X132752381Y-109335714D01*
X132038095Y-109145237D01*
X132752381Y-108954761D01*
X131752381Y-108716666D01*
X127652381Y-112859524D02*
X128652381Y-112526191D01*
X127652381Y-112192857D01*
X128652381Y-111335714D02*
X128652381Y-111907143D01*
X128652381Y-111621429D02*
X127652381Y-111621429D01*
X127795238Y-111716667D01*
X127890476Y-111811905D01*
X127938095Y-111907143D01*
X132752381Y-108314285D02*
X132752381Y-108885714D01*
X132752381Y-108600000D02*
X131752381Y-108600000D01*
X131895238Y-108695238D01*
X131990476Y-108790476D01*
X132038095Y-108885714D01*
X132752381Y-107885714D02*
X131752381Y-107885714D01*
X132752381Y-107314285D01*
X131752381Y-107314285D01*
X132085714Y-106409523D02*
X132752381Y-106409523D01*
X131704762Y-106647619D02*
X132419048Y-106885714D01*
X132419048Y-106266666D01*
X132752381Y-105361904D02*
X132752381Y-105933333D01*
X132752381Y-105647619D02*
X131752381Y-105647619D01*
X131895238Y-105742857D01*
X131990476Y-105838095D01*
X132038095Y-105933333D01*
X132085714Y-104504761D02*
X132752381Y-104504761D01*
X131704762Y-104742857D02*
X132419048Y-104980952D01*
X132419048Y-104361904D01*
X132180952Y-103838095D02*
X132133333Y-103933333D01*
X132085714Y-103980952D01*
X131990476Y-104028571D01*
X131942857Y-104028571D01*
X131847619Y-103980952D01*
X131800000Y-103933333D01*
X131752381Y-103838095D01*
X131752381Y-103647618D01*
X131800000Y-103552380D01*
X131847619Y-103504761D01*
X131942857Y-103457142D01*
X131990476Y-103457142D01*
X132085714Y-103504761D01*
X132133333Y-103552380D01*
X132180952Y-103647618D01*
X132180952Y-103838095D01*
X132228571Y-103933333D01*
X132276190Y-103980952D01*
X132371429Y-104028571D01*
X132561905Y-104028571D01*
X132657143Y-103980952D01*
X132704762Y-103933333D01*
X132752381Y-103838095D01*
X132752381Y-103647618D01*
X132704762Y-103552380D01*
X132657143Y-103504761D01*
X132561905Y-103457142D01*
X132371429Y-103457142D01*
X132276190Y-103504761D01*
X132228571Y-103552380D01*
X132180952Y-103647618D01*
X131752381Y-103123809D02*
X132752381Y-102885714D01*
X132038095Y-102695237D01*
X132752381Y-102504761D01*
X131752381Y-102266666D01*
X127652381Y-106409524D02*
X128652381Y-106076191D01*
X127652381Y-105742857D01*
X127747619Y-105457143D02*
X127700000Y-105409524D01*
X127652381Y-105314286D01*
X127652381Y-105076190D01*
X127700000Y-104980952D01*
X127747619Y-104933333D01*
X127842857Y-104885714D01*
X127938095Y-104885714D01*
X128080952Y-104933333D01*
X128652381Y-105504762D01*
X128652381Y-104885714D01*
X139552381Y-114764285D02*
X139552381Y-115335714D01*
X139552381Y-115050000D02*
X138552381Y-115050000D01*
X138695238Y-115145238D01*
X138790476Y-115240476D01*
X138838095Y-115335714D01*
X139552381Y-114335714D02*
X138552381Y-114335714D01*
X139552381Y-113764285D01*
X138552381Y-113764285D01*
X138885714Y-112859523D02*
X139552381Y-112859523D01*
X138504762Y-113097619D02*
X139219048Y-113335714D01*
X139219048Y-112716666D01*
X139552381Y-111811904D02*
X139552381Y-112383333D01*
X139552381Y-112097619D02*
X138552381Y-112097619D01*
X138695238Y-112192857D01*
X138790476Y-112288095D01*
X138838095Y-112383333D01*
X138885714Y-110954761D02*
X139552381Y-110954761D01*
X138504762Y-111192857D02*
X139219048Y-111430952D01*
X139219048Y-110811904D01*
X138980952Y-110288095D02*
X138933333Y-110383333D01*
X138885714Y-110430952D01*
X138790476Y-110478571D01*
X138742857Y-110478571D01*
X138647619Y-110430952D01*
X138600000Y-110383333D01*
X138552381Y-110288095D01*
X138552381Y-110097618D01*
X138600000Y-110002380D01*
X138647619Y-109954761D01*
X138742857Y-109907142D01*
X138790476Y-109907142D01*
X138885714Y-109954761D01*
X138933333Y-110002380D01*
X138980952Y-110097618D01*
X138980952Y-110288095D01*
X139028571Y-110383333D01*
X139076190Y-110430952D01*
X139171429Y-110478571D01*
X139361905Y-110478571D01*
X139457143Y-110430952D01*
X139504762Y-110383333D01*
X139552381Y-110288095D01*
X139552381Y-110097618D01*
X139504762Y-110002380D01*
X139457143Y-109954761D01*
X139361905Y-109907142D01*
X139171429Y-109907142D01*
X139076190Y-109954761D01*
X139028571Y-110002380D01*
X138980952Y-110097618D01*
X138552381Y-109573809D02*
X139552381Y-109335714D01*
X138838095Y-109145237D01*
X139552381Y-108954761D01*
X138552381Y-108716666D01*
X134452381Y-112859524D02*
X135452381Y-112526191D01*
X134452381Y-112192857D01*
X134452381Y-111954762D02*
X134452381Y-111335714D01*
X134833333Y-111669048D01*
X134833333Y-111526190D01*
X134880952Y-111430952D01*
X134928571Y-111383333D01*
X135023810Y-111335714D01*
X135261905Y-111335714D01*
X135357143Y-111383333D01*
X135404762Y-111430952D01*
X135452381Y-111526190D01*
X135452381Y-111811905D01*
X135404762Y-111907143D01*
X135357143Y-111954762D01*
X139552381Y-108314285D02*
X139552381Y-108885714D01*
X139552381Y-108600000D02*
X138552381Y-108600000D01*
X138695238Y-108695238D01*
X138790476Y-108790476D01*
X138838095Y-108885714D01*
X139552381Y-107885714D02*
X138552381Y-107885714D01*
X139552381Y-107314285D01*
X138552381Y-107314285D01*
X138885714Y-106409523D02*
X139552381Y-106409523D01*
X138504762Y-106647619D02*
X139219048Y-106885714D01*
X139219048Y-106266666D01*
X139552381Y-105361904D02*
X139552381Y-105933333D01*
X139552381Y-105647619D02*
X138552381Y-105647619D01*
X138695238Y-105742857D01*
X138790476Y-105838095D01*
X138838095Y-105933333D01*
X138885714Y-104504761D02*
X139552381Y-104504761D01*
X138504762Y-104742857D02*
X139219048Y-104980952D01*
X139219048Y-104361904D01*
X138980952Y-103838095D02*
X138933333Y-103933333D01*
X138885714Y-103980952D01*
X138790476Y-104028571D01*
X138742857Y-104028571D01*
X138647619Y-103980952D01*
X138600000Y-103933333D01*
X138552381Y-103838095D01*
X138552381Y-103647618D01*
X138600000Y-103552380D01*
X138647619Y-103504761D01*
X138742857Y-103457142D01*
X138790476Y-103457142D01*
X138885714Y-103504761D01*
X138933333Y-103552380D01*
X138980952Y-103647618D01*
X138980952Y-103838095D01*
X139028571Y-103933333D01*
X139076190Y-103980952D01*
X139171429Y-104028571D01*
X139361905Y-104028571D01*
X139457143Y-103980952D01*
X139504762Y-103933333D01*
X139552381Y-103838095D01*
X139552381Y-103647618D01*
X139504762Y-103552380D01*
X139457143Y-103504761D01*
X139361905Y-103457142D01*
X139171429Y-103457142D01*
X139076190Y-103504761D01*
X139028571Y-103552380D01*
X138980952Y-103647618D01*
X138552381Y-103123809D02*
X139552381Y-102885714D01*
X138838095Y-102695237D01*
X139552381Y-102504761D01*
X138552381Y-102266666D01*
X134452381Y-106409524D02*
X135452381Y-106076191D01*
X134452381Y-105742857D01*
X134785714Y-104980952D02*
X135452381Y-104980952D01*
X134404762Y-105219048D02*
X135119048Y-105457143D01*
X135119048Y-104838095D01*
X99323810Y-121052381D02*
X99323810Y-120052381D01*
X99704763Y-120052381D01*
X99800001Y-120100000D01*
X99847620Y-120147619D01*
X99895239Y-120242857D01*
X99895239Y-120385714D01*
X99847620Y-120480952D01*
X99800001Y-120528571D01*
X99704763Y-120576190D01*
X99323810Y-120576190D01*
X100895239Y-120957143D02*
X100847620Y-121004762D01*
X100704763Y-121052381D01*
X100609525Y-121052381D01*
X100466667Y-121004762D01*
X100371429Y-120909524D01*
X100323810Y-120814286D01*
X100276191Y-120623810D01*
X100276191Y-120480952D01*
X100323810Y-120290476D01*
X100371429Y-120195238D01*
X100466667Y-120100000D01*
X100609525Y-120052381D01*
X100704763Y-120052381D01*
X100847620Y-120100000D01*
X100895239Y-120147619D01*
X101657144Y-120528571D02*
X101800001Y-120576190D01*
X101847620Y-120623810D01*
X101895239Y-120719048D01*
X101895239Y-120861905D01*
X101847620Y-120957143D01*
X101800001Y-121004762D01*
X101704763Y-121052381D01*
X101323810Y-121052381D01*
X101323810Y-120052381D01*
X101657144Y-120052381D01*
X101752382Y-120100000D01*
X101800001Y-120147619D01*
X101847620Y-120242857D01*
X101847620Y-120338095D01*
X101800001Y-120433333D01*
X101752382Y-120480952D01*
X101657144Y-120528571D01*
X101323810Y-120528571D01*
X102323810Y-120957143D02*
X102371429Y-121004762D01*
X102323810Y-121052381D01*
X102276191Y-121004762D01*
X102323810Y-120957143D01*
X102323810Y-121052381D01*
X102752381Y-121004762D02*
X102895238Y-121052381D01*
X103133334Y-121052381D01*
X103228572Y-121004762D01*
X103276191Y-120957143D01*
X103323810Y-120861905D01*
X103323810Y-120766667D01*
X103276191Y-120671429D01*
X103228572Y-120623810D01*
X103133334Y-120576190D01*
X102942857Y-120528571D01*
X102847619Y-120480952D01*
X102800000Y-120433333D01*
X102752381Y-120338095D01*
X102752381Y-120242857D01*
X102800000Y-120147619D01*
X102847619Y-120100000D01*
X102942857Y-120052381D01*
X103180953Y-120052381D01*
X103323810Y-120100000D01*
X103752381Y-121052381D02*
X103752381Y-120052381D01*
X104085715Y-120766667D01*
X104419048Y-120052381D01*
X104419048Y-121052381D01*
X104847619Y-120766667D02*
X105323810Y-120766667D01*
X104752381Y-121052381D02*
X105085714Y-120052381D01*
X105419048Y-121052381D01*
X106085715Y-120528571D02*
X105752381Y-120528571D01*
X105752381Y-121052381D02*
X105752381Y-120052381D01*
X106228572Y-120052381D01*
X107180953Y-121052381D02*
X106847619Y-120576190D01*
X106609524Y-121052381D02*
X106609524Y-120052381D01*
X106990477Y-120052381D01*
X107085715Y-120100000D01*
X107133334Y-120147619D01*
X107180953Y-120242857D01*
X107180953Y-120385714D01*
X107133334Y-120480952D01*
X107085715Y-120528571D01*
X106990477Y-120576190D01*
X106609524Y-120576190D01*
X107561905Y-120766667D02*
X108038096Y-120766667D01*
X107466667Y-121052381D02*
X107800000Y-120052381D01*
X108133334Y-121052381D01*
X108466667Y-120957143D02*
X108514286Y-121004762D01*
X108466667Y-121052381D01*
X108419048Y-121004762D01*
X108466667Y-120957143D01*
X108466667Y-121052381D01*
X108942857Y-121052381D02*
X108942857Y-120052381D01*
X108942857Y-120528571D02*
X109514286Y-120528571D01*
X109514286Y-121052381D02*
X109514286Y-120052381D01*
X109847619Y-120052381D02*
X110419048Y-120052381D01*
X110133333Y-121052381D02*
X110133333Y-120052381D01*
X103990476Y-110052381D02*
X104657143Y-111052381D01*
X104657143Y-110052381D02*
X103990476Y-111052381D01*
X105561905Y-111052381D02*
X104990476Y-111052381D01*
X105276190Y-111052381D02*
X105276190Y-110052381D01*
X105180952Y-110195238D01*
X105085714Y-110290476D01*
X104990476Y-110338095D01*
X111202382Y-64428571D02*
X111345239Y-64476190D01*
X111392858Y-64523810D01*
X111440477Y-64619048D01*
X111440477Y-64761905D01*
X111392858Y-64857143D01*
X111345239Y-64904762D01*
X111250001Y-64952381D01*
X110869048Y-64952381D01*
X110869048Y-63952381D01*
X111202382Y-63952381D01*
X111297620Y-64000000D01*
X111345239Y-64047619D01*
X111392858Y-64142857D01*
X111392858Y-64238095D01*
X111345239Y-64333333D01*
X111297620Y-64380952D01*
X111202382Y-64428571D01*
X110869048Y-64428571D01*
X112011905Y-64380952D02*
X111916667Y-64333333D01*
X111869048Y-64285714D01*
X111821429Y-64190476D01*
X111821429Y-64142857D01*
X111869048Y-64047619D01*
X111916667Y-64000000D01*
X112011905Y-63952381D01*
X112202382Y-63952381D01*
X112297620Y-64000000D01*
X112345239Y-64047619D01*
X112392858Y-64142857D01*
X112392858Y-64190476D01*
X112345239Y-64285714D01*
X112297620Y-64333333D01*
X112202382Y-64380952D01*
X112011905Y-64380952D01*
X111916667Y-64428571D01*
X111869048Y-64476190D01*
X111821429Y-64571429D01*
X111821429Y-64761905D01*
X111869048Y-64857143D01*
X111916667Y-64904762D01*
X112011905Y-64952381D01*
X112202382Y-64952381D01*
X112297620Y-64904762D01*
X112345239Y-64857143D01*
X112392858Y-64761905D01*
X112392858Y-64571429D01*
X112345239Y-64476190D01*
X112297620Y-64428571D01*
X112202382Y-64380952D01*
X113154763Y-64428571D02*
X113297620Y-64476190D01*
X113345239Y-64523810D01*
X113392858Y-64619048D01*
X113392858Y-64761905D01*
X113345239Y-64857143D01*
X113297620Y-64904762D01*
X113202382Y-64952381D01*
X112821429Y-64952381D01*
X112821429Y-63952381D01*
X113154763Y-63952381D01*
X113250001Y-64000000D01*
X113297620Y-64047619D01*
X113345239Y-64142857D01*
X113345239Y-64238095D01*
X113297620Y-64333333D01*
X113250001Y-64380952D01*
X113154763Y-64428571D01*
X112821429Y-64428571D01*
X113821429Y-64571429D02*
X114583334Y-64571429D01*
X115059524Y-64428571D02*
X115392858Y-64428571D01*
X115535715Y-64952381D02*
X115059524Y-64952381D01*
X115059524Y-63952381D01*
X115535715Y-63952381D01*
X115964286Y-64952381D02*
X115964286Y-63952381D01*
X115964286Y-64428571D02*
X116535715Y-64428571D01*
X116535715Y-64952381D02*
X116535715Y-63952381D01*
X117011905Y-64571429D02*
X117773810Y-64571429D01*
X118202381Y-64666667D02*
X118678572Y-64666667D01*
X118107143Y-64952381D02*
X118440476Y-63952381D01*
X118773810Y-64952381D01*
X113940476Y-70452381D02*
X114607143Y-71452381D01*
X114607143Y-70452381D02*
X113940476Y-71452381D01*
X114940476Y-70547619D02*
X114988095Y-70500000D01*
X115083333Y-70452381D01*
X115321429Y-70452381D01*
X115416667Y-70500000D01*
X115464286Y-70547619D01*
X115511905Y-70642857D01*
X115511905Y-70738095D01*
X115464286Y-70880952D01*
X114892857Y-71452381D01*
X115511905Y-71452381D01*
X182402382Y-64428571D02*
X182545239Y-64476190D01*
X182592858Y-64523810D01*
X182640477Y-64619048D01*
X182640477Y-64761905D01*
X182592858Y-64857143D01*
X182545239Y-64904762D01*
X182450001Y-64952381D01*
X182069048Y-64952381D01*
X182069048Y-63952381D01*
X182402382Y-63952381D01*
X182497620Y-64000000D01*
X182545239Y-64047619D01*
X182592858Y-64142857D01*
X182592858Y-64238095D01*
X182545239Y-64333333D01*
X182497620Y-64380952D01*
X182402382Y-64428571D01*
X182069048Y-64428571D01*
X183211905Y-64380952D02*
X183116667Y-64333333D01*
X183069048Y-64285714D01*
X183021429Y-64190476D01*
X183021429Y-64142857D01*
X183069048Y-64047619D01*
X183116667Y-64000000D01*
X183211905Y-63952381D01*
X183402382Y-63952381D01*
X183497620Y-64000000D01*
X183545239Y-64047619D01*
X183592858Y-64142857D01*
X183592858Y-64190476D01*
X183545239Y-64285714D01*
X183497620Y-64333333D01*
X183402382Y-64380952D01*
X183211905Y-64380952D01*
X183116667Y-64428571D01*
X183069048Y-64476190D01*
X183021429Y-64571429D01*
X183021429Y-64761905D01*
X183069048Y-64857143D01*
X183116667Y-64904762D01*
X183211905Y-64952381D01*
X183402382Y-64952381D01*
X183497620Y-64904762D01*
X183545239Y-64857143D01*
X183592858Y-64761905D01*
X183592858Y-64571429D01*
X183545239Y-64476190D01*
X183497620Y-64428571D01*
X183402382Y-64380952D01*
X184354763Y-64428571D02*
X184497620Y-64476190D01*
X184545239Y-64523810D01*
X184592858Y-64619048D01*
X184592858Y-64761905D01*
X184545239Y-64857143D01*
X184497620Y-64904762D01*
X184402382Y-64952381D01*
X184021429Y-64952381D01*
X184021429Y-63952381D01*
X184354763Y-63952381D01*
X184450001Y-64000000D01*
X184497620Y-64047619D01*
X184545239Y-64142857D01*
X184545239Y-64238095D01*
X184497620Y-64333333D01*
X184450001Y-64380952D01*
X184354763Y-64428571D01*
X184021429Y-64428571D01*
X185021429Y-64571429D02*
X185783334Y-64571429D01*
X186259524Y-64428571D02*
X186592858Y-64428571D01*
X186735715Y-64952381D02*
X186259524Y-64952381D01*
X186259524Y-63952381D01*
X186735715Y-63952381D01*
X187164286Y-64952381D02*
X187164286Y-63952381D01*
X187164286Y-64428571D02*
X187735715Y-64428571D01*
X187735715Y-64952381D02*
X187735715Y-63952381D01*
X188211905Y-64571429D02*
X188973810Y-64571429D01*
X189402381Y-64666667D02*
X189878572Y-64666667D01*
X189307143Y-64952381D02*
X189640476Y-63952381D01*
X189973810Y-64952381D01*
X185140476Y-70452381D02*
X185807143Y-71452381D01*
X185807143Y-70452381D02*
X185140476Y-71452381D01*
X186092857Y-70452381D02*
X186711905Y-70452381D01*
X186378571Y-70833333D01*
X186521429Y-70833333D01*
X186616667Y-70880952D01*
X186664286Y-70928571D01*
X186711905Y-71023810D01*
X186711905Y-71261905D01*
X186664286Y-71357143D01*
X186616667Y-71404762D01*
X186521429Y-71452381D01*
X186235714Y-71452381D01*
X186140476Y-71404762D01*
X186092857Y-71357143D01*
X106190477Y-84852381D02*
X105714286Y-84852381D01*
X105666667Y-85328571D01*
X105714286Y-85280952D01*
X105809524Y-85233333D01*
X106047620Y-85233333D01*
X106142858Y-85280952D01*
X106190477Y-85328571D01*
X106238096Y-85423810D01*
X106238096Y-85661905D01*
X106190477Y-85757143D01*
X106142858Y-85804762D01*
X106047620Y-85852381D01*
X105809524Y-85852381D01*
X105714286Y-85804762D01*
X105666667Y-85757143D01*
X106571429Y-84852381D02*
X107238096Y-84852381D01*
X106809524Y-85852381D01*
X108095239Y-84852381D02*
X107619048Y-84852381D01*
X107571429Y-85328571D01*
X107619048Y-85280952D01*
X107714286Y-85233333D01*
X107952382Y-85233333D01*
X108047620Y-85280952D01*
X108095239Y-85328571D01*
X108142858Y-85423810D01*
X108142858Y-85661905D01*
X108095239Y-85757143D01*
X108047620Y-85804762D01*
X107952382Y-85852381D01*
X107714286Y-85852381D01*
X107619048Y-85804762D01*
X107571429Y-85757143D01*
X108571429Y-85471429D02*
X109333334Y-85471429D01*
X110238096Y-85185714D02*
X110238096Y-85852381D01*
X110000000Y-84804762D02*
X109761905Y-85519048D01*
X110380953Y-85519048D01*
X107490476Y-78852381D02*
X108157143Y-79852381D01*
X108157143Y-78852381D02*
X107490476Y-79852381D01*
X108966667Y-79185714D02*
X108966667Y-79852381D01*
X108728571Y-78804762D02*
X108490476Y-79519048D01*
X109109524Y-79519048D01*
X106190477Y-103852381D02*
X105714286Y-103852381D01*
X105666667Y-104328571D01*
X105714286Y-104280952D01*
X105809524Y-104233333D01*
X106047620Y-104233333D01*
X106142858Y-104280952D01*
X106190477Y-104328571D01*
X106238096Y-104423810D01*
X106238096Y-104661905D01*
X106190477Y-104757143D01*
X106142858Y-104804762D01*
X106047620Y-104852381D01*
X105809524Y-104852381D01*
X105714286Y-104804762D01*
X105666667Y-104757143D01*
X106571429Y-103852381D02*
X107238096Y-103852381D01*
X106809524Y-104852381D01*
X108095239Y-103852381D02*
X107619048Y-103852381D01*
X107571429Y-104328571D01*
X107619048Y-104280952D01*
X107714286Y-104233333D01*
X107952382Y-104233333D01*
X108047620Y-104280952D01*
X108095239Y-104328571D01*
X108142858Y-104423810D01*
X108142858Y-104661905D01*
X108095239Y-104757143D01*
X108047620Y-104804762D01*
X107952382Y-104852381D01*
X107714286Y-104852381D01*
X107619048Y-104804762D01*
X107571429Y-104757143D01*
X108571429Y-104471429D02*
X109333334Y-104471429D01*
X110238096Y-104185714D02*
X110238096Y-104852381D01*
X110000000Y-103804762D02*
X109761905Y-104519048D01*
X110380953Y-104519048D01*
X107490476Y-97852381D02*
X108157143Y-98852381D01*
X108157143Y-97852381D02*
X107490476Y-98852381D01*
X109014286Y-97852381D02*
X108538095Y-97852381D01*
X108490476Y-98328571D01*
X108538095Y-98280952D01*
X108633333Y-98233333D01*
X108871429Y-98233333D01*
X108966667Y-98280952D01*
X109014286Y-98328571D01*
X109061905Y-98423810D01*
X109061905Y-98661905D01*
X109014286Y-98757143D01*
X108966667Y-98804762D01*
X108871429Y-98852381D01*
X108633333Y-98852381D01*
X108538095Y-98804762D01*
X108490476Y-98757143D01*
X190190477Y-84852381D02*
X189714286Y-84852381D01*
X189666667Y-85328571D01*
X189714286Y-85280952D01*
X189809524Y-85233333D01*
X190047620Y-85233333D01*
X190142858Y-85280952D01*
X190190477Y-85328571D01*
X190238096Y-85423810D01*
X190238096Y-85661905D01*
X190190477Y-85757143D01*
X190142858Y-85804762D01*
X190047620Y-85852381D01*
X189809524Y-85852381D01*
X189714286Y-85804762D01*
X189666667Y-85757143D01*
X190571429Y-84852381D02*
X191238096Y-84852381D01*
X190809524Y-85852381D01*
X192095239Y-84852381D02*
X191619048Y-84852381D01*
X191571429Y-85328571D01*
X191619048Y-85280952D01*
X191714286Y-85233333D01*
X191952382Y-85233333D01*
X192047620Y-85280952D01*
X192095239Y-85328571D01*
X192142858Y-85423810D01*
X192142858Y-85661905D01*
X192095239Y-85757143D01*
X192047620Y-85804762D01*
X191952382Y-85852381D01*
X191714286Y-85852381D01*
X191619048Y-85804762D01*
X191571429Y-85757143D01*
X192571429Y-85471429D02*
X193333334Y-85471429D01*
X194238096Y-85185714D02*
X194238096Y-85852381D01*
X194000000Y-84804762D02*
X193761905Y-85519048D01*
X194380953Y-85519048D01*
X191490476Y-78852381D02*
X192157143Y-79852381D01*
X192157143Y-78852381D02*
X191490476Y-79852381D01*
X192966667Y-78852381D02*
X192776190Y-78852381D01*
X192680952Y-78900000D01*
X192633333Y-78947619D01*
X192538095Y-79090476D01*
X192490476Y-79280952D01*
X192490476Y-79661905D01*
X192538095Y-79757143D01*
X192585714Y-79804762D01*
X192680952Y-79852381D01*
X192871429Y-79852381D01*
X192966667Y-79804762D01*
X193014286Y-79757143D01*
X193061905Y-79661905D01*
X193061905Y-79423810D01*
X193014286Y-79328571D01*
X192966667Y-79280952D01*
X192871429Y-79233333D01*
X192680952Y-79233333D01*
X192585714Y-79280952D01*
X192538095Y-79328571D01*
X192490476Y-79423810D01*
X190190477Y-103852381D02*
X189714286Y-103852381D01*
X189666667Y-104328571D01*
X189714286Y-104280952D01*
X189809524Y-104233333D01*
X190047620Y-104233333D01*
X190142858Y-104280952D01*
X190190477Y-104328571D01*
X190238096Y-104423810D01*
X190238096Y-104661905D01*
X190190477Y-104757143D01*
X190142858Y-104804762D01*
X190047620Y-104852381D01*
X189809524Y-104852381D01*
X189714286Y-104804762D01*
X189666667Y-104757143D01*
X190571429Y-103852381D02*
X191238096Y-103852381D01*
X190809524Y-104852381D01*
X192095239Y-103852381D02*
X191619048Y-103852381D01*
X191571429Y-104328571D01*
X191619048Y-104280952D01*
X191714286Y-104233333D01*
X191952382Y-104233333D01*
X192047620Y-104280952D01*
X192095239Y-104328571D01*
X192142858Y-104423810D01*
X192142858Y-104661905D01*
X192095239Y-104757143D01*
X192047620Y-104804762D01*
X191952382Y-104852381D01*
X191714286Y-104852381D01*
X191619048Y-104804762D01*
X191571429Y-104757143D01*
X192571429Y-104471429D02*
X193333334Y-104471429D01*
X194238096Y-104185714D02*
X194238096Y-104852381D01*
X194000000Y-103804762D02*
X193761905Y-104519048D01*
X194380953Y-104519048D01*
X191490476Y-97852381D02*
X192157143Y-98852381D01*
X192157143Y-97852381D02*
X191490476Y-98852381D01*
X192442857Y-97852381D02*
X193109524Y-97852381D01*
X192680952Y-98852381D01*
X119404762Y-110252381D02*
X119976191Y-110252381D01*
X119690476Y-111252381D02*
X119690476Y-110252381D01*
X120309524Y-110728571D02*
X120642858Y-110728571D01*
X120785715Y-111252381D02*
X120309524Y-111252381D01*
X120309524Y-110252381D01*
X120785715Y-110252381D01*
X121166667Y-111204762D02*
X121309524Y-111252381D01*
X121547620Y-111252381D01*
X121642858Y-111204762D01*
X121690477Y-111157143D01*
X121738096Y-111061905D01*
X121738096Y-110966667D01*
X121690477Y-110871429D01*
X121642858Y-110823810D01*
X121547620Y-110776190D01*
X121357143Y-110728571D01*
X121261905Y-110680952D01*
X121214286Y-110633333D01*
X121166667Y-110538095D01*
X121166667Y-110442857D01*
X121214286Y-110347619D01*
X121261905Y-110300000D01*
X121357143Y-110252381D01*
X121595239Y-110252381D01*
X121738096Y-110300000D01*
X122023810Y-110252381D02*
X122595239Y-110252381D01*
X122309524Y-111252381D02*
X122309524Y-110252381D01*
X113214285Y-124952381D02*
X113214285Y-123952381D01*
X113547619Y-124666667D01*
X113880952Y-123952381D01*
X113880952Y-124952381D01*
X114499999Y-124952381D02*
X114404761Y-124904762D01*
X114357142Y-124857143D01*
X114309523Y-124761905D01*
X114309523Y-124476190D01*
X114357142Y-124380952D01*
X114404761Y-124333333D01*
X114499999Y-124285714D01*
X114642857Y-124285714D01*
X114738095Y-124333333D01*
X114785714Y-124380952D01*
X114833333Y-124476190D01*
X114833333Y-124761905D01*
X114785714Y-124857143D01*
X114738095Y-124904762D01*
X114642857Y-124952381D01*
X114499999Y-124952381D01*
X115690476Y-124285714D02*
X115690476Y-124952381D01*
X115261904Y-124285714D02*
X115261904Y-124809524D01*
X115309523Y-124904762D01*
X115404761Y-124952381D01*
X115547619Y-124952381D01*
X115642857Y-124904762D01*
X115690476Y-124857143D01*
X116166666Y-124285714D02*
X116166666Y-124952381D01*
X116166666Y-124380952D02*
X116214285Y-124333333D01*
X116309523Y-124285714D01*
X116452381Y-124285714D01*
X116547619Y-124333333D01*
X116595238Y-124428571D01*
X116595238Y-124952381D01*
X116928571Y-124285714D02*
X117309523Y-124285714D01*
X117071428Y-123952381D02*
X117071428Y-124809524D01*
X117119047Y-124904762D01*
X117214285Y-124952381D01*
X117309523Y-124952381D01*
X117642857Y-124952381D02*
X117642857Y-124285714D01*
X117642857Y-123952381D02*
X117595238Y-124000000D01*
X117642857Y-124047619D01*
X117690476Y-124000000D01*
X117642857Y-123952381D01*
X117642857Y-124047619D01*
X118119047Y-124285714D02*
X118119047Y-124952381D01*
X118119047Y-124380952D02*
X118166666Y-124333333D01*
X118261904Y-124285714D01*
X118404762Y-124285714D01*
X118500000Y-124333333D01*
X118547619Y-124428571D01*
X118547619Y-124952381D01*
X119452381Y-124285714D02*
X119452381Y-125095238D01*
X119404762Y-125190476D01*
X119357143Y-125238095D01*
X119261904Y-125285714D01*
X119119047Y-125285714D01*
X119023809Y-125238095D01*
X119452381Y-124904762D02*
X119357143Y-124952381D01*
X119166666Y-124952381D01*
X119071428Y-124904762D01*
X119023809Y-124857143D01*
X118976190Y-124761905D01*
X118976190Y-124476190D01*
X119023809Y-124380952D01*
X119071428Y-124333333D01*
X119166666Y-124285714D01*
X119357143Y-124285714D01*
X119452381Y-124333333D01*
X119928571Y-124952381D02*
X119928571Y-123952381D01*
X119928571Y-124428571D02*
X120500000Y-124428571D01*
X120500000Y-124952381D02*
X120500000Y-123952381D01*
X121119047Y-124952381D02*
X121023809Y-124904762D01*
X120976190Y-124857143D01*
X120928571Y-124761905D01*
X120928571Y-124476190D01*
X120976190Y-124380952D01*
X121023809Y-124333333D01*
X121119047Y-124285714D01*
X121261905Y-124285714D01*
X121357143Y-124333333D01*
X121404762Y-124380952D01*
X121452381Y-124476190D01*
X121452381Y-124761905D01*
X121404762Y-124857143D01*
X121357143Y-124904762D01*
X121261905Y-124952381D01*
X121119047Y-124952381D01*
X122023809Y-124952381D02*
X121928571Y-124904762D01*
X121880952Y-124809524D01*
X121880952Y-123952381D01*
X122785715Y-124904762D02*
X122690477Y-124952381D01*
X122500000Y-124952381D01*
X122404762Y-124904762D01*
X122357143Y-124809524D01*
X122357143Y-124428571D01*
X122404762Y-124333333D01*
X122500000Y-124285714D01*
X122690477Y-124285714D01*
X122785715Y-124333333D01*
X122833334Y-124428571D01*
X122833334Y-124523810D01*
X122357143Y-124619048D01*
X117490476Y-120452381D02*
X117490476Y-119452381D01*
X117823810Y-120166667D01*
X118157143Y-119452381D01*
X118157143Y-120452381D01*
X118585714Y-119547619D02*
X118633333Y-119500000D01*
X118728571Y-119452381D01*
X118966667Y-119452381D01*
X119061905Y-119500000D01*
X119109524Y-119547619D01*
X119157143Y-119642857D01*
X119157143Y-119738095D01*
X119109524Y-119880952D01*
X118538095Y-120452381D01*
X119157143Y-120452381D01*
X177214285Y-124952381D02*
X177214285Y-123952381D01*
X177547619Y-124666667D01*
X177880952Y-123952381D01*
X177880952Y-124952381D01*
X178499999Y-124952381D02*
X178404761Y-124904762D01*
X178357142Y-124857143D01*
X178309523Y-124761905D01*
X178309523Y-124476190D01*
X178357142Y-124380952D01*
X178404761Y-124333333D01*
X178499999Y-124285714D01*
X178642857Y-124285714D01*
X178738095Y-124333333D01*
X178785714Y-124380952D01*
X178833333Y-124476190D01*
X178833333Y-124761905D01*
X178785714Y-124857143D01*
X178738095Y-124904762D01*
X178642857Y-124952381D01*
X178499999Y-124952381D01*
X179690476Y-124285714D02*
X179690476Y-124952381D01*
X179261904Y-124285714D02*
X179261904Y-124809524D01*
X179309523Y-124904762D01*
X179404761Y-124952381D01*
X179547619Y-124952381D01*
X179642857Y-124904762D01*
X179690476Y-124857143D01*
X180166666Y-124285714D02*
X180166666Y-124952381D01*
X180166666Y-124380952D02*
X180214285Y-124333333D01*
X180309523Y-124285714D01*
X180452381Y-124285714D01*
X180547619Y-124333333D01*
X180595238Y-124428571D01*
X180595238Y-124952381D01*
X180928571Y-124285714D02*
X181309523Y-124285714D01*
X181071428Y-123952381D02*
X181071428Y-124809524D01*
X181119047Y-124904762D01*
X181214285Y-124952381D01*
X181309523Y-124952381D01*
X181642857Y-124952381D02*
X181642857Y-124285714D01*
X181642857Y-123952381D02*
X181595238Y-124000000D01*
X181642857Y-124047619D01*
X181690476Y-124000000D01*
X181642857Y-123952381D01*
X181642857Y-124047619D01*
X182119047Y-124285714D02*
X182119047Y-124952381D01*
X182119047Y-124380952D02*
X182166666Y-124333333D01*
X182261904Y-124285714D01*
X182404762Y-124285714D01*
X182500000Y-124333333D01*
X182547619Y-124428571D01*
X182547619Y-124952381D01*
X183452381Y-124285714D02*
X183452381Y-125095238D01*
X183404762Y-125190476D01*
X183357143Y-125238095D01*
X183261904Y-125285714D01*
X183119047Y-125285714D01*
X183023809Y-125238095D01*
X183452381Y-124904762D02*
X183357143Y-124952381D01*
X183166666Y-124952381D01*
X183071428Y-124904762D01*
X183023809Y-124857143D01*
X182976190Y-124761905D01*
X182976190Y-124476190D01*
X183023809Y-124380952D01*
X183071428Y-124333333D01*
X183166666Y-124285714D01*
X183357143Y-124285714D01*
X183452381Y-124333333D01*
X183928571Y-124952381D02*
X183928571Y-123952381D01*
X183928571Y-124428571D02*
X184500000Y-124428571D01*
X184500000Y-124952381D02*
X184500000Y-123952381D01*
X185119047Y-124952381D02*
X185023809Y-124904762D01*
X184976190Y-124857143D01*
X184928571Y-124761905D01*
X184928571Y-124476190D01*
X184976190Y-124380952D01*
X185023809Y-124333333D01*
X185119047Y-124285714D01*
X185261905Y-124285714D01*
X185357143Y-124333333D01*
X185404762Y-124380952D01*
X185452381Y-124476190D01*
X185452381Y-124761905D01*
X185404762Y-124857143D01*
X185357143Y-124904762D01*
X185261905Y-124952381D01*
X185119047Y-124952381D01*
X186023809Y-124952381D02*
X185928571Y-124904762D01*
X185880952Y-124809524D01*
X185880952Y-123952381D01*
X186785715Y-124904762D02*
X186690477Y-124952381D01*
X186500000Y-124952381D01*
X186404762Y-124904762D01*
X186357143Y-124809524D01*
X186357143Y-124428571D01*
X186404762Y-124333333D01*
X186500000Y-124285714D01*
X186690477Y-124285714D01*
X186785715Y-124333333D01*
X186833334Y-124428571D01*
X186833334Y-124523810D01*
X186357143Y-124619048D01*
X181490476Y-120452381D02*
X181490476Y-119452381D01*
X181823810Y-120166667D01*
X182157143Y-119452381D01*
X182157143Y-120452381D01*
X182538095Y-119452381D02*
X183157143Y-119452381D01*
X182823809Y-119833333D01*
X182966667Y-119833333D01*
X183061905Y-119880952D01*
X183109524Y-119928571D01*
X183157143Y-120023810D01*
X183157143Y-120261905D01*
X183109524Y-120357143D01*
X183061905Y-120404762D01*
X182966667Y-120452381D01*
X182680952Y-120452381D01*
X182585714Y-120404762D01*
X182538095Y-120357143D01*
X131214285Y-94952381D02*
X131214285Y-93952381D01*
X131547619Y-94666667D01*
X131880952Y-93952381D01*
X131880952Y-94952381D01*
X132499999Y-94952381D02*
X132404761Y-94904762D01*
X132357142Y-94857143D01*
X132309523Y-94761905D01*
X132309523Y-94476190D01*
X132357142Y-94380952D01*
X132404761Y-94333333D01*
X132499999Y-94285714D01*
X132642857Y-94285714D01*
X132738095Y-94333333D01*
X132785714Y-94380952D01*
X132833333Y-94476190D01*
X132833333Y-94761905D01*
X132785714Y-94857143D01*
X132738095Y-94904762D01*
X132642857Y-94952381D01*
X132499999Y-94952381D01*
X133690476Y-94285714D02*
X133690476Y-94952381D01*
X133261904Y-94285714D02*
X133261904Y-94809524D01*
X133309523Y-94904762D01*
X133404761Y-94952381D01*
X133547619Y-94952381D01*
X133642857Y-94904762D01*
X133690476Y-94857143D01*
X134166666Y-94285714D02*
X134166666Y-94952381D01*
X134166666Y-94380952D02*
X134214285Y-94333333D01*
X134309523Y-94285714D01*
X134452381Y-94285714D01*
X134547619Y-94333333D01*
X134595238Y-94428571D01*
X134595238Y-94952381D01*
X134928571Y-94285714D02*
X135309523Y-94285714D01*
X135071428Y-93952381D02*
X135071428Y-94809524D01*
X135119047Y-94904762D01*
X135214285Y-94952381D01*
X135309523Y-94952381D01*
X135642857Y-94952381D02*
X135642857Y-94285714D01*
X135642857Y-93952381D02*
X135595238Y-94000000D01*
X135642857Y-94047619D01*
X135690476Y-94000000D01*
X135642857Y-93952381D01*
X135642857Y-94047619D01*
X136119047Y-94285714D02*
X136119047Y-94952381D01*
X136119047Y-94380952D02*
X136166666Y-94333333D01*
X136261904Y-94285714D01*
X136404762Y-94285714D01*
X136500000Y-94333333D01*
X136547619Y-94428571D01*
X136547619Y-94952381D01*
X137452381Y-94285714D02*
X137452381Y-95095238D01*
X137404762Y-95190476D01*
X137357143Y-95238095D01*
X137261904Y-95285714D01*
X137119047Y-95285714D01*
X137023809Y-95238095D01*
X137452381Y-94904762D02*
X137357143Y-94952381D01*
X137166666Y-94952381D01*
X137071428Y-94904762D01*
X137023809Y-94857143D01*
X136976190Y-94761905D01*
X136976190Y-94476190D01*
X137023809Y-94380952D01*
X137071428Y-94333333D01*
X137166666Y-94285714D01*
X137357143Y-94285714D01*
X137452381Y-94333333D01*
X137928571Y-94952381D02*
X137928571Y-93952381D01*
X137928571Y-94428571D02*
X138500000Y-94428571D01*
X138500000Y-94952381D02*
X138500000Y-93952381D01*
X139119047Y-94952381D02*
X139023809Y-94904762D01*
X138976190Y-94857143D01*
X138928571Y-94761905D01*
X138928571Y-94476190D01*
X138976190Y-94380952D01*
X139023809Y-94333333D01*
X139119047Y-94285714D01*
X139261905Y-94285714D01*
X139357143Y-94333333D01*
X139404762Y-94380952D01*
X139452381Y-94476190D01*
X139452381Y-94761905D01*
X139404762Y-94857143D01*
X139357143Y-94904762D01*
X139261905Y-94952381D01*
X139119047Y-94952381D01*
X140023809Y-94952381D02*
X139928571Y-94904762D01*
X139880952Y-94809524D01*
X139880952Y-93952381D01*
X140785715Y-94904762D02*
X140690477Y-94952381D01*
X140500000Y-94952381D01*
X140404762Y-94904762D01*
X140357143Y-94809524D01*
X140357143Y-94428571D01*
X140404762Y-94333333D01*
X140500000Y-94285714D01*
X140690477Y-94285714D01*
X140785715Y-94333333D01*
X140833334Y-94428571D01*
X140833334Y-94523810D01*
X140357143Y-94619048D01*
X135490476Y-90452381D02*
X135490476Y-89452381D01*
X135823810Y-90166667D01*
X136157143Y-89452381D01*
X136157143Y-90452381D01*
X137157143Y-90452381D02*
X136585714Y-90452381D01*
X136871428Y-90452381D02*
X136871428Y-89452381D01*
X136776190Y-89595238D01*
X136680952Y-89690476D01*
X136585714Y-89738095D01*
X159214285Y-94952381D02*
X159214285Y-93952381D01*
X159547619Y-94666667D01*
X159880952Y-93952381D01*
X159880952Y-94952381D01*
X160499999Y-94952381D02*
X160404761Y-94904762D01*
X160357142Y-94857143D01*
X160309523Y-94761905D01*
X160309523Y-94476190D01*
X160357142Y-94380952D01*
X160404761Y-94333333D01*
X160499999Y-94285714D01*
X160642857Y-94285714D01*
X160738095Y-94333333D01*
X160785714Y-94380952D01*
X160833333Y-94476190D01*
X160833333Y-94761905D01*
X160785714Y-94857143D01*
X160738095Y-94904762D01*
X160642857Y-94952381D01*
X160499999Y-94952381D01*
X161690476Y-94285714D02*
X161690476Y-94952381D01*
X161261904Y-94285714D02*
X161261904Y-94809524D01*
X161309523Y-94904762D01*
X161404761Y-94952381D01*
X161547619Y-94952381D01*
X161642857Y-94904762D01*
X161690476Y-94857143D01*
X162166666Y-94285714D02*
X162166666Y-94952381D01*
X162166666Y-94380952D02*
X162214285Y-94333333D01*
X162309523Y-94285714D01*
X162452381Y-94285714D01*
X162547619Y-94333333D01*
X162595238Y-94428571D01*
X162595238Y-94952381D01*
X162928571Y-94285714D02*
X163309523Y-94285714D01*
X163071428Y-93952381D02*
X163071428Y-94809524D01*
X163119047Y-94904762D01*
X163214285Y-94952381D01*
X163309523Y-94952381D01*
X163642857Y-94952381D02*
X163642857Y-94285714D01*
X163642857Y-93952381D02*
X163595238Y-94000000D01*
X163642857Y-94047619D01*
X163690476Y-94000000D01*
X163642857Y-93952381D01*
X163642857Y-94047619D01*
X164119047Y-94285714D02*
X164119047Y-94952381D01*
X164119047Y-94380952D02*
X164166666Y-94333333D01*
X164261904Y-94285714D01*
X164404762Y-94285714D01*
X164500000Y-94333333D01*
X164547619Y-94428571D01*
X164547619Y-94952381D01*
X165452381Y-94285714D02*
X165452381Y-95095238D01*
X165404762Y-95190476D01*
X165357143Y-95238095D01*
X165261904Y-95285714D01*
X165119047Y-95285714D01*
X165023809Y-95238095D01*
X165452381Y-94904762D02*
X165357143Y-94952381D01*
X165166666Y-94952381D01*
X165071428Y-94904762D01*
X165023809Y-94857143D01*
X164976190Y-94761905D01*
X164976190Y-94476190D01*
X165023809Y-94380952D01*
X165071428Y-94333333D01*
X165166666Y-94285714D01*
X165357143Y-94285714D01*
X165452381Y-94333333D01*
X165928571Y-94952381D02*
X165928571Y-93952381D01*
X165928571Y-94428571D02*
X166500000Y-94428571D01*
X166500000Y-94952381D02*
X166500000Y-93952381D01*
X167119047Y-94952381D02*
X167023809Y-94904762D01*
X166976190Y-94857143D01*
X166928571Y-94761905D01*
X166928571Y-94476190D01*
X166976190Y-94380952D01*
X167023809Y-94333333D01*
X167119047Y-94285714D01*
X167261905Y-94285714D01*
X167357143Y-94333333D01*
X167404762Y-94380952D01*
X167452381Y-94476190D01*
X167452381Y-94761905D01*
X167404762Y-94857143D01*
X167357143Y-94904762D01*
X167261905Y-94952381D01*
X167119047Y-94952381D01*
X168023809Y-94952381D02*
X167928571Y-94904762D01*
X167880952Y-94809524D01*
X167880952Y-93952381D01*
X168785715Y-94904762D02*
X168690477Y-94952381D01*
X168500000Y-94952381D01*
X168404762Y-94904762D01*
X168357143Y-94809524D01*
X168357143Y-94428571D01*
X168404762Y-94333333D01*
X168500000Y-94285714D01*
X168690477Y-94285714D01*
X168785715Y-94333333D01*
X168833334Y-94428571D01*
X168833334Y-94523810D01*
X168357143Y-94619048D01*
X163490476Y-90452381D02*
X163490476Y-89452381D01*
X163823810Y-90166667D01*
X164157143Y-89452381D01*
X164157143Y-90452381D01*
X165061905Y-89785714D02*
X165061905Y-90452381D01*
X164823809Y-89404762D02*
X164585714Y-90119048D01*
X165204762Y-90119048D01*
X104404762Y-91152381D02*
X104976191Y-91152381D01*
X104690476Y-92152381D02*
X104690476Y-91152381D01*
X105309524Y-91628571D02*
X105642858Y-91628571D01*
X105785715Y-92152381D02*
X105309524Y-92152381D01*
X105309524Y-91152381D01*
X105785715Y-91152381D01*
X106166667Y-92104762D02*
X106309524Y-92152381D01*
X106547620Y-92152381D01*
X106642858Y-92104762D01*
X106690477Y-92057143D01*
X106738096Y-91961905D01*
X106738096Y-91866667D01*
X106690477Y-91771429D01*
X106642858Y-91723810D01*
X106547620Y-91676190D01*
X106357143Y-91628571D01*
X106261905Y-91580952D01*
X106214286Y-91533333D01*
X106166667Y-91438095D01*
X106166667Y-91342857D01*
X106214286Y-91247619D01*
X106261905Y-91200000D01*
X106357143Y-91152381D01*
X106595239Y-91152381D01*
X106738096Y-91200000D01*
X107023810Y-91152381D02*
X107595239Y-91152381D01*
X107309524Y-92152381D02*
X107309524Y-91152381D01*
X105038095Y-87852381D02*
X105609524Y-87852381D01*
X105323809Y-88852381D02*
X105323809Y-87852381D01*
X105942857Y-88852381D02*
X105942857Y-87852381D01*
X106323810Y-87852381D01*
X106419048Y-87900000D01*
X106466667Y-87947619D01*
X106514286Y-88042857D01*
X106514286Y-88185714D01*
X106466667Y-88280952D01*
X106419048Y-88328571D01*
X106323810Y-88376190D01*
X105942857Y-88376190D01*
X106895238Y-87947619D02*
X106942857Y-87900000D01*
X107038095Y-87852381D01*
X107276191Y-87852381D01*
X107371429Y-87900000D01*
X107419048Y-87947619D01*
X107466667Y-88042857D01*
X107466667Y-88138095D01*
X107419048Y-88280952D01*
X106847619Y-88852381D01*
X107466667Y-88852381D01*
X113804762Y-96752381D02*
X114376191Y-96752381D01*
X114090476Y-97752381D02*
X114090476Y-96752381D01*
X114709524Y-97228571D02*
X115042858Y-97228571D01*
X115185715Y-97752381D02*
X114709524Y-97752381D01*
X114709524Y-96752381D01*
X115185715Y-96752381D01*
X115566667Y-97704762D02*
X115709524Y-97752381D01*
X115947620Y-97752381D01*
X116042858Y-97704762D01*
X116090477Y-97657143D01*
X116138096Y-97561905D01*
X116138096Y-97466667D01*
X116090477Y-97371429D01*
X116042858Y-97323810D01*
X115947620Y-97276190D01*
X115757143Y-97228571D01*
X115661905Y-97180952D01*
X115614286Y-97133333D01*
X115566667Y-97038095D01*
X115566667Y-96942857D01*
X115614286Y-96847619D01*
X115661905Y-96800000D01*
X115757143Y-96752381D01*
X115995239Y-96752381D01*
X116138096Y-96800000D01*
X116423810Y-96752381D02*
X116995239Y-96752381D01*
X116709524Y-97752381D02*
X116709524Y-96752381D01*
X114438095Y-93452381D02*
X115009524Y-93452381D01*
X114723809Y-94452381D02*
X114723809Y-93452381D01*
X115342857Y-94452381D02*
X115342857Y-93452381D01*
X115723810Y-93452381D01*
X115819048Y-93500000D01*
X115866667Y-93547619D01*
X115914286Y-93642857D01*
X115914286Y-93785714D01*
X115866667Y-93880952D01*
X115819048Y-93928571D01*
X115723810Y-93976190D01*
X115342857Y-93976190D01*
X116247619Y-93452381D02*
X116866667Y-93452381D01*
X116533333Y-93833333D01*
X116676191Y-93833333D01*
X116771429Y-93880952D01*
X116819048Y-93928571D01*
X116866667Y-94023810D01*
X116866667Y-94261905D01*
X116819048Y-94357143D01*
X116771429Y-94404762D01*
X116676191Y-94452381D01*
X116390476Y-94452381D01*
X116295238Y-94404762D01*
X116247619Y-94357143D01*
X192504762Y-90352381D02*
X193076191Y-90352381D01*
X192790476Y-91352381D02*
X192790476Y-90352381D01*
X193409524Y-90828571D02*
X193742858Y-90828571D01*
X193885715Y-91352381D02*
X193409524Y-91352381D01*
X193409524Y-90352381D01*
X193885715Y-90352381D01*
X194266667Y-91304762D02*
X194409524Y-91352381D01*
X194647620Y-91352381D01*
X194742858Y-91304762D01*
X194790477Y-91257143D01*
X194838096Y-91161905D01*
X194838096Y-91066667D01*
X194790477Y-90971429D01*
X194742858Y-90923810D01*
X194647620Y-90876190D01*
X194457143Y-90828571D01*
X194361905Y-90780952D01*
X194314286Y-90733333D01*
X194266667Y-90638095D01*
X194266667Y-90542857D01*
X194314286Y-90447619D01*
X194361905Y-90400000D01*
X194457143Y-90352381D01*
X194695239Y-90352381D01*
X194838096Y-90400000D01*
X195123810Y-90352381D02*
X195695239Y-90352381D01*
X195409524Y-91352381D02*
X195409524Y-90352381D01*
X193138095Y-87052381D02*
X193709524Y-87052381D01*
X193423809Y-88052381D02*
X193423809Y-87052381D01*
X194042857Y-88052381D02*
X194042857Y-87052381D01*
X194423810Y-87052381D01*
X194519048Y-87100000D01*
X194566667Y-87147619D01*
X194614286Y-87242857D01*
X194614286Y-87385714D01*
X194566667Y-87480952D01*
X194519048Y-87528571D01*
X194423810Y-87576190D01*
X194042857Y-87576190D01*
X195471429Y-87385714D02*
X195471429Y-88052381D01*
X195233333Y-87004762D02*
X194995238Y-87719048D01*
X195614286Y-87719048D01*
X185304762Y-94352381D02*
X185876191Y-94352381D01*
X185590476Y-95352381D02*
X185590476Y-94352381D01*
X186209524Y-94828571D02*
X186542858Y-94828571D01*
X186685715Y-95352381D02*
X186209524Y-95352381D01*
X186209524Y-94352381D01*
X186685715Y-94352381D01*
X187066667Y-95304762D02*
X187209524Y-95352381D01*
X187447620Y-95352381D01*
X187542858Y-95304762D01*
X187590477Y-95257143D01*
X187638096Y-95161905D01*
X187638096Y-95066667D01*
X187590477Y-94971429D01*
X187542858Y-94923810D01*
X187447620Y-94876190D01*
X187257143Y-94828571D01*
X187161905Y-94780952D01*
X187114286Y-94733333D01*
X187066667Y-94638095D01*
X187066667Y-94542857D01*
X187114286Y-94447619D01*
X187161905Y-94400000D01*
X187257143Y-94352381D01*
X187495239Y-94352381D01*
X187638096Y-94400000D01*
X187923810Y-94352381D02*
X188495239Y-94352381D01*
X188209524Y-95352381D02*
X188209524Y-94352381D01*
X185938095Y-91052381D02*
X186509524Y-91052381D01*
X186223809Y-92052381D02*
X186223809Y-91052381D01*
X186842857Y-92052381D02*
X186842857Y-91052381D01*
X187223810Y-91052381D01*
X187319048Y-91100000D01*
X187366667Y-91147619D01*
X187414286Y-91242857D01*
X187414286Y-91385714D01*
X187366667Y-91480952D01*
X187319048Y-91528571D01*
X187223810Y-91576190D01*
X186842857Y-91576190D01*
X188319048Y-91052381D02*
X187842857Y-91052381D01*
X187795238Y-91528571D01*
X187842857Y-91480952D01*
X187938095Y-91433333D01*
X188176191Y-91433333D01*
X188271429Y-91480952D01*
X188319048Y-91528571D01*
X188366667Y-91623810D01*
X188366667Y-91861905D01*
X188319048Y-91957143D01*
X188271429Y-92004762D01*
X188176191Y-92052381D01*
X187938095Y-92052381D01*
X187842857Y-92004762D01*
X187795238Y-91957143D01*
X189723810Y-121052381D02*
X189723810Y-120052381D01*
X190104763Y-120052381D01*
X190200001Y-120100000D01*
X190247620Y-120147619D01*
X190295239Y-120242857D01*
X190295239Y-120385714D01*
X190247620Y-120480952D01*
X190200001Y-120528571D01*
X190104763Y-120576190D01*
X189723810Y-120576190D01*
X191295239Y-120957143D02*
X191247620Y-121004762D01*
X191104763Y-121052381D01*
X191009525Y-121052381D01*
X190866667Y-121004762D01*
X190771429Y-120909524D01*
X190723810Y-120814286D01*
X190676191Y-120623810D01*
X190676191Y-120480952D01*
X190723810Y-120290476D01*
X190771429Y-120195238D01*
X190866667Y-120100000D01*
X191009525Y-120052381D01*
X191104763Y-120052381D01*
X191247620Y-120100000D01*
X191295239Y-120147619D01*
X192057144Y-120528571D02*
X192200001Y-120576190D01*
X192247620Y-120623810D01*
X192295239Y-120719048D01*
X192295239Y-120861905D01*
X192247620Y-120957143D01*
X192200001Y-121004762D01*
X192104763Y-121052381D01*
X191723810Y-121052381D01*
X191723810Y-120052381D01*
X192057144Y-120052381D01*
X192152382Y-120100000D01*
X192200001Y-120147619D01*
X192247620Y-120242857D01*
X192247620Y-120338095D01*
X192200001Y-120433333D01*
X192152382Y-120480952D01*
X192057144Y-120528571D01*
X191723810Y-120528571D01*
X192723810Y-120957143D02*
X192771429Y-121004762D01*
X192723810Y-121052381D01*
X192676191Y-121004762D01*
X192723810Y-120957143D01*
X192723810Y-121052381D01*
X193152381Y-121004762D02*
X193295238Y-121052381D01*
X193533334Y-121052381D01*
X193628572Y-121004762D01*
X193676191Y-120957143D01*
X193723810Y-120861905D01*
X193723810Y-120766667D01*
X193676191Y-120671429D01*
X193628572Y-120623810D01*
X193533334Y-120576190D01*
X193342857Y-120528571D01*
X193247619Y-120480952D01*
X193200000Y-120433333D01*
X193152381Y-120338095D01*
X193152381Y-120242857D01*
X193200000Y-120147619D01*
X193247619Y-120100000D01*
X193342857Y-120052381D01*
X193580953Y-120052381D01*
X193723810Y-120100000D01*
X194152381Y-121052381D02*
X194152381Y-120052381D01*
X194485715Y-120766667D01*
X194819048Y-120052381D01*
X194819048Y-121052381D01*
X195247619Y-120766667D02*
X195723810Y-120766667D01*
X195152381Y-121052381D02*
X195485714Y-120052381D01*
X195819048Y-121052381D01*
X196485715Y-120528571D02*
X196152381Y-120528571D01*
X196152381Y-121052381D02*
X196152381Y-120052381D01*
X196628572Y-120052381D01*
X197580953Y-121052381D02*
X197247619Y-120576190D01*
X197009524Y-121052381D02*
X197009524Y-120052381D01*
X197390477Y-120052381D01*
X197485715Y-120100000D01*
X197533334Y-120147619D01*
X197580953Y-120242857D01*
X197580953Y-120385714D01*
X197533334Y-120480952D01*
X197485715Y-120528571D01*
X197390477Y-120576190D01*
X197009524Y-120576190D01*
X197961905Y-120766667D02*
X198438096Y-120766667D01*
X197866667Y-121052381D02*
X198200000Y-120052381D01*
X198533334Y-121052381D01*
X198866667Y-120957143D02*
X198914286Y-121004762D01*
X198866667Y-121052381D01*
X198819048Y-121004762D01*
X198866667Y-120957143D01*
X198866667Y-121052381D01*
X199342857Y-121052381D02*
X199342857Y-120052381D01*
X199342857Y-120528571D02*
X199914286Y-120528571D01*
X199914286Y-121052381D02*
X199914286Y-120052381D01*
X200247619Y-120052381D02*
X200819048Y-120052381D01*
X200533333Y-121052381D02*
X200533333Y-120052381D01*
X194390476Y-110052381D02*
X195057143Y-111052381D01*
X195057143Y-110052381D02*
X194390476Y-111052381D01*
X195580952Y-110480952D02*
X195485714Y-110433333D01*
X195438095Y-110385714D01*
X195390476Y-110290476D01*
X195390476Y-110242857D01*
X195438095Y-110147619D01*
X195485714Y-110100000D01*
X195580952Y-110052381D01*
X195771429Y-110052381D01*
X195866667Y-110100000D01*
X195914286Y-110147619D01*
X195961905Y-110242857D01*
X195961905Y-110290476D01*
X195914286Y-110385714D01*
X195866667Y-110433333D01*
X195771429Y-110480952D01*
X195580952Y-110480952D01*
X195485714Y-110528571D01*
X195438095Y-110576190D01*
X195390476Y-110671429D01*
X195390476Y-110861905D01*
X195438095Y-110957143D01*
X195485714Y-111004762D01*
X195580952Y-111052381D01*
X195771429Y-111052381D01*
X195866667Y-111004762D01*
X195914286Y-110957143D01*
X195961905Y-110861905D01*
X195961905Y-110671429D01*
X195914286Y-110576190D01*
X195866667Y-110528571D01*
X195771429Y-110480952D01*
X180052381Y-107252381D02*
X179480952Y-107252381D01*
X179766666Y-107252381D02*
X179766666Y-106252381D01*
X179671428Y-106395238D01*
X179576190Y-106490476D01*
X179480952Y-106538095D01*
X180671428Y-106252381D02*
X180766667Y-106252381D01*
X180861905Y-106300000D01*
X180909524Y-106347619D01*
X180957143Y-106442857D01*
X181004762Y-106633333D01*
X181004762Y-106871429D01*
X180957143Y-107061905D01*
X180909524Y-107157143D01*
X180861905Y-107204762D01*
X180766667Y-107252381D01*
X180671428Y-107252381D01*
X180576190Y-107204762D01*
X180528571Y-107157143D01*
X180480952Y-107061905D01*
X180433333Y-106871429D01*
X180433333Y-106633333D01*
X180480952Y-106442857D01*
X180528571Y-106347619D01*
X180576190Y-106300000D01*
X180671428Y-106252381D01*
X181623809Y-106252381D02*
X181719048Y-106252381D01*
X181814286Y-106300000D01*
X181861905Y-106347619D01*
X181909524Y-106442857D01*
X181957143Y-106633333D01*
X181957143Y-106871429D01*
X181909524Y-107061905D01*
X181861905Y-107157143D01*
X181814286Y-107204762D01*
X181719048Y-107252381D01*
X181623809Y-107252381D01*
X181528571Y-107204762D01*
X181480952Y-107157143D01*
X181433333Y-107061905D01*
X181385714Y-106871429D01*
X181385714Y-106633333D01*
X181433333Y-106442857D01*
X181480952Y-106347619D01*
X181528571Y-106300000D01*
X181623809Y-106252381D01*
X182385714Y-106585714D02*
X182385714Y-107252381D01*
X182385714Y-106680952D02*
X182433333Y-106633333D01*
X182528571Y-106585714D01*
X182671429Y-106585714D01*
X182766667Y-106633333D01*
X182814286Y-106728571D01*
X182814286Y-107252381D01*
X183623810Y-106728571D02*
X183290476Y-106728571D01*
X183290476Y-107252381D02*
X183290476Y-106252381D01*
X183766667Y-106252381D01*
D13*
X181550000Y-108907143D02*
X181535714Y-108921429D01*
X181492857Y-108935714D01*
X181464286Y-108935714D01*
X181421429Y-108921429D01*
X181392857Y-108892857D01*
X181378572Y-108864286D01*
X181364286Y-108807143D01*
X181364286Y-108764286D01*
X181378572Y-108707143D01*
X181392857Y-108678571D01*
X181421429Y-108650000D01*
X181464286Y-108635714D01*
X181492857Y-108635714D01*
X181535714Y-108650000D01*
X181550000Y-108664286D01*
X181650000Y-108635714D02*
X181850000Y-108635714D01*
X181721429Y-108935714D01*
D12*
X187404762Y-110252381D02*
X187976191Y-110252381D01*
X187690476Y-111252381D02*
X187690476Y-110252381D01*
X188309524Y-110728571D02*
X188642858Y-110728571D01*
X188785715Y-111252381D02*
X188309524Y-111252381D01*
X188309524Y-110252381D01*
X188785715Y-110252381D01*
X189166667Y-111204762D02*
X189309524Y-111252381D01*
X189547620Y-111252381D01*
X189642858Y-111204762D01*
X189690477Y-111157143D01*
X189738096Y-111061905D01*
X189738096Y-110966667D01*
X189690477Y-110871429D01*
X189642858Y-110823810D01*
X189547620Y-110776190D01*
X189357143Y-110728571D01*
X189261905Y-110680952D01*
X189214286Y-110633333D01*
X189166667Y-110538095D01*
X189166667Y-110442857D01*
X189214286Y-110347619D01*
X189261905Y-110300000D01*
X189357143Y-110252381D01*
X189595239Y-110252381D01*
X189738096Y-110300000D01*
X190023810Y-110252381D02*
X190595239Y-110252381D01*
X190309524Y-111252381D02*
X190309524Y-110252381D01*
M02*
